<svg width="31" height="28" viewBox="0 0 31 28" fill="none" xmlns="http://www.w3.org/2000/svg">
<path d="M8.25 24.25C8.66421 24.25 9 23.9142 9 23.5C9 23.0858 8.66421 22.75 8.25 22.75C7.83579 22.75 7.5 23.0858 7.5 23.5C7.5 23.9142 7.83579 24.25 8.25 24.25Z" stroke="#926A59" strokeLinecap="round" stroke-linejoin="round"/>
<path d="M17.9941 24.5C18.4084 24.5 18.7441 24.1642 18.7441 23.75C18.7441 23.3358 18.4084 23 17.9941 23C17.5799 23 17.2441 23.3358 17.2441 23.75C17.2441 24.1642 17.5799 24.5 17.9941 24.5Z" stroke="#926A59" strokeLinecap="round" stroke-linejoin="round"/>
<path d="M2.24414 8H5.24414L7.49414 20.75H18.7383" stroke="#926A59" stroke-width="1.4" strokeLinecap="round" stroke-linejoin="round"/>
<path d="M7.65186 18H18.625C18.7064 18.0001 18.7853 17.9681 18.8483 17.9094C18.9112 17.8508 18.9544 17.7692 18.9704 17.6785L20.2373 10.4785C20.2475 10.4204 20.2463 10.3605 20.2337 10.3031C20.221 10.2456 20.1973 10.1921 20.1643 10.1463C20.1313 10.1005 20.0897 10.0637 20.0426 10.0384C19.9955 10.0131 19.9441 9.99996 19.892 10H6.24414" stroke="#926A59" stroke-width="1.4" strokeLinecap="round" stroke-linejoin="round"/>
<rect x="17" width="14" height="14" rx="7" fill="#926A59"/>
<path d="M26.8184 7.70508C26.8184 8.40039 26.7656 9.02148 26.6602 9.56836C26.5547 10.1152 26.3887 10.5781 26.1621 10.957C25.9355 11.3359 25.6426 11.625 25.2832 11.8242C24.9238 12.0195 24.4922 12.1172 23.9883 12.1172C23.3516 12.1172 22.8242 11.9434 22.4062 11.5957C21.9922 11.248 21.6816 10.7461 21.4746 10.0898C21.2715 9.42969 21.1699 8.63477 21.1699 7.70508C21.1699 6.79102 21.2617 6.00586 21.4453 5.34961C21.6328 4.68945 21.9336 4.18359 22.3477 3.83203C22.7617 3.47656 23.3086 3.29883 23.9883 3.29883C24.6328 3.29883 25.1641 3.47461 25.582 3.82617C26 4.17383 26.3105 4.67773 26.5137 5.33789C26.7168 5.99414 26.8184 6.7832 26.8184 7.70508ZM22.1484 7.70508C22.1484 8.50195 22.209 9.16602 22.3301 9.69727C22.4512 10.2285 22.6465 10.627 22.916 10.8926C23.1895 11.1543 23.5469 11.2852 23.9883 11.2852C24.4297 11.2852 24.7852 11.1543 25.0547 10.8926C25.3281 10.6309 25.5254 10.2344 25.6465 9.70312C25.7715 9.17188 25.834 8.50586 25.834 7.70508C25.834 6.91992 25.7734 6.26367 25.6523 5.73633C25.5312 5.20508 25.3359 4.80664 25.0664 4.54102C24.7969 4.27148 24.4375 4.13672 23.9883 4.13672C23.5391 4.13672 23.1797 4.27148 22.9102 4.54102C22.6406 4.80664 22.4453 5.20508 22.3242 5.73633C22.207 6.26367 22.1484 6.91992 22.1484 7.70508Z" fill="white"/>
</svg>
