<svg width="185" height="40" viewBox="0 0 185 40" fill="none" xmlns="http://www.w3.org/2000/svg">
<path d="M72 24.5L185 24.5" stroke="#404040"/>
<path fill-rule="evenodd" clip-rule="evenodd" d="M35.5402 3.59505C35.0333 3.63544 34.5447 3.57059 34.074 3.40087C33.9163 3.88496 34.1257 4.24089 34.7024 4.46886C34.4579 4.56595 34.2835 4.7277 34.1787 4.95431C33.967 4.79178 33.7225 4.72712 33.4456 4.76013C33.5369 4.204 33.3624 3.75098 32.922 3.40087C32.8522 3.46554 32.7822 3.53039 32.7125 3.59505C32.3633 3.07718 32.0144 3.07718 31.6652 3.59505C31.2241 3.24728 30.7004 3.11776 30.0942 3.2067C30.1254 3.81001 30.0207 4.39255 29.78 4.95431C29.5922 3.34534 29.4177 3.28068 29.2564 4.76013C29.3289 5.35742 29.4684 5.93996 29.6753 6.50774C29.3701 7.57494 29.1607 8.67535 29.0469 9.80878C28.8377 7.74155 28.7679 5.67024 28.8375 3.59505C28.5583 3.59505 28.2788 3.59505 27.9996 3.59505C28.0652 4.12846 27.9954 4.64634 27.7902 5.14848C27.6452 5.04654 27.5405 4.91702 27.476 4.76013C27.4177 4.93799 27.313 5.06732 27.1618 5.14848C25.6455 2.30984 23.2019 1.11242 19.8306 1.55617C17.8026 2.50128 16.7553 4.02244 16.6887 6.11938C15.2631 6.23006 14.0064 6.71551 12.9184 7.57572C10.3612 9.58819 8.44114 12.0154 7.15824 14.8574C6.89266 15.7002 6.85774 16.5417 7.05351 17.3818C7.89948 14.6479 9.29589 12.1884 11.2427 10.003C11.921 9.34139 12.6891 8.79109 13.5468 8.35243C13.7845 8.207 13.994 8.23923 14.1752 8.44952C14.5556 8.89944 14.9745 9.32022 15.432 9.71169C14.8572 9.96878 14.578 10.3896 14.5941 10.9739C15.6255 10.9342 16.5333 11.2255 17.3171 11.8477C18.8573 13.3978 19.7299 15.2425 19.9354 17.3818C20.2594 19.1847 19.4565 20.0907 17.5266 20.1003C16.2174 18.9754 15.2749 17.6161 14.6988 16.0225C13.5309 15.7518 13.2516 16.1402 13.861 17.1876C14.4014 18.0777 15.0995 18.8544 15.9556 19.5177C15.9101 20.6576 15.6309 21.758 15.1178 22.8188C14.689 23.4258 14.1306 23.5553 13.4421 23.2071C11.9152 23.7046 10.4838 24.3842 9.14812 25.246C8.51973 25.3755 7.89135 25.3755 7.26297 25.246C7.01132 25.0707 6.83676 24.8442 6.73932 24.5664C6.70415 22.7506 6.59942 20.9383 6.42512 19.1294C6.01144 22.6141 5.90671 26.1093 6.11093 29.615C7.27878 31.7355 9.12901 32.4799 11.6617 31.8481C13.4898 31.3601 15.305 30.8747 17.1076 30.3917C18.2993 30.5232 19.2768 31.0086 20.0401 31.8481C21.5759 32.1502 22.8326 31.7619 23.8104 30.683C23.5714 30.2075 23.3619 29.722 23.182 29.2267C23.2279 28.9474 23.3326 28.6886 23.4962 28.4499C24.4038 27.8674 25.3116 27.2849 26.2192 26.7023C26.9048 25.4763 27.1842 24.1819 27.057 22.8188C27.6465 22.5341 28.2399 22.2428 28.8375 21.945C28.4185 21.8154 27.9996 21.8154 27.5807 21.945C26.0646 22.7776 24.4587 23.3926 22.7631 23.7897C21.5981 23.6238 20.4808 23.3003 19.4117 22.8188C19.6955 22.4263 20.0445 22.1026 20.459 21.8479C20.9372 21.3209 21.3561 21.3533 21.7158 21.945C23.048 22.23 24.2348 21.9712 25.2766 21.1682C25.1032 20.9906 24.8937 20.8612 24.6482 20.7799C23.6732 20.683 22.6959 20.6506 21.7158 20.6828C21.6829 20.4162 21.7179 20.1572 21.8205 19.9061C21.9252 20.0032 22.03 20.1003 22.1347 20.1973C23.6692 20.2944 25.2052 20.3267 26.7428 20.2944C26.7428 20.0356 26.7428 19.7766 26.7428 19.5177C25.2069 19.5177 23.6707 19.5177 22.1347 19.5177C22.0888 19.2896 22.1586 19.0954 22.3442 18.9352C24.9042 17.6783 27.6272 17.1282 30.5132 17.2847C29.6231 18.0779 28.6458 18.7575 27.5807 19.3235C28.1027 20.0338 28.7311 20.0985 29.4658 19.5177C29.9797 18.9855 30.4683 18.4352 30.9321 17.8672C31.1306 17.7734 31.3401 17.7412 31.5605 17.7701C31.5131 18.3039 31.5829 18.8218 31.7699 19.3235C32.4278 19.435 33.0562 19.435 33.6551 19.3235C33.3849 19.7686 33.0357 20.157 32.6078 20.4886C32.3466 20.8426 32.2069 21.231 32.1888 21.6537C32.821 21.6857 33.4494 21.6533 34.074 21.5566C34.9252 20.6354 35.4139 19.5674 35.5402 18.3526C35.7497 18.3526 35.9591 18.3526 36.1686 18.3526C36.2034 19.7781 36.1686 21.202 36.0639 22.6246C35.9885 22.9976 35.8138 23.3213 35.5402 23.5955C34.9759 24.1186 34.4175 24.6363 33.8645 25.1489C34.549 25.3406 35.2474 25.4052 35.9591 25.3431C36.102 26.5717 36.1368 27.8016 36.0639 29.0325C35.9665 29.3104 35.7918 29.5368 35.5402 29.7121C34.3069 30.0181 33.0501 30.0828 31.7699 29.9063C30.7086 29.6403 30.2549 29.0253 30.4084 28.0616C30.6202 27.8991 30.8646 27.8344 31.1415 27.8674C30.8311 26.5219 30.6217 25.1627 30.5132 23.7897C30.5481 23.2718 30.5829 22.7541 30.6179 22.2362C31.8832 21.4568 31.7085 21.1655 30.0942 21.3624C29.8307 22.5395 29.6562 23.737 29.5706 24.9547C29.2914 25.4726 29.0119 25.9903 28.7327 26.5082C27.7531 27.3286 26.6708 28.0082 25.4861 28.547C24.4966 29.5993 24.3919 30.7319 25.1719 31.9452C27.3639 33.9163 29.9822 34.8872 33.0267 34.8578C34.5796 34.7641 36.1156 34.5699 37.6348 34.2753C38.1687 34.2534 38.6574 34.3829 39.1011 34.6637C39.2318 35.141 39.546 35.4645 40.0436 35.6346C40.1471 35.9519 40.1819 36.2755 40.1484 36.6055C40.707 36.735 41.2654 36.8643 41.8241 36.9938C41.8241 37.2527 41.8241 37.5117 41.8241 37.7705C41.0511 37.2828 40.2133 36.8944 39.3105 36.6055C36.7367 34.9241 34.0834 34.827 31.351 36.3142C29.5993 37.3851 27.7839 38.356 25.905 39.2269C24.4658 39.4197 23.0693 39.3226 21.7158 38.9356C19.5682 37.6969 17.3341 36.5643 15.013 35.5375C13.3681 35.1052 11.7622 35.2023 10.1954 35.8287C8.52642 34.7021 7.09511 33.3429 5.90147 31.751C2.67349 27.8371 0.718523 23.4357 0.0365594 18.5468C-0.464178 9.17401 4.17886 3.31641 13.9657 0.973638C19.2498 0.186359 24.4863 0.380538 29.6753 1.55617C31.7148 2.10976 33.6697 2.78939 35.5402 3.59505Z" fill="#CE9560"/>
<path fill-rule="evenodd" clip-rule="evenodd" d="M35.5402 3.59505C43.8231 6.83765 50.3514 12.0156 55.1248 19.1294C57.3902 22.7413 58.6819 26.6249 58.9999 30.7801C59.0051 32.2844 58.8656 33.773 58.5809 35.2462C57.1866 35.1423 55.86 35.3689 54.6012 35.9258C53.0564 36.7703 51.5902 37.7088 50.2025 38.7414C48.6039 39.4908 46.9282 39.6849 45.1754 39.324C43.9448 38.9935 42.8276 38.4756 41.8241 37.7705C41.8241 37.5117 41.8241 37.2527 41.8241 36.9938C41.2654 36.8643 40.707 36.735 40.1484 36.6055C40.1819 36.2755 40.1471 35.9519 40.0436 35.6346C39.546 35.4645 39.2318 35.141 39.1011 34.6637C38.6574 34.3829 38.1687 34.2534 37.6348 34.2753C38.9597 33.8963 40.2164 33.3462 41.4051 32.6248C41.9206 32.0758 42.1301 31.4286 42.0335 30.683C41.9985 30.2622 41.9638 29.8416 41.9288 29.4208C40.4523 28.2061 38.8114 27.2352 37.0064 26.5082C36.7972 23.5335 36.7272 20.5562 36.797 17.5759C36.0989 17.3544 35.4705 16.9984 34.9118 16.5079C34.2575 16.2528 33.5941 16.0264 32.922 15.8283C30.049 16.4151 27.1513 16.6093 24.2293 16.4109C22.7949 16.1992 21.6081 15.5844 20.6685 14.5662C20.4699 14.4724 20.2604 14.4401 20.0401 14.4691C19.547 13.9054 19.1629 13.2582 18.8881 12.5273C18.7209 12.1857 18.7559 11.862 18.9928 11.5564C19.441 11.7453 19.7902 12.0366 20.0401 12.4302C21.1349 12.5667 22.1125 12.3079 22.9726 11.6535C23.4139 11.408 23.6233 11.0521 23.6009 10.5855C23.3133 10.555 23.0339 10.5874 22.7631 10.6826C21.646 12.278 20.494 12.3104 19.307 10.7797C18.6704 9.91654 18.1118 9.01031 17.6313 8.06117C17.4677 7.78077 17.5027 7.52193 17.736 7.28445C18.2312 7.64621 18.7548 7.96971 19.307 8.25534C19.5183 8.55147 19.6231 8.87516 19.6212 9.22624C19.8306 9.22624 20.0401 9.22624 20.2496 9.22624C20.1555 8.68448 20.1555 8.1668 20.2496 7.67281C20.5987 8.06117 20.9477 8.44952 21.2969 8.83788C22.2744 8.9674 23.2518 9.09672 24.2293 9.22624C23.8824 9.59751 23.8127 9.98587 24.0199 10.3913C24.9811 9.7678 25.9236 9.12041 26.8476 8.44952C27.1176 7.36445 27.2223 6.26404 27.1618 5.14848C27.313 5.06732 27.4177 4.93799 27.476 4.76013C27.5405 4.91702 27.6452 5.04654 27.7902 5.14848C27.9954 4.64634 28.0652 4.12846 27.9996 3.59505C28.2788 3.59505 28.5583 3.59505 28.8375 3.59505C28.7679 5.67024 28.8377 7.74155 29.0469 9.80878C29.1607 8.67535 29.3701 7.57494 29.6753 6.50774C29.4684 5.93996 29.3289 5.35742 29.2564 4.76013C29.4177 3.28068 29.5922 3.34534 29.78 4.95431C30.0207 4.39255 30.1254 3.81001 30.0942 3.2067C30.7004 3.11776 31.2241 3.24728 31.6652 3.59505C32.0144 3.07718 32.3633 3.07718 32.7125 3.59505C32.7822 3.53039 32.8522 3.46554 32.922 3.40087C33.3624 3.75098 33.5369 4.204 33.4456 4.76013C33.7225 4.72712 33.967 4.79178 34.1787 4.95431C34.2835 4.7277 34.4579 4.56595 34.7024 4.46886C34.1257 4.24089 33.9163 3.88496 34.074 3.40087C34.5447 3.57059 35.0333 3.63544 35.5402 3.59505Z" fill="#CE9560"/>
<path fill-rule="evenodd" clip-rule="evenodd" d="M17.5266 20.1003C18.0437 20.2589 18.6021 20.356 19.2023 20.3915C19.0104 20.4455 18.8709 20.5426 18.7833 20.6828C18.5887 20.841 18.3793 21.0028 18.1549 21.1682C18.6241 21.358 19.1128 21.455 19.6212 21.4595C20.0365 21.3929 20.316 21.5224 20.459 21.8479C20.0445 22.1026 19.6955 22.4263 19.4117 22.8188C20.4808 23.3003 21.5981 23.6238 22.7631 23.7897C24.4587 23.3926 26.0646 22.7776 27.5807 21.945C27.9996 21.8154 28.4185 21.8154 28.8375 21.945C28.2399 22.2428 27.6465 22.5341 27.057 22.8188C27.1842 24.1819 26.9048 25.4763 26.2192 26.7023C25.3116 27.2849 24.4038 27.8674 23.4962 28.4499C23.3326 28.6886 23.2279 28.9474 23.182 29.2267C23.3619 29.722 23.5714 30.2075 23.8104 30.683C22.8326 31.7619 21.5759 32.1502 20.0401 31.8481C19.2768 31.0086 18.2993 30.5232 17.1076 30.3917C15.305 30.8747 13.4898 31.3601 11.6617 31.8481C9.12901 32.4799 7.27878 31.7355 6.11093 29.615C5.90671 26.1093 6.01144 22.6141 6.42512 19.1294C6.59942 20.9383 6.70415 22.7506 6.73932 24.5664C6.83676 24.8442 7.01132 25.0707 7.26297 25.246C7.89135 25.3755 8.51973 25.3755 9.14812 25.246C10.4838 24.3842 11.9152 23.7046 13.4421 23.2071C14.1306 23.5553 14.689 23.4258 15.1178 22.8188C15.6309 21.758 15.9101 20.6576 15.9556 19.5177C15.0995 18.8544 14.4014 18.0777 13.861 17.1876C13.2516 16.1402 13.5309 15.7518 14.6988 16.0225C15.2749 17.6161 16.2174 18.9754 17.5266 20.1003Z" fill="#FDFCFA"/>
<path fill-rule="evenodd" clip-rule="evenodd" d="M19.6212 21.4595C19.1128 21.455 18.6241 21.358 18.1549 21.1682C18.3793 21.0028 18.5887 20.841 18.7833 20.6828C19.5091 20.4917 20.1723 20.1682 20.7732 19.7119C20.9404 20.0535 20.9054 20.3772 20.6685 20.6828C20.343 20.9921 19.9938 21.251 19.6212 21.4595Z" fill="#CE9560"/>
<path fill-rule="evenodd" clip-rule="evenodd" d="M27.1618 5.14848C27.2223 6.26404 27.1176 7.36445 26.8476 8.44952C25.9236 9.12041 24.9811 9.7678 24.0199 10.3913C23.8127 9.98587 23.8824 9.59751 24.2293 9.22624C23.2518 9.09672 22.2744 8.9674 21.2969 8.83788C20.9477 8.44952 20.5987 8.06117 20.2496 7.67281C20.1555 8.1668 20.1555 8.68448 20.2496 9.22624C20.0401 9.22624 19.8306 9.22624 19.6212 9.22624C19.6231 8.87516 19.5183 8.55147 19.307 8.25534C18.7548 7.96971 18.2312 7.64621 17.736 7.28445C17.5027 7.52193 17.4677 7.78077 17.6313 8.06117C18.1118 9.01031 18.6704 9.91654 19.307 10.7797C20.494 12.3104 21.646 12.278 22.7631 10.6826C23.0339 10.5874 23.3133 10.555 23.6009 10.5855C23.6233 11.0521 23.4139 11.408 22.9726 11.6535C22.1125 12.3079 21.1349 12.5667 20.0401 12.4302C19.7902 12.0366 19.441 11.7453 18.9928 11.5564C18.7559 11.862 18.7209 12.1857 18.8881 12.5273C19.1629 13.2582 19.547 13.9054 20.0401 14.4691C20.2604 14.4401 20.4699 14.4724 20.6685 14.5662C21.6081 15.5844 22.7949 16.1992 24.2293 16.4109C27.1513 16.6093 30.049 16.4151 32.922 15.8283C33.5941 16.0264 34.2575 16.2528 34.9118 16.5079C35.4705 16.9984 36.0989 17.3544 36.797 17.5759C36.7272 20.5562 36.7972 23.5335 37.0064 26.5082C38.8114 27.2352 40.4523 28.2061 41.9288 29.4208C41.9638 29.8416 41.9985 30.2622 42.0335 30.683C42.1301 31.4286 41.9206 32.0758 41.4051 32.6248C40.2164 33.3462 38.9597 33.8963 37.6348 34.2753C36.1156 34.5699 34.5796 34.7641 33.0267 34.8578C29.9822 34.8872 27.3639 33.9163 25.1719 31.9452C24.3919 30.7319 24.4966 29.5993 25.4861 28.547C26.6708 28.0082 27.7531 27.3286 28.7327 26.5082C29.0119 25.9903 29.2914 25.4726 29.5706 24.9547C29.6562 23.737 29.8307 22.5395 30.0942 21.3624C31.7085 21.1655 31.8832 21.4568 30.6179 22.2362C30.5829 22.7541 30.5481 23.2718 30.5132 23.7897C30.6217 25.1627 30.8311 26.5219 31.1415 27.8674C30.8646 27.8344 30.6202 27.8991 30.4084 28.0616C30.2549 29.0253 30.7086 29.6403 31.7699 29.9063C33.0501 30.0828 34.3069 30.0181 35.5402 29.7121C35.7918 29.5368 35.9665 29.3104 36.0639 29.0325C36.1368 27.8016 36.102 26.5717 35.9591 25.3431C35.2474 25.4052 34.549 25.3406 33.8645 25.1489C34.4175 24.6363 34.9759 24.1186 35.5402 23.5955C35.8138 23.3213 35.9885 22.9976 36.0639 22.6246C36.1686 21.202 36.2034 19.7781 36.1686 18.3526C35.9591 18.3526 35.7497 18.3526 35.5402 18.3526C35.4139 19.5674 34.9252 20.6354 34.074 21.5566C33.4494 21.6533 32.821 21.6857 32.1888 21.6537C32.2069 21.231 32.3466 20.8426 32.6078 20.4886C33.0357 20.157 33.3849 19.7686 33.6551 19.3235C33.0562 19.435 32.4278 19.435 31.7699 19.3235C31.5829 18.8218 31.5131 18.3039 31.5605 17.7701C31.3401 17.7412 31.1306 17.7734 30.9321 17.8672C30.4683 18.4352 29.9797 18.9855 29.4658 19.5177C28.7311 20.0985 28.1027 20.0338 27.5807 19.3235C28.6458 18.7575 29.6231 18.0779 30.5132 17.2847C27.6272 17.1282 24.9042 17.6783 22.3442 18.9352C22.1586 19.0954 22.0888 19.2896 22.1347 19.5177C23.6707 19.5177 25.2069 19.5177 26.7428 19.5177C26.7428 19.7766 26.7428 20.0356 26.7428 20.2944C25.2052 20.3267 23.6692 20.2944 22.1347 20.1973C22.03 20.1003 21.9252 20.0032 21.8205 19.9061C21.7179 20.1572 21.6829 20.4162 21.7158 20.6828C22.6959 20.6506 23.6732 20.683 24.6482 20.7799C24.8937 20.8612 25.1032 20.9906 25.2766 21.1682C24.2348 21.9712 23.048 22.23 21.7158 21.945C21.3561 21.3533 20.9372 21.3209 20.459 21.8479C20.316 21.5224 20.0365 21.3929 19.6212 21.4595C19.9938 21.251 20.343 20.9921 20.6685 20.6828C20.9054 20.3772 20.9404 20.0535 20.7732 19.7119C20.1723 20.1682 19.5091 20.4917 18.7833 20.6828C18.8709 20.5426 19.0104 20.4455 19.2023 20.3915C18.6021 20.356 18.0437 20.2589 17.5266 20.1003C19.4565 20.0907 20.2594 19.1847 19.9354 17.3818C19.7299 15.2425 18.8573 13.3978 17.3171 11.8477C16.5333 11.2255 15.6255 10.9342 14.5941 10.9739C14.578 10.3896 14.8572 9.96878 15.432 9.71169C14.9745 9.32022 14.5556 8.89944 14.1752 8.44952C13.994 8.23923 13.7845 8.207 13.5468 8.35243C12.6891 8.79109 11.921 9.34139 11.2427 10.003C9.29589 12.1884 7.89948 14.6479 7.05351 17.3818C6.85774 16.5417 6.89266 15.7002 7.15824 14.8574C8.44114 12.0154 10.3612 9.58819 12.9184 7.57572C14.0064 6.71551 15.2631 6.23006 16.6887 6.11938C16.7553 4.02244 17.8026 2.50128 19.8306 1.55617C23.2019 1.11242 25.6455 2.30984 27.1618 5.14848Z" fill="#FBF8F3"/>
<path fill-rule="evenodd" clip-rule="evenodd" d="M32.6078 17.5759C33.3195 17.5138 34.0179 17.5785 34.7024 17.7701C34.3532 17.8348 34.0042 17.8996 33.6551 17.9643C33.2068 17.9534 32.8579 17.8239 32.6078 17.5759Z" fill="#CE9560"/>
<path fill-rule="evenodd" clip-rule="evenodd" d="M20.459 15.6341C21.7108 15.9159 21.8155 16.4338 20.7732 17.1876C20.511 16.6994 20.4062 16.1817 20.459 15.6341Z" fill="#CE9560"/>
<path fill-rule="evenodd" clip-rule="evenodd" d="M15.432 6.70191C15.7616 6.78677 16.0061 6.98095 16.1651 7.28445C16.5199 8.17534 16.9736 9.01672 17.5266 9.80878C17.4568 9.87344 17.3869 9.93829 17.3171 10.003C16.0545 9.5779 15.2864 8.76875 15.013 7.57572C15.0673 7.22872 15.2068 6.93745 15.432 6.70191Z" fill="#CE9560"/>
<path fill-rule="evenodd" clip-rule="evenodd" d="M28.8375 27.6732C29.3192 28.5447 29.8079 29.4509 30.3037 30.3917C31.3022 31.049 32.4195 31.3079 33.6551 31.1684C35.1554 31.2949 36.3075 30.7772 37.1112 29.615C37.2153 29.1012 37.2503 28.5833 37.2159 28.0616C38.622 28.0822 39.7741 28.6 40.672 29.615C40.8308 30.0556 40.7958 30.4764 40.5673 30.8772C39.3005 31.6578 37.904 32.111 36.3781 32.2364C33.0504 32.6316 29.8387 32.2432 26.7429 31.0714C26.0441 30.5853 25.8346 29.9704 26.1145 29.2267C27.0074 28.6527 27.915 28.135 28.8375 27.6732Z" fill="#CE9560"/>
<path fill-rule="evenodd" clip-rule="evenodd" d="M26.9523 32.3335C26.9649 32.2281 27.0346 32.1634 27.1618 32.1393C27.8159 32.3914 28.4443 32.6827 29.0469 33.0131C28.2996 32.9599 27.6014 32.7335 26.9523 32.3335Z" fill="#CE9560"/>
<path fill-rule="evenodd" clip-rule="evenodd" d="M30.0942 33.6928C32.0123 33.4679 33.9674 33.4357 35.9591 33.5957C34.0183 33.9472 32.0632 33.9794 30.0942 33.6928Z" fill="#CE9560"/>
<path d="M79.0762 15.7246H82.1621C82.1426 16.7923 81.931 17.6973 81.5273 18.4395C81.1237 19.1816 80.5508 19.7448 79.8086 20.1289C79.0664 20.5065 78.1875 20.6953 77.1719 20.6953C76.3646 20.6953 75.6484 20.5586 75.0234 20.2852C74.3984 20.0052 73.8678 19.6016 73.4316 19.0742C73.002 18.5469 72.6764 17.8991 72.4551 17.1309C72.2402 16.3626 72.1328 15.4837 72.1328 14.4941V12.2871C72.1328 11.304 72.25 10.4251 72.4844 9.65039C72.7188 8.87565 73.0508 8.22461 73.4805 7.69727C73.9167 7.16341 74.4473 6.75977 75.0723 6.48633C75.6973 6.21289 76.3971 6.07617 77.1719 6.07617C78.2331 6.07617 79.125 6.27474 79.8477 6.67188C80.5703 7.06901 81.127 7.64518 81.5176 8.40039C81.9082 9.1556 82.1296 10.0703 82.1816 11.1445H79.0859C79.0924 10.4935 79.0339 9.98568 78.9102 9.62109C78.793 9.25 78.5944 8.98958 78.3145 8.83984C78.0345 8.68359 77.6536 8.60547 77.1719 8.60547C76.8268 8.60547 76.5306 8.67057 76.2832 8.80078C76.0358 8.92448 75.8372 9.12956 75.6875 9.41602C75.5378 9.70247 75.4271 10.0801 75.3555 10.5488C75.2839 11.0176 75.248 11.5905 75.248 12.2676V14.4941C75.248 15.1712 75.2773 15.7441 75.3359 16.2129C75.3945 16.6751 75.4954 17.0527 75.6387 17.3457C75.7819 17.6322 75.9772 17.8405 76.2246 17.9707C76.472 18.1009 76.7878 18.166 77.1719 18.166C77.6016 18.166 77.9564 18.1009 78.2363 17.9707C78.5163 17.834 78.7246 17.5898 78.8613 17.2383C79.0046 16.8867 79.0762 16.3822 79.0762 15.7246Z" fill="#B47538"/>
<path d="M86.6543 12.4238V20.5H83.6855V9.93359H86.4688L86.6543 12.4238ZM89.125 9.85547L89.0957 12.7461C88.972 12.7266 88.8158 12.7103 88.627 12.6973C88.4382 12.6777 88.2786 12.668 88.1484 12.668C87.849 12.668 87.5951 12.7135 87.3867 12.8047C87.1784 12.8958 87.0059 13.0326 86.8691 13.2148C86.7324 13.3906 86.6315 13.612 86.5664 13.8789C86.5013 14.1458 86.4688 14.4518 86.4688 14.7969L85.9414 14.5039C85.9414 13.8008 85.9935 13.1595 86.0977 12.5801C86.2083 12.0007 86.3678 11.4993 86.5762 11.0762C86.791 10.653 87.0482 10.3242 87.3477 10.0898C87.6471 9.85547 87.9824 9.73828 88.3535 9.73828C88.4837 9.73828 88.6204 9.74805 88.7637 9.76758C88.9134 9.78711 89.0339 9.81641 89.125 9.85547Z" fill="#B47538"/>
<path d="M94.6133 20.6953C93.8776 20.6953 93.2233 20.5879 92.6504 20.373C92.0775 20.1582 91.5957 19.8457 91.2051 19.4355C90.8145 19.0189 90.5182 18.5143 90.3164 17.9219C90.1146 17.3229 90.0137 16.6426 90.0137 15.8809V14.8848C90.0137 14.0319 90.1048 13.2865 90.2871 12.6484C90.4759 12.0039 90.7493 11.4668 91.1074 11.0371C91.4655 10.6074 91.9147 10.2852 92.4551 10.0703C92.9954 9.84896 93.6172 9.73828 94.3203 9.73828C94.9779 9.73828 95.5605 9.84245 96.0684 10.0508C96.5762 10.2591 97.0026 10.5749 97.3477 10.998C97.6927 11.4147 97.9531 11.9421 98.1289 12.5801C98.3112 13.2116 98.4023 13.9505 98.4023 14.7969V16.1934H91.1953V14.1914H95.4922V13.8984C95.4922 13.4688 95.4499 13.127 95.3652 12.873C95.2806 12.6191 95.1504 12.4368 94.9746 12.3262C94.7988 12.209 94.5742 12.1504 94.3008 12.1504C94.0273 12.1504 93.8027 12.2025 93.627 12.3066C93.4577 12.4043 93.3275 12.5605 93.2363 12.7754C93.1452 12.9902 93.0801 13.2734 93.041 13.625C93.0085 13.9766 92.9922 14.3965 92.9922 14.8848V15.8809C92.9922 16.3561 93.0312 16.75 93.1094 17.0625C93.1875 17.3685 93.3047 17.6126 93.4609 17.7949C93.6172 17.9707 93.806 18.0977 94.0273 18.1758C94.2552 18.2474 94.5189 18.2832 94.8184 18.2832C95.2546 18.2832 95.6615 18.2083 96.0391 18.0586C96.4232 17.9023 96.7487 17.6745 97.0156 17.375L98.2168 19.2012C98.028 19.4355 97.7643 19.6699 97.4258 19.9043C97.0938 20.1387 96.6901 20.3307 96.2148 20.4805C95.7461 20.6237 95.2122 20.6953 94.6133 20.6953Z" fill="#B47538"/>
<path d="M104.408 17.9512V13.1953C104.408 12.8828 104.379 12.6419 104.32 12.4727C104.262 12.2969 104.171 12.1699 104.047 12.0918C103.923 12.0137 103.76 11.9746 103.559 11.9746C103.363 11.9746 103.201 12.0202 103.07 12.1113C102.94 12.196 102.846 12.3262 102.787 12.502C102.735 12.6712 102.709 12.8861 102.709 13.1465H99.7305C99.7305 12.6712 99.8216 12.2285 100.004 11.8184C100.186 11.4017 100.45 11.0371 100.795 10.7246C101.14 10.4121 101.553 10.1712 102.035 10.002C102.523 9.82617 103.07 9.73828 103.676 9.73828C104.385 9.73828 105.02 9.85547 105.58 10.0898C106.14 10.3242 106.583 10.6986 106.908 11.2129C107.234 11.7207 107.396 12.3913 107.396 13.2246V17.8828C107.396 18.5273 107.429 19.0319 107.494 19.3965C107.566 19.7546 107.663 20.0671 107.787 20.334V20.5H104.809C104.672 20.1875 104.571 19.8034 104.506 19.3477C104.441 18.8919 104.408 18.4264 104.408 17.9512ZM104.76 14.0449L104.77 15.7441H103.852C103.617 15.7441 103.415 15.7897 103.246 15.8809C103.083 15.972 102.947 16.0957 102.836 16.252C102.725 16.4017 102.644 16.5742 102.592 16.7695C102.54 16.9648 102.514 17.1699 102.514 17.3848C102.514 17.6517 102.546 17.8633 102.611 18.0195C102.683 18.1693 102.777 18.2767 102.895 18.3418C103.012 18.4069 103.148 18.4395 103.305 18.4395C103.578 18.4395 103.809 18.3841 103.998 18.2734C104.193 18.1562 104.337 18.0163 104.428 17.8535C104.519 17.6908 104.545 17.5475 104.506 17.4238L105.004 18.5957C104.906 18.8366 104.796 19.0807 104.672 19.3281C104.555 19.569 104.405 19.7936 104.223 20.002C104.047 20.2103 103.829 20.3763 103.568 20.5C103.308 20.6302 102.989 20.6953 102.611 20.6953C102.051 20.6953 101.537 20.5749 101.068 20.334C100.606 20.0931 100.235 19.7383 99.9551 19.2695C99.6816 18.8008 99.5449 18.2311 99.5449 17.5605C99.5449 17.0462 99.6263 16.5742 99.7891 16.1445C99.9518 15.7148 100.202 15.3438 100.541 15.0312C100.88 14.7188 101.319 14.4779 101.859 14.3086C102.406 14.1328 103.061 14.0449 103.822 14.0449H104.76Z" fill="#B47538"/>
<path d="M114.047 9.93359V12.1113H108.549V9.93359H114.047ZM109.682 7.31641H112.65V17.1602C112.65 17.4466 112.673 17.668 112.719 17.8242C112.771 17.9805 112.859 18.0911 112.982 18.1562C113.106 18.2148 113.272 18.2441 113.48 18.2441C113.63 18.2441 113.757 18.2376 113.861 18.2246C113.972 18.2116 114.063 18.1953 114.135 18.1758L114.115 20.4219C113.887 20.5065 113.643 20.5716 113.383 20.6172C113.129 20.6693 112.842 20.6953 112.523 20.6953C111.931 20.6953 111.423 20.5879 111 20.373C110.583 20.1582 110.258 19.8164 110.023 19.3477C109.796 18.8789 109.682 18.2669 109.682 17.5117V7.31641Z" fill="#B47538"/>
<path d="M118.549 9.93359V20.5H115.57V9.93359H118.549ZM115.434 7.19922C115.434 6.75651 115.58 6.39193 115.873 6.10547C116.173 5.8125 116.566 5.66602 117.055 5.66602C117.543 5.66602 117.934 5.8125 118.227 6.10547C118.52 6.39193 118.666 6.75651 118.666 7.19922C118.666 7.64844 118.52 8.01628 118.227 8.30273C117.934 8.58919 117.543 8.73242 117.055 8.73242C116.566 8.73242 116.173 8.58919 115.873 8.30273C115.58 8.01628 115.434 7.64844 115.434 7.19922Z" fill="#B47538"/>
<path d="M120.258 15.6367V14.8066C120.258 13.9733 120.359 13.2409 120.561 12.6094C120.769 11.9779 121.062 11.4505 121.439 11.0273C121.817 10.6042 122.27 10.2852 122.797 10.0703C123.331 9.84896 123.923 9.73828 124.574 9.73828C125.238 9.73828 125.834 9.84896 126.361 10.0703C126.895 10.2852 127.351 10.6042 127.729 11.0273C128.106 11.4505 128.396 11.9779 128.598 12.6094C128.806 13.2409 128.91 13.9733 128.91 14.8066V15.6367C128.91 16.4635 128.806 17.1927 128.598 17.8242C128.396 18.4557 128.106 18.9863 127.729 19.416C127.351 19.8392 126.895 20.1582 126.361 20.373C125.834 20.5879 125.245 20.6953 124.594 20.6953C123.936 20.6953 123.34 20.5879 122.807 20.373C122.279 20.1582 121.824 19.8392 121.439 19.416C121.062 18.9863 120.769 18.4557 120.561 17.8242C120.359 17.1927 120.258 16.4635 120.258 15.6367ZM123.236 14.8066V15.6367C123.236 16.1055 123.266 16.5091 123.324 16.8477C123.389 17.1862 123.48 17.4629 123.598 17.6777C123.715 17.8926 123.855 18.0488 124.018 18.1465C124.187 18.2441 124.379 18.293 124.594 18.293C124.841 18.293 125.049 18.2441 125.219 18.1465C125.395 18.0488 125.535 17.8926 125.639 17.6777C125.743 17.4629 125.818 17.1862 125.863 16.8477C125.915 16.5091 125.941 16.1055 125.941 15.6367V14.8066C125.941 14.3444 125.909 13.9473 125.844 13.6152C125.785 13.2767 125.697 13 125.58 12.7852C125.469 12.5703 125.326 12.4108 125.15 12.3066C124.981 12.2025 124.789 12.1504 124.574 12.1504C124.366 12.1504 124.177 12.2025 124.008 12.3066C123.845 12.4108 123.705 12.5703 123.588 12.7852C123.477 13 123.389 13.2767 123.324 13.6152C123.266 13.9473 123.236 14.3444 123.236 14.8066Z" fill="#B47538"/>
<path d="M133.402 12.1895V20.5H130.424V9.93359H133.217L133.402 12.1895ZM133.012 14.8555L132.289 14.875C132.276 14.0742 132.348 13.3581 132.504 12.7266C132.667 12.0951 132.901 11.5579 133.207 11.1152C133.513 10.666 133.881 10.3242 134.311 10.0898C134.74 9.85547 135.219 9.73828 135.746 9.73828C136.15 9.73828 136.521 9.8099 136.859 9.95312C137.204 10.0964 137.501 10.3275 137.748 10.6465C137.995 10.959 138.188 11.3757 138.324 11.8965C138.461 12.4173 138.529 13.0586 138.529 13.8203V20.5H135.551V13.8008C135.551 13.3646 135.508 13.0293 135.424 12.7949C135.339 12.554 135.212 12.388 135.043 12.2969C134.88 12.1992 134.669 12.1504 134.408 12.1504C134.167 12.1504 133.956 12.2188 133.773 12.3555C133.598 12.4922 133.451 12.6842 133.334 12.9316C133.217 13.1725 133.132 13.459 133.08 13.791C133.035 14.1165 133.012 14.4714 133.012 14.8555Z" fill="#B47538"/>
<path d="M150.58 6.28125V20.5H147.543L143.52 11.6523V20.5H140.492V6.28125H143.529L147.562 15.1777V6.28125H150.58Z" fill="#B47538"/>
<path d="M156.957 20.6953C156.221 20.6953 155.567 20.5879 154.994 20.373C154.421 20.1582 153.939 19.8457 153.549 19.4355C153.158 19.0189 152.862 18.5143 152.66 17.9219C152.458 17.3229 152.357 16.6426 152.357 15.8809V14.8848C152.357 14.0319 152.449 13.2865 152.631 12.6484C152.82 12.0039 153.093 11.4668 153.451 11.0371C153.809 10.6074 154.258 10.2852 154.799 10.0703C155.339 9.84896 155.961 9.73828 156.664 9.73828C157.322 9.73828 157.904 9.84245 158.412 10.0508C158.92 10.2591 159.346 10.5749 159.691 10.998C160.036 11.4147 160.297 11.9421 160.473 12.5801C160.655 13.2116 160.746 13.9505 160.746 14.7969V16.1934H153.539V14.1914H157.836V13.8984C157.836 13.4688 157.794 13.127 157.709 12.873C157.624 12.6191 157.494 12.4368 157.318 12.3262C157.143 12.209 156.918 12.1504 156.645 12.1504C156.371 12.1504 156.146 12.2025 155.971 12.3066C155.801 12.4043 155.671 12.5605 155.58 12.7754C155.489 12.9902 155.424 13.2734 155.385 13.625C155.352 13.9766 155.336 14.3965 155.336 14.8848V15.8809C155.336 16.3561 155.375 16.75 155.453 17.0625C155.531 17.3685 155.648 17.6126 155.805 17.7949C155.961 17.9707 156.15 18.0977 156.371 18.1758C156.599 18.2474 156.863 18.2832 157.162 18.2832C157.598 18.2832 158.005 18.2083 158.383 18.0586C158.767 17.9023 159.092 17.6745 159.359 17.375L160.561 19.2012C160.372 19.4355 160.108 19.6699 159.77 19.9043C159.438 20.1387 159.034 20.3307 158.559 20.4805C158.09 20.6237 157.556 20.6953 156.957 20.6953Z" fill="#B47538"/>
<path d="M165.189 11.9648V24.5625H162.23V9.93359H164.984L165.189 11.9648ZM170.57 14.7871V15.6172C170.57 16.444 170.499 17.1732 170.355 17.8047C170.212 18.4362 169.997 18.9701 169.711 19.4062C169.424 19.8359 169.066 20.1582 168.637 20.373C168.207 20.5879 167.709 20.6953 167.143 20.6953C166.622 20.6953 166.179 20.5651 165.814 20.3047C165.45 20.0443 165.144 19.6862 164.896 19.2305C164.656 18.7682 164.46 18.2376 164.311 17.6387C164.167 17.0332 164.053 16.3919 163.969 15.7148V14.8164C164.053 14.0938 164.164 13.4232 164.301 12.8047C164.444 12.1862 164.639 11.6491 164.887 11.1934C165.134 10.7311 165.44 10.373 165.805 10.1191C166.169 9.86523 166.612 9.73828 167.133 9.73828C167.706 9.73828 168.207 9.83919 168.637 10.041C169.066 10.2428 169.424 10.5521 169.711 10.9688C169.997 11.3789 170.212 11.8997 170.355 12.5312C170.499 13.1628 170.57 13.9147 170.57 14.7871ZM167.602 15.6172V14.7871C167.602 14.2988 167.579 13.8854 167.533 13.5469C167.494 13.2083 167.423 12.9382 167.318 12.7363C167.221 12.528 167.09 12.3783 166.928 12.2871C166.765 12.196 166.56 12.1504 166.312 12.1504C166.059 12.1504 165.84 12.2025 165.658 12.3066C165.476 12.4043 165.329 12.5508 165.219 12.7461C165.108 12.9414 165.027 13.1855 164.975 13.4785C164.929 13.765 164.91 14.1003 164.916 14.4844V16.0566C164.91 16.4928 164.945 16.8802 165.023 17.2188C165.108 17.5508 165.255 17.8145 165.463 18.0098C165.671 18.1986 165.961 18.293 166.332 18.293C166.579 18.293 166.785 18.2441 166.947 18.1465C167.117 18.0423 167.247 17.8828 167.338 17.668C167.436 17.4466 167.504 17.1667 167.543 16.8281C167.582 16.4896 167.602 16.0859 167.602 15.6172Z" fill="#B47538"/>
<path d="M176.654 17.9512V13.1953C176.654 12.8828 176.625 12.6419 176.566 12.4727C176.508 12.2969 176.417 12.1699 176.293 12.0918C176.169 12.0137 176.007 11.9746 175.805 11.9746C175.609 11.9746 175.447 12.0202 175.316 12.1113C175.186 12.196 175.092 12.3262 175.033 12.502C174.981 12.6712 174.955 12.8861 174.955 13.1465H171.977C171.977 12.6712 172.068 12.2285 172.25 11.8184C172.432 11.4017 172.696 11.0371 173.041 10.7246C173.386 10.4121 173.799 10.1712 174.281 10.002C174.77 9.82617 175.316 9.73828 175.922 9.73828C176.632 9.73828 177.266 9.85547 177.826 10.0898C178.386 10.3242 178.829 10.6986 179.154 11.2129C179.48 11.7207 179.643 12.3913 179.643 13.2246V17.8828C179.643 18.5273 179.675 19.0319 179.74 19.3965C179.812 19.7546 179.91 20.0671 180.033 20.334V20.5H177.055C176.918 20.1875 176.817 19.8034 176.752 19.3477C176.687 18.8919 176.654 18.4264 176.654 17.9512ZM177.006 14.0449L177.016 15.7441H176.098C175.863 15.7441 175.661 15.7897 175.492 15.8809C175.329 15.972 175.193 16.0957 175.082 16.252C174.971 16.4017 174.89 16.5742 174.838 16.7695C174.786 16.9648 174.76 17.1699 174.76 17.3848C174.76 17.6517 174.792 17.8633 174.857 18.0195C174.929 18.1693 175.023 18.2767 175.141 18.3418C175.258 18.4069 175.395 18.4395 175.551 18.4395C175.824 18.4395 176.055 18.3841 176.244 18.2734C176.439 18.1562 176.583 18.0163 176.674 17.8535C176.765 17.6908 176.791 17.5475 176.752 17.4238L177.25 18.5957C177.152 18.8366 177.042 19.0807 176.918 19.3281C176.801 19.569 176.651 19.7936 176.469 20.002C176.293 20.2103 176.075 20.3763 175.814 20.5C175.554 20.6302 175.235 20.6953 174.857 20.6953C174.298 20.6953 173.783 20.5749 173.314 20.334C172.852 20.0931 172.481 19.7383 172.201 19.2695C171.928 18.8008 171.791 18.2311 171.791 17.5605C171.791 17.0462 171.872 16.5742 172.035 16.1445C172.198 15.7148 172.449 15.3438 172.787 15.0312C173.126 14.7188 173.565 14.4779 174.105 14.3086C174.652 14.1328 175.307 14.0449 176.068 14.0449H177.006Z" fill="#B47538"/>
<path d="M184.604 5.5V20.5H181.625V5.5H184.604Z" fill="#B47538"/>
<path d="M77.8281 30.6914H78.5469C78.5286 31.082 78.4492 31.4193 78.3086 31.7031C78.1706 31.9844 77.9688 32.2005 77.7031 32.3516C77.4401 32.5026 77.1107 32.5781 76.7148 32.5781C76.431 32.5781 76.1745 32.5221 75.9453 32.4102C75.7161 32.2982 75.5195 32.138 75.3555 31.9297C75.194 31.7188 75.0703 31.4661 74.9844 31.1719C74.8984 30.8776 74.8555 30.5469 74.8555 30.1797V29.1289C74.8555 28.7643 74.8984 28.4349 74.9844 28.1406C75.0729 27.8464 75.1992 27.5951 75.3633 27.3867C75.5299 27.1758 75.7318 27.0143 75.9688 26.9023C76.2083 26.7904 76.4792 26.7344 76.7812 26.7344C77.151 26.7344 77.4635 26.8086 77.7188 26.957C77.9766 27.1029 78.1745 27.3177 78.3125 27.6016C78.4531 27.8828 78.5312 28.2279 78.5469 28.6367H77.8281C77.8099 28.3372 77.763 28.0938 77.6875 27.9062C77.612 27.7161 77.5 27.5768 77.3516 27.4883C77.2057 27.3971 77.0156 27.3516 76.7812 27.3516C76.5729 27.3516 76.3919 27.3932 76.2383 27.4766C76.0872 27.5599 75.9622 27.6797 75.8633 27.8359C75.7669 27.9896 75.694 28.1758 75.6445 28.3945C75.5977 28.6107 75.5742 28.8529 75.5742 29.1211V30.1797C75.5742 30.4297 75.5938 30.6628 75.6328 30.8789C75.6745 31.0951 75.7396 31.2852 75.8281 31.4492C75.9193 31.6107 76.0378 31.737 76.1836 31.8281C76.3294 31.9193 76.5065 31.9648 76.7148 31.9648C76.9779 31.9648 77.1862 31.9219 77.3398 31.8359C77.4935 31.75 77.6068 31.6133 77.6797 31.4258C77.7552 31.2383 77.8047 30.9935 77.8281 30.6914Z" fill="#494748"/>
<path d="M79.9212 30.5898V30.1875C79.9212 29.8594 79.9629 29.5716 80.0462 29.3242C80.1296 29.0742 80.2455 28.8659 80.3939 28.6992C80.5423 28.5326 80.7155 28.4076 80.9134 28.3242C81.1114 28.2383 81.3236 28.1953 81.5502 28.1953C81.7819 28.1953 81.9968 28.2383 82.1947 28.3242C82.3926 28.4076 82.5658 28.5326 82.7142 28.6992C82.8653 28.8659 82.9824 29.0742 83.0658 29.3242C83.1491 29.5716 83.1908 29.8594 83.1908 30.1875V30.5898C83.1908 30.918 83.1491 31.207 83.0658 31.457C82.9824 31.7044 82.8666 31.9115 82.7181 32.0781C82.5697 32.2448 82.3965 32.3698 82.1986 32.4531C82.0007 32.5365 81.7871 32.5781 81.558 32.5781C81.3288 32.5781 81.1153 32.5365 80.9173 32.4531C80.7194 32.3698 80.5449 32.2448 80.3939 32.0781C80.2455 31.9115 80.1296 31.7044 80.0462 31.457C79.9629 31.207 79.9212 30.918 79.9212 30.5898ZM80.6127 30.1875V30.5898C80.6127 30.8216 80.6361 31.0247 80.683 31.1992C80.7298 31.3737 80.7962 31.5195 80.8822 31.6367C80.9681 31.7539 81.0684 31.8424 81.183 31.9023C81.2976 31.9596 81.4226 31.9883 81.558 31.9883C81.7142 31.9883 81.8509 31.9596 81.9681 31.9023C82.0879 31.8424 82.1869 31.7539 82.265 31.6367C82.3431 31.5195 82.4017 31.3737 82.4408 31.1992C82.4798 31.0247 82.4994 30.8216 82.4994 30.5898V30.1875C82.4994 29.9557 82.4759 29.7539 82.4291 29.582C82.3822 29.4076 82.3158 29.2617 82.2298 29.1445C82.1439 29.0247 82.0423 28.9362 81.9252 28.8789C81.8106 28.819 81.6856 28.7891 81.5502 28.7891C81.4173 28.7891 81.2936 28.819 81.1791 28.8789C81.0645 28.9362 80.9642 29.0247 80.8783 29.1445C80.7949 29.2617 80.7298 29.4076 80.683 29.582C80.6361 29.7539 80.6127 29.9557 80.6127 30.1875Z" fill="#494748"/>
<path d="M85.4636 26.5V32.5H84.7761V26.5H85.4636Z" fill="#494748"/>
<path d="M87.9395 26.5V32.5H87.252V26.5H87.9395Z" fill="#494748"/>
<path d="M91.185 32.5781C90.9324 32.5781 90.7045 32.5404 90.5014 32.4648C90.2983 32.3893 90.1251 32.2747 89.9819 32.1211C89.8386 31.9648 89.7293 31.7682 89.6537 31.5312C89.5782 31.2943 89.5405 31.0143 89.5405 30.6914V30.2148C89.5405 29.8424 89.5834 29.5273 89.6694 29.2695C89.7579 29.0117 89.8764 28.8047 90.0248 28.6484C90.1733 28.4896 90.3412 28.375 90.5287 28.3047C90.7162 28.2318 90.909 28.1953 91.1069 28.1953C91.3725 28.1953 91.5991 28.2383 91.7866 28.3242C91.9741 28.4102 92.1264 28.5378 92.2436 28.707C92.3608 28.8763 92.4467 29.0846 92.5014 29.332C92.5587 29.5794 92.5873 29.8646 92.5873 30.1875V30.5898H89.9467V30H91.8959V29.9023C91.8855 29.6836 91.8556 29.4909 91.8061 29.3242C91.7592 29.1576 91.6811 29.0273 91.5717 28.9336C91.4623 28.8372 91.3074 28.7891 91.1069 28.7891C90.9793 28.7891 90.8608 28.8112 90.7514 28.8555C90.6446 28.8971 90.5522 28.9714 90.4741 29.0781C90.3985 29.1823 90.3386 29.3268 90.2944 29.5117C90.2527 29.6966 90.2319 29.931 90.2319 30.2148V30.6914C90.2319 30.918 90.2527 31.1133 90.2944 31.2773C90.3386 31.4388 90.4024 31.5729 90.4858 31.6797C90.5717 31.7839 90.6759 31.862 90.7983 31.9141C90.9233 31.9635 91.0652 31.9883 91.2241 31.9883C91.4558 31.9883 91.6472 31.944 91.7983 31.8555C91.9493 31.7643 92.0808 31.6484 92.1928 31.5078L92.5561 31.9414C92.4806 32.0482 92.3816 32.151 92.2592 32.25C92.1394 32.3464 91.991 32.4258 91.8139 32.4883C91.6394 32.5482 91.4298 32.5781 91.185 32.5781Z" fill="#494748"/>
<path d="M95.5281 31.9883C95.6661 31.9883 95.7911 31.9609 95.9031 31.9062C96.0177 31.849 96.1115 31.7604 96.1844 31.6406C96.2573 31.5182 96.299 31.3594 96.3094 31.1641H96.9578C96.9474 31.4453 96.8758 31.6927 96.743 31.9062C96.6128 32.1172 96.4409 32.2826 96.2273 32.4023C96.0164 32.5195 95.7833 32.5781 95.5281 32.5781C95.2547 32.5781 95.0164 32.5339 94.8133 32.4453C94.6128 32.3568 94.4461 32.2292 94.3133 32.0625C94.1831 31.8932 94.0854 31.6888 94.0203 31.4492C93.9552 31.207 93.9227 30.9323 93.9227 30.625V30.1484C93.9227 29.8411 93.9552 29.5677 94.0203 29.3281C94.0854 29.0859 94.1831 28.8815 94.3133 28.7148C94.4461 28.5456 94.6128 28.4167 94.8133 28.3281C95.0164 28.2396 95.2547 28.1953 95.5281 28.1953C95.8146 28.1953 96.062 28.2565 96.2703 28.3789C96.4813 28.4987 96.6453 28.6732 96.7625 28.9023C96.8823 29.1289 96.9474 29.4036 96.9578 29.7266H96.3094C96.299 29.5182 96.2612 29.3451 96.1961 29.207C96.131 29.0664 96.0424 28.9622 95.9305 28.8945C95.8185 28.8242 95.6844 28.7891 95.5281 28.7891C95.3458 28.7891 95.1948 28.8216 95.075 28.8867C94.9578 28.9492 94.8654 29.0404 94.7977 29.1602C94.7299 29.2799 94.6818 29.4232 94.6531 29.5898C94.6271 29.7565 94.6141 29.9427 94.6141 30.1484V30.625C94.6141 30.8307 94.6271 31.0182 94.6531 31.1875C94.6818 31.3542 94.7286 31.4974 94.7938 31.6172C94.8615 31.737 94.9552 31.8294 95.075 31.8945C95.1948 31.957 95.3458 31.9883 95.5281 31.9883Z" fill="#494748"/>
<path d="M99.9416 28.2734V28.8281H97.9689V28.2734H99.9416ZM98.6134 27.2461H99.3048V31.4531C99.3048 31.5964 99.3218 31.7044 99.3556 31.7773C99.3921 31.8503 99.4377 31.8984 99.4923 31.9219C99.547 31.9453 99.6056 31.957 99.6681 31.957C99.715 31.957 99.7671 31.9518 99.8244 31.9414C99.8817 31.9284 99.9207 31.918 99.9416 31.9102L99.9377 32.5C99.8908 32.5182 99.8283 32.5352 99.7502 32.5508C99.672 32.569 99.5731 32.5781 99.4533 32.5781C99.3048 32.5781 99.1668 32.543 99.0392 32.4727C98.9116 32.4023 98.8088 32.2852 98.7306 32.1211C98.6525 31.9544 98.6134 31.7305 98.6134 31.4492V27.2461Z" fill="#494748"/>
<path d="M102.148 28.2734V32.5H101.46V28.2734H102.148ZM101.421 27.1523C101.421 27.0352 101.454 26.9362 101.519 26.8555C101.584 26.7747 101.682 26.7344 101.812 26.7344C101.942 26.7344 102.04 26.7747 102.105 26.8555C102.173 26.9362 102.207 27.0352 102.207 27.1523C102.207 27.2643 102.173 27.3607 102.105 27.4414C102.04 27.5195 101.942 27.5586 101.812 27.5586C101.682 27.5586 101.584 27.5195 101.519 27.4414C101.454 27.3607 101.421 27.2643 101.421 27.1523Z" fill="#494748"/>
<path d="M103.737 30.5898V30.1875C103.737 29.8594 103.779 29.5716 103.862 29.3242C103.946 29.0742 104.061 28.8659 104.21 28.6992C104.358 28.5326 104.531 28.4076 104.729 28.3242C104.927 28.2383 105.14 28.1953 105.366 28.1953C105.598 28.1953 105.813 28.2383 106.011 28.3242C106.209 28.4076 106.382 28.5326 106.53 28.6992C106.681 28.8659 106.798 29.0742 106.882 29.3242C106.965 29.5716 107.007 29.8594 107.007 30.1875V30.5898C107.007 30.918 106.965 31.207 106.882 31.457C106.798 31.7044 106.682 31.9115 106.534 32.0781C106.386 32.2448 106.212 32.3698 106.015 32.4531C105.817 32.5365 105.603 32.5781 105.374 32.5781C105.145 32.5781 104.931 32.5365 104.733 32.4531C104.535 32.3698 104.361 32.2448 104.21 32.0781C104.061 31.9115 103.946 31.7044 103.862 31.457C103.779 31.207 103.737 30.918 103.737 30.5898ZM104.429 30.1875V30.5898C104.429 30.8216 104.452 31.0247 104.499 31.1992C104.546 31.3737 104.612 31.5195 104.698 31.6367C104.784 31.7539 104.884 31.8424 104.999 31.9023C105.113 31.9596 105.238 31.9883 105.374 31.9883C105.53 31.9883 105.667 31.9596 105.784 31.9023C105.904 31.8424 106.003 31.7539 106.081 31.6367C106.159 31.5195 106.218 31.3737 106.257 31.1992C106.296 31.0247 106.315 30.8216 106.315 30.5898V30.1875C106.315 29.9557 106.292 29.7539 106.245 29.582C106.198 29.4076 106.132 29.2617 106.046 29.1445C105.96 29.0247 105.858 28.9362 105.741 28.8789C105.627 28.819 105.502 28.7891 105.366 28.7891C105.233 28.7891 105.11 28.819 104.995 28.8789C104.88 28.9362 104.78 29.0247 104.694 29.1445C104.611 29.2617 104.546 29.4076 104.499 29.582C104.452 29.7539 104.429 29.9557 104.429 30.1875Z" fill="#494748"/>
<path d="M109.229 29.1758V32.5H108.537V28.2734H109.19L109.229 29.1758ZM109.061 30.2266L108.78 30.2148C108.777 29.9258 108.809 29.6589 108.877 29.4141C108.947 29.1667 109.046 28.9518 109.174 28.7695C109.304 28.5872 109.459 28.4466 109.639 28.3477C109.819 28.2461 110.018 28.1953 110.237 28.1953C110.408 28.1953 110.565 28.224 110.705 28.2812C110.846 28.3359 110.966 28.4245 111.065 28.5469C111.164 28.6693 111.239 28.8281 111.291 29.0234C111.346 29.2161 111.373 29.4518 111.373 29.7305V32.5H110.682V29.7227C110.682 29.5013 110.657 29.3242 110.608 29.1914C110.561 29.056 110.488 28.9583 110.389 28.8984C110.293 28.8359 110.17 28.8047 110.022 28.8047C109.886 28.8047 109.76 28.8424 109.643 28.918C109.526 28.9935 109.423 29.0977 109.334 29.2305C109.248 29.3633 109.181 29.5156 109.131 29.6875C109.084 29.8568 109.061 30.0365 109.061 30.2266Z" fill="#494748"/>
<path d="M115.384 30.5898V30.1875C115.384 29.8594 115.425 29.5716 115.509 29.3242C115.592 29.0742 115.708 28.8659 115.856 28.6992C116.005 28.5326 116.178 28.4076 116.376 28.3242C116.574 28.2383 116.786 28.1953 117.013 28.1953C117.244 28.1953 117.459 28.2383 117.657 28.3242C117.855 28.4076 118.028 28.5326 118.177 28.6992C118.328 28.8659 118.445 29.0742 118.528 29.3242C118.612 29.5716 118.653 29.8594 118.653 30.1875V30.5898C118.653 30.918 118.612 31.207 118.528 31.457C118.445 31.7044 118.329 31.9115 118.181 32.0781C118.032 32.2448 117.859 32.3698 117.661 32.4531C117.463 32.5365 117.25 32.5781 117.02 32.5781C116.791 32.5781 116.578 32.5365 116.38 32.4531C116.182 32.3698 116.007 32.2448 115.856 32.0781C115.708 31.9115 115.592 31.7044 115.509 31.457C115.425 31.207 115.384 30.918 115.384 30.5898ZM116.075 30.1875V30.5898C116.075 30.8216 116.099 31.0247 116.145 31.1992C116.192 31.3737 116.259 31.5195 116.345 31.6367C116.431 31.7539 116.531 31.8424 116.645 31.9023C116.76 31.9596 116.885 31.9883 117.02 31.9883C117.177 31.9883 117.313 31.9596 117.431 31.9023C117.55 31.8424 117.649 31.7539 117.728 31.6367C117.806 31.5195 117.864 31.3737 117.903 31.1992C117.942 31.0247 117.962 30.8216 117.962 30.5898V30.1875C117.962 29.9557 117.938 29.7539 117.892 29.582C117.845 29.4076 117.778 29.2617 117.692 29.1445C117.606 29.0247 117.505 28.9362 117.388 28.8789C117.273 28.819 117.148 28.7891 117.013 28.7891C116.88 28.7891 116.756 28.819 116.642 28.8789C116.527 28.9362 116.427 29.0247 116.341 29.1445C116.257 29.2617 116.192 29.4076 116.145 29.582C116.099 29.7539 116.075 29.9557 116.075 30.1875Z" fill="#494748"/>
<path d="M121.18 32.5H120.489V27.8281C120.489 27.5234 120.537 27.2669 120.633 27.0586C120.732 26.8477 120.871 26.6888 121.051 26.582C121.233 26.4727 121.45 26.418 121.7 26.418C121.77 26.418 121.84 26.4232 121.91 26.4336C121.983 26.444 122.052 26.4596 122.118 26.4805L122.086 27.0703C122.045 27.0573 121.994 27.0482 121.934 27.043C121.877 27.0378 121.822 27.0352 121.77 27.0352C121.645 27.0352 121.538 27.0664 121.45 27.1289C121.361 27.1888 121.293 27.2773 121.246 27.3945C121.202 27.5117 121.18 27.6562 121.18 27.8281V32.5ZM121.899 28.2734V28.8281H119.938V28.2734H121.899Z" fill="#494748"/>
<path d="M129.644 26.8125V32.5H128.921L126.644 28.1133V32.5H125.925V26.8125H126.644L128.933 31.2109V26.8125H129.644Z" fill="#494748"/>
<path d="M132.944 32.5781C132.691 32.5781 132.463 32.5404 132.26 32.4648C132.057 32.3893 131.884 32.2747 131.741 32.1211C131.597 31.9648 131.488 31.7682 131.412 31.5312C131.337 31.2943 131.299 31.0143 131.299 30.6914V30.2148C131.299 29.8424 131.342 29.5273 131.428 29.2695C131.517 29.0117 131.635 28.8047 131.784 28.6484C131.932 28.4896 132.1 28.375 132.287 28.3047C132.475 28.2318 132.668 28.1953 132.866 28.1953C133.131 28.1953 133.358 28.2383 133.545 28.3242C133.733 28.4102 133.885 28.5378 134.002 28.707C134.12 28.8763 134.205 29.0846 134.26 29.332C134.317 29.5794 134.346 29.8646 134.346 30.1875V30.5898H131.705V30H133.655V29.9023C133.644 29.6836 133.614 29.4909 133.565 29.3242C133.518 29.1576 133.44 29.0273 133.33 28.9336C133.221 28.8372 133.066 28.7891 132.866 28.7891C132.738 28.7891 132.62 28.8112 132.51 28.8555C132.403 28.8971 132.311 28.9714 132.233 29.0781C132.157 29.1823 132.097 29.3268 132.053 29.5117C132.011 29.6966 131.991 29.931 131.991 30.2148V30.6914C131.991 30.918 132.011 31.1133 132.053 31.2773C132.097 31.4388 132.161 31.5729 132.245 31.6797C132.33 31.7839 132.435 31.862 132.557 31.9141C132.682 31.9635 132.824 31.9883 132.983 31.9883C133.215 31.9883 133.406 31.944 133.557 31.8555C133.708 31.7643 133.84 31.6484 133.952 31.5078L134.315 31.9414C134.239 32.0482 134.14 32.151 134.018 32.25C133.898 32.3464 133.75 32.4258 133.573 32.4883C133.398 32.5482 133.189 32.5781 132.944 32.5781Z" fill="#494748"/>
<path d="M136.513 29.0859V34.125H135.822V28.2734H136.451L136.513 29.0859ZM138.877 30.1953V30.5898C138.877 30.9232 138.845 31.2148 138.783 31.4648C138.723 31.7122 138.633 31.9193 138.513 32.0859C138.396 32.25 138.252 32.3737 138.08 32.457C137.908 32.5378 137.711 32.5781 137.49 32.5781C137.269 32.5781 137.076 32.5365 136.912 32.4531C136.75 32.3672 136.614 32.2435 136.502 32.082C136.392 31.9206 136.305 31.7266 136.24 31.5C136.177 31.2708 136.135 31.0143 136.111 30.7305V30.1289C136.135 29.8294 136.177 29.5612 136.24 29.3242C136.302 29.0846 136.388 28.8815 136.498 28.7148C136.61 28.5456 136.747 28.4167 136.908 28.3281C137.072 28.2396 137.263 28.1953 137.482 28.1953C137.709 28.1953 137.908 28.2344 138.08 28.3125C138.254 28.3906 138.4 28.5117 138.517 28.6758C138.637 28.8372 138.727 29.0443 138.787 29.2969C138.847 29.5469 138.877 29.8464 138.877 30.1953ZM138.185 30.5898V30.1953C138.185 29.9609 138.167 29.7565 138.131 29.582C138.097 29.4076 138.042 29.263 137.967 29.1484C137.891 29.0339 137.796 28.9479 137.681 28.8906C137.567 28.8333 137.429 28.8047 137.267 28.8047C137.129 28.8047 137.007 28.8333 136.9 28.8906C136.796 28.9479 136.706 29.026 136.631 29.125C136.555 29.2214 136.493 29.332 136.443 29.457C136.394 29.5794 136.357 29.707 136.334 29.8398V31.0234C136.378 31.1901 136.437 31.3477 136.51 31.4961C136.582 31.6419 136.68 31.7604 136.802 31.8516C136.927 31.9427 137.085 31.9883 137.275 31.9883C137.434 31.9883 137.571 31.9596 137.685 31.9023C137.8 31.8451 137.894 31.7591 137.967 31.6445C138.042 31.5273 138.097 31.3815 138.131 31.207C138.167 31.0299 138.185 30.8242 138.185 30.5898Z" fill="#494748"/>
<path d="M142.478 31.7773V29.4844C142.478 29.3177 142.452 29.1836 142.4 29.082C142.35 28.9805 142.275 28.9062 142.173 28.8594C142.074 28.8125 141.949 28.7891 141.798 28.7891C141.652 28.7891 141.526 28.819 141.419 28.8789C141.315 28.9388 141.234 29.0182 141.177 29.1172C141.122 29.2161 141.095 29.3255 141.095 29.4453H140.403C140.403 29.2943 140.436 29.1445 140.501 28.9961C140.569 28.8477 140.665 28.7135 140.79 28.5938C140.915 28.4714 141.065 28.375 141.239 28.3047C141.416 28.2318 141.614 28.1953 141.833 28.1953C142.094 28.1953 142.324 28.2383 142.525 28.3242C142.725 28.4076 142.883 28.5443 142.997 28.7344C143.112 28.9245 143.169 29.1771 143.169 29.4922V31.5781C143.169 31.7188 143.179 31.8685 143.2 32.0273C143.224 32.1862 143.256 32.3229 143.298 32.4375V32.5H142.583C142.549 32.4167 142.523 32.306 142.505 32.168C142.487 32.0273 142.478 31.8971 142.478 31.7773ZM142.587 29.9375L142.595 30.4453H142.114C141.95 30.4453 141.801 30.4635 141.665 30.5C141.532 30.5365 141.418 30.5898 141.321 30.6602C141.225 30.7279 141.151 30.8125 141.099 30.9141C141.049 31.0156 141.025 31.1315 141.025 31.2617C141.025 31.431 141.048 31.5664 141.095 31.668C141.142 31.7669 141.212 31.8385 141.306 31.8828C141.4 31.9271 141.518 31.9492 141.661 31.9492C141.836 31.9492 141.989 31.9089 142.122 31.8281C142.255 31.7474 142.358 31.6497 142.431 31.5352C142.506 31.4206 142.541 31.3138 142.536 31.2148L142.689 31.5391C142.678 31.6406 142.644 31.7513 142.587 31.8711C142.532 31.9883 142.456 32.1016 142.357 32.2109C142.258 32.3177 142.14 32.4062 142.005 32.4766C141.872 32.5443 141.722 32.5781 141.556 32.5781C141.311 32.5781 141.096 32.5312 140.911 32.4375C140.729 32.3438 140.587 32.2057 140.485 32.0234C140.384 31.8411 140.333 31.6159 140.333 31.3477C140.333 31.1445 140.368 30.957 140.439 30.7852C140.509 30.6133 140.613 30.4648 140.751 30.3398C140.889 30.2122 141.062 30.1133 141.271 30.043C141.482 29.9727 141.725 29.9375 142.001 29.9375H142.587Z" fill="#494748"/>
<path d="M145.625 26.5V32.5H144.938V26.5H145.625Z" fill="#494748"/>
<path d="M148.101 28.2734V32.5H147.414V28.2734H148.101ZM147.375 27.1523C147.375 27.0352 147.407 26.9362 147.472 26.8555C147.538 26.7747 147.635 26.7344 147.765 26.7344C147.896 26.7344 147.993 26.7747 148.058 26.8555C148.126 26.9362 148.16 27.0352 148.16 27.1523C148.16 27.2643 148.126 27.3607 148.058 27.4414C147.993 27.5195 147.896 27.5586 147.765 27.5586C147.635 27.5586 147.538 27.5195 147.472 27.4414C147.407 27.3607 147.375 27.2643 147.375 27.1523Z" fill="#494748"/>
<path d="M154.217 30.2695H152.975V29.6562H154.217C154.452 29.6562 154.641 29.6094 154.784 29.5156C154.93 29.4219 155.035 29.2917 155.1 29.125C155.168 28.9583 155.202 28.7682 155.202 28.5547C155.202 28.3594 155.168 28.1758 155.1 28.0039C155.035 27.832 154.93 27.694 154.784 27.5898C154.641 27.4831 154.452 27.4297 154.217 27.4297H153.124V32.5H152.405V26.8125H154.217C154.585 26.8125 154.894 26.8867 155.147 27.0352C155.4 27.1836 155.591 27.3893 155.721 27.6523C155.854 27.9128 155.92 28.2109 155.92 28.5469C155.92 28.9115 155.854 29.2227 155.721 29.4805C155.591 29.7383 155.4 29.9349 155.147 30.0703C154.894 30.2031 154.585 30.2695 154.217 30.2695Z" fill="#494748"/>
<path d="M158.08 28.9375V32.5H157.389V28.2734H158.057L158.08 28.9375ZM159.131 28.25L159.135 28.9219C159.077 28.9089 159.025 28.901 158.978 28.8984C158.934 28.8932 158.882 28.8906 158.822 28.8906C158.692 28.8906 158.577 28.9167 158.478 28.9688C158.382 29.0208 158.299 29.0938 158.228 29.1875C158.158 29.2812 158.102 29.3932 158.06 29.5234C158.019 29.651 157.99 29.7917 157.975 29.9453L157.795 30.0625C157.795 29.8073 157.814 29.5677 157.853 29.3438C157.895 29.1198 157.959 28.9219 158.045 28.75C158.131 28.5755 158.24 28.4401 158.373 28.3438C158.508 28.2448 158.67 28.1953 158.857 28.1953C158.899 28.1953 158.95 28.2018 159.01 28.2148C159.072 28.2253 159.113 28.237 159.131 28.25Z" fill="#494748"/>
<path d="M160.243 30.5898V30.1875C160.243 29.8594 160.285 29.5716 160.368 29.3242C160.452 29.0742 160.568 28.8659 160.716 28.6992C160.865 28.5326 161.038 28.4076 161.236 28.3242C161.434 28.2383 161.646 28.1953 161.872 28.1953C162.104 28.1953 162.319 28.2383 162.517 28.3242C162.715 28.4076 162.888 28.5326 163.036 28.6992C163.187 28.8659 163.305 29.0742 163.388 29.3242C163.471 29.5716 163.513 29.8594 163.513 30.1875V30.5898C163.513 30.918 163.471 31.207 163.388 31.457C163.305 31.7044 163.189 31.9115 163.04 32.0781C162.892 32.2448 162.719 32.3698 162.521 32.4531C162.323 32.5365 162.109 32.5781 161.88 32.5781C161.651 32.5781 161.437 32.5365 161.24 32.4531C161.042 32.3698 160.867 32.2448 160.716 32.0781C160.568 31.9115 160.452 31.7044 160.368 31.457C160.285 31.207 160.243 30.918 160.243 30.5898ZM160.935 30.1875V30.5898C160.935 30.8216 160.958 31.0247 161.005 31.1992C161.052 31.3737 161.118 31.5195 161.204 31.6367C161.29 31.7539 161.391 31.8424 161.505 31.9023C161.62 31.9596 161.745 31.9883 161.88 31.9883C162.036 31.9883 162.173 31.9596 162.29 31.9023C162.41 31.8424 162.509 31.7539 162.587 31.6367C162.665 31.5195 162.724 31.3737 162.763 31.1992C162.802 31.0247 162.822 30.8216 162.822 30.5898V30.1875C162.822 29.9557 162.798 29.7539 162.751 29.582C162.704 29.4076 162.638 29.2617 162.552 29.1445C162.466 29.0247 162.365 28.9362 162.247 28.8789C162.133 28.819 162.008 28.7891 161.872 28.7891C161.74 28.7891 161.616 28.819 161.501 28.8789C161.387 28.9362 161.286 29.0247 161.2 29.1445C161.117 29.2617 161.052 29.4076 161.005 29.582C160.958 29.7539 160.935 29.9557 160.935 30.1875Z" fill="#494748"/>
<path d="M167.258 31.6797V26.5H167.946V32.5H167.317L167.258 31.6797ZM164.895 30.5898V30.1953C164.895 29.8464 164.929 29.5469 164.997 29.2969C165.064 29.0443 165.161 28.8372 165.286 28.6758C165.411 28.5117 165.561 28.3906 165.735 28.3125C165.909 28.2344 166.102 28.1953 166.313 28.1953C166.532 28.1953 166.719 28.2396 166.876 28.3281C167.034 28.4167 167.167 28.5456 167.274 28.7148C167.381 28.8815 167.464 29.0846 167.524 29.3242C167.587 29.5612 167.628 29.8294 167.649 30.1289V30.6562C167.626 30.9531 167.583 31.2201 167.52 31.457C167.46 31.694 167.377 31.8958 167.27 32.0625C167.163 32.2292 167.031 32.3568 166.872 32.4453C166.713 32.5339 166.524 32.5781 166.305 32.5781C166.097 32.5781 165.907 32.5378 165.735 32.457C165.563 32.3737 165.413 32.25 165.286 32.0859C165.161 31.9193 165.064 31.7122 164.997 31.4648C164.929 31.2148 164.895 30.9232 164.895 30.5898ZM165.587 30.1953V30.5898C165.587 30.8242 165.603 31.0286 165.637 31.2031C165.671 31.375 165.725 31.5182 165.798 31.6328C165.87 31.7448 165.963 31.8281 166.075 31.8828C166.189 31.9375 166.326 31.9648 166.485 31.9648C166.678 31.9648 166.835 31.918 166.958 31.8242C167.08 31.7305 167.178 31.6068 167.251 31.4531C167.326 31.2969 167.386 31.1289 167.43 30.9492V29.8398C167.404 29.707 167.367 29.5794 167.317 29.457C167.268 29.332 167.205 29.2214 167.13 29.125C167.057 29.026 166.967 28.9479 166.86 28.8906C166.756 28.8333 166.633 28.8047 166.493 28.8047C166.334 28.8047 166.196 28.8333 166.079 28.8906C165.964 28.9479 165.87 29.0339 165.798 29.1484C165.727 29.263 165.674 29.4076 165.637 29.582C165.603 29.7565 165.587 29.9609 165.587 30.1953Z" fill="#494748"/>
<path d="M171.789 31.5234V28.2734H172.48V32.5H171.824L171.789 31.5234ZM171.918 30.6328L172.191 30.625C172.191 30.9062 172.167 31.1667 172.117 31.4062C172.07 31.6432 171.992 31.849 171.883 32.0234C171.776 32.1979 171.634 32.3346 171.457 32.4336C171.28 32.5299 171.062 32.5781 170.805 32.5781C170.63 32.5781 170.471 32.5482 170.328 32.4883C170.188 32.4284 170.065 32.3359 169.961 32.2109C169.859 32.0859 169.78 31.9232 169.723 31.7227C169.668 31.5221 169.641 31.2812 169.641 31V28.2734H170.328V31.0078C170.328 31.1979 170.345 31.3555 170.379 31.4805C170.413 31.6029 170.458 31.7005 170.516 31.7734C170.573 31.8438 170.637 31.8932 170.707 31.9219C170.777 31.9505 170.849 31.9648 170.922 31.9648C171.167 31.9648 171.362 31.9062 171.508 31.7891C171.654 31.6693 171.758 31.5091 171.82 31.3086C171.885 31.1055 171.918 30.8802 171.918 30.6328Z" fill="#494748"/>
<path d="M175.624 31.9883C175.762 31.9883 175.887 31.9609 175.999 31.9062C176.114 31.849 176.208 31.7604 176.281 31.6406C176.354 31.5182 176.395 31.3594 176.406 31.1641H177.054C177.044 31.4453 176.972 31.6927 176.839 31.9062C176.709 32.1172 176.537 32.2826 176.324 32.4023C176.113 32.5195 175.88 32.5781 175.624 32.5781C175.351 32.5781 175.113 32.5339 174.91 32.4453C174.709 32.3568 174.542 32.2292 174.41 32.0625C174.279 31.8932 174.182 31.6888 174.117 31.4492C174.051 31.207 174.019 30.9323 174.019 30.625V30.1484C174.019 29.8411 174.051 29.5677 174.117 29.3281C174.182 29.0859 174.279 28.8815 174.41 28.7148C174.542 28.5456 174.709 28.4167 174.91 28.3281C175.113 28.2396 175.351 28.1953 175.624 28.1953C175.911 28.1953 176.158 28.2565 176.367 28.3789C176.577 28.4987 176.742 28.6732 176.859 28.9023C176.979 29.1289 177.044 29.4036 177.054 29.7266H176.406C176.395 29.5182 176.357 29.3451 176.292 29.207C176.227 29.0664 176.139 28.9622 176.027 28.8945C175.915 28.8242 175.781 28.7891 175.624 28.7891C175.442 28.7891 175.291 28.8216 175.171 28.8867C175.054 28.9492 174.962 29.0404 174.894 29.1602C174.826 29.2799 174.778 29.4232 174.749 29.5898C174.723 29.7565 174.71 29.9427 174.71 30.1484V30.625C174.71 30.8307 174.723 31.0182 174.749 31.1875C174.778 31.3542 174.825 31.4974 174.89 31.6172C174.958 31.737 175.051 31.8294 175.171 31.8945C175.291 31.957 175.442 31.9883 175.624 31.9883Z" fill="#494748"/>
<path d="M180.038 28.2734V28.8281H178.065V28.2734H180.038ZM178.71 27.2461H179.401V31.4531C179.401 31.5964 179.418 31.7044 179.452 31.7773C179.488 31.8503 179.534 31.8984 179.589 31.9219C179.643 31.9453 179.702 31.957 179.764 31.957C179.811 31.957 179.863 31.9518 179.921 31.9414C179.978 31.9284 180.017 31.918 180.038 31.9102L180.034 32.5C179.987 32.5182 179.925 32.5352 179.846 32.5508C179.768 32.569 179.669 32.5781 179.55 32.5781C179.401 32.5781 179.263 32.543 179.135 32.4727C179.008 32.4023 178.905 32.2852 178.827 32.1211C178.749 31.9544 178.71 31.7305 178.71 31.4492V27.2461Z" fill="#494748"/>
<path d="M183.553 31.418C183.553 31.3112 183.527 31.2174 183.475 31.1367C183.423 31.056 183.337 30.9779 183.217 30.9023C183.1 30.8268 182.941 30.7461 182.74 30.6602C182.545 30.5794 182.369 30.5 182.213 30.4219C182.059 30.3411 181.929 30.2539 181.822 30.1602C181.716 30.0664 181.634 29.9583 181.576 29.8359C181.522 29.7109 181.494 29.5638 181.494 29.3945C181.494 29.2253 181.525 29.069 181.588 28.9258C181.653 28.7799 181.744 28.6523 181.861 28.543C181.979 28.4336 182.119 28.349 182.283 28.2891C182.447 28.2266 182.631 28.1953 182.834 28.1953C183.123 28.1953 183.369 28.2513 183.572 28.3633C183.775 28.4753 183.93 28.6289 184.037 28.8242C184.147 29.0169 184.201 29.2344 184.201 29.4766H183.514C183.514 29.3594 183.488 29.2487 183.436 29.1445C183.384 29.0404 183.307 28.9557 183.205 28.8906C183.104 28.8229 182.98 28.7891 182.834 28.7891C182.68 28.7891 182.555 28.8164 182.459 28.8711C182.363 28.9258 182.292 28.9974 182.248 29.0859C182.206 29.1719 182.186 29.2669 182.186 29.3711C182.186 29.4492 182.196 29.5169 182.217 29.5742C182.24 29.6289 182.279 29.681 182.334 29.7305C182.389 29.7773 182.463 29.8268 182.557 29.8789C182.653 29.9284 182.775 29.9857 182.924 30.0508C183.21 30.1628 183.451 30.276 183.647 30.3906C183.842 30.5052 183.99 30.6393 184.092 30.793C184.193 30.9466 184.244 31.1367 184.244 31.3633C184.244 31.5482 184.21 31.7161 184.143 31.8672C184.078 32.0156 183.984 32.1432 183.861 32.25C183.739 32.3568 183.592 32.4388 183.42 32.4961C183.251 32.5508 183.061 32.5781 182.85 32.5781C182.532 32.5781 182.262 32.5156 182.041 32.3906C181.822 32.263 181.656 32.0977 181.541 31.8945C181.429 31.6888 181.373 31.4688 181.373 31.2344H182.065C182.072 31.4323 182.117 31.5859 182.197 31.6953C182.281 31.8047 182.381 31.8802 182.498 31.9219C182.615 31.9635 182.732 31.9844 182.85 31.9844C183.003 31.9844 183.132 31.9622 183.236 31.918C183.341 31.8711 183.419 31.8047 183.471 31.7188C183.525 31.6328 183.553 31.5326 183.553 31.418Z" fill="#494748"/>
</svg>
