<svg width="15" height="15" viewBox="0 0 15 15" fill="none" xmlns="http://www.w3.org/2000/svg">
<g clip-path="url(#clip0_1508_24541)">
<path d="M13.8073 12.3357V6.3437C13.6393 6.53037 13.4573 6.70304 13.2613 6.8617C11.8706 7.9257 10.7599 8.80304 9.92928 9.4937C9.66795 9.7177 9.45328 9.89504 9.28528 10.0257C9.11728 10.1564 8.89328 10.2824 8.61328 10.4037C8.33328 10.525 8.06728 10.5857 7.81528 10.5857H7.78728C7.54461 10.5857 7.27861 10.525 6.98928 10.4037C6.69995 10.2824 6.47595 10.1564 6.31728 10.0257L5.67328 9.4937C4.85195 8.80304 3.74128 7.9257 2.34128 6.8617C2.14528 6.70304 1.96328 6.53037 1.79528 6.3437V12.3357C1.79528 12.4104 1.82328 12.471 1.87928 12.5177C1.93528 12.5644 1.99128 12.5877 2.04728 12.5877H13.5553C13.6206 12.5877 13.6766 12.5644 13.7233 12.5177C13.7699 12.471 13.7979 12.4104 13.8073 12.3357ZM13.8073 4.1317V3.9357L13.7793 3.7397L13.7373 3.6697C13.7093 3.62304 13.6859 3.60437 13.6673 3.6137C13.6486 3.62304 13.6113 3.6137 13.5553 3.5857H2.04728C1.98195 3.5857 1.92595 3.6137 1.87928 3.6697C1.83261 3.7257 1.80461 3.7817 1.79528 3.8377C1.79528 4.71504 2.17795 5.45704 2.94328 6.0637L6.07928 8.5417C6.11661 8.56037 6.20995 8.63504 6.35928 8.7657C6.50861 8.89637 6.62528 8.99437 6.70928 9.0597C6.79328 9.12504 6.90995 9.20904 7.05928 9.3117C7.20861 9.41437 7.33928 9.48437 7.45128 9.5217C7.56328 9.55904 7.67528 9.58237 7.78728 9.5917H7.81528C7.91795 9.5917 8.02995 9.56837 8.15128 9.5217C8.27261 9.47504 8.40328 9.40504 8.54328 9.3117C8.68328 9.21837 8.79995 9.13437 8.89328 9.0597C8.98662 8.98504 9.10328 8.88704 9.24328 8.7657C9.38328 8.64437 9.47661 8.5697 9.52328 8.5417L12.6593 6.0637C12.9393 5.8397 13.2006 5.53637 13.4433 5.1537C13.6859 4.77104 13.8073 4.43037 13.8073 4.1317ZM14.8013 3.8377V12.3357C14.8013 12.681 14.6799 12.975 14.4373 13.2177C14.1946 13.4604 13.9006 13.5864 13.5553 13.5957H2.04728C1.71128 13.5957 1.41728 13.4697 1.16528 13.2177C0.913281 12.9657 0.791948 12.6717 0.801281 12.3357V3.8377C0.801281 3.49237 0.922615 3.19837 1.16528 2.9557C1.40795 2.71304 1.70195 2.5917 2.04728 2.5917H13.5553C13.9006 2.5917 14.1946 2.71304 14.4373 2.9557C14.6799 3.19837 14.8013 3.49237 14.8013 3.8377Z" fill="#926A59"/>
</g>
<defs>
<clipPath id="clip0_1508_24541">
<rect width="14" height="14" fill="white" transform="matrix(1 0 0 -1 0.800781 14.5898)"/>
</clipPath>
</defs>
</svg>
