<?xml version="1.0" encoding="UTF-8"?>
<svg version="1.1" xmlns="http://www.w3.org/2000/svg" width="512" height="512">
<path d="M0 0 C1.61672607 -0.00472824 1.61672607 -0.00472824 3.26611328 -0.009552 C4.43899902 -0.00752777 5.61188477 -0.00550354 6.8203125 -0.00341797 C8.0151123 -0.00437469 9.20991211 -0.00533142 10.44091797 -0.00631714 C12.9729823 -0.00699918 15.50504838 -0.00514325 18.03710938 -0.00097656 C21.9284251 0.00437132 25.81962539 -0.00092079 29.7109375 -0.00732422 C32.16406276 -0.00666344 34.61718794 -0.00538229 37.0703125 -0.00341797 C38.24319824 -0.0054422 39.41608398 -0.00746643 40.62451172 -0.009552 C41.7023291 -0.00639984 42.78014648 -0.00324768 43.890625 0 C44.84469238 0.00079559 45.79875977 0.00159119 46.78173828 0.00241089 C48.9453125 0.12939453 48.9453125 0.12939453 49.9453125 1.12939453 C50.03314792 3.34794717 50.05225859 5.56927949 50.04296875 7.78955078 C50.0415538 8.45401718 50.04013885 9.11848358 50.03868103 9.80308533 C50.03306768 11.93273352 50.02051304 14.06227793 50.0078125 16.19189453 C50.00279921 17.63264823 49.99823601 19.07340356 49.99414062 20.51416016 C49.98309395 24.05260555 49.96582042 27.59098992 49.9453125 31.12939453 C51.0691333 31.10844727 52.1929541 31.0875 53.35083008 31.06591797 C57.56830827 30.99285943 61.78573196 30.94735835 66.00366211 30.90966797 C67.82016443 30.8897011 69.63660371 30.86251766 71.45288086 30.82763672 C86.97815749 30.53720513 98.17234046 32.05173276 109.921875 42.96533203 C116.69192797 49.5682232 116.69192797 49.5682232 117.40551758 53.96484375 C116.78830927 58.20901039 114.64751561 60.03440245 111.58203125 62.76220703 C110.45600031 63.82690956 109.330362 64.89202746 108.20507812 65.95751953 C106.42852841 67.60439943 104.64528611 69.2430552 102.8527832 70.87255859 C94.93533121 78.12004695 90.40432696 83.14517917 88.9453125 94.12939453 C88.53056203 96.32507473 88.08330323 98.51297181 87.63645935 100.70233154 C86.82759745 104.69176769 86.07865363 108.69260501 85.3203125 112.69189453 C84.8529276 115.1485563 84.38454128 117.605013 83.91372681 120.0610199 C83.62335105 121.57645637 83.33498834 123.09228035 83.04891968 124.60853577 C82.49045571 127.52872818 81.88689284 130.3046535 80.9453125 133.12939453 C82.1209375 133.06751953 83.2965625 133.00564453 84.5078125 132.94189453 C89.78357966 132.95124873 93.98288712 134.16696915 97.8203125 138.00439453 C99.79962534 141.74309656 100.07013977 145.60070272 100.09057617 149.77685547 C100.09695602 150.66838318 100.10333588 151.55991089 100.10990906 152.47845459 C100.11157829 153.90668549 100.11157829 153.90668549 100.11328125 155.36376953 C100.11660965 156.3563678 100.11993805 157.34896606 100.12336731 158.37164307 C100.12842245 160.46959979 100.13077607 162.56756453 100.13061523 164.66552734 C100.13279523 167.85414099 100.15094826 171.04240484 100.16992188 174.23095703 C100.17285749 176.27522669 100.17484116 178.31949798 100.17578125 180.36376953 C100.18296677 181.30782654 100.19015228 182.25188354 100.19755554 183.22454834 C100.18242285 187.67162852 99.92272407 191.6814583 98.84692383 196.00634766 C97.99493486 199.44863964 97.82151122 201.52716708 99.2890625 204.86376953 C99.62574951 205.67370361 99.96243652 206.4836377 100.30932617 207.31811523 C100.8716394 208.58594849 100.8716394 208.58594849 101.4453125 209.87939453 C102.20861157 211.7399051 102.96495806 213.60328103 103.71484375 215.46923828 C104.28452881 216.88245361 104.28452881 216.88245361 104.86572266 218.32421875 C113.51294699 240.79292242 117.32323784 265.31997636 119.9453125 289.12939453 C120.07808594 290.25603516 120.21085938 291.38267578 120.34765625 292.54345703 C121.11066324 300.29895279 121.04365276 308.09422912 121.0703125 315.87939453 C121.07744263 317.65117065 121.07744263 317.65117065 121.0847168 319.45874023 C121.0825415 320.5617749 121.08036621 321.66480957 121.078125 322.80126953 C121.07699707 323.80254883 121.07586914 324.80382812 121.07470703 325.83544922 C120.9453125 328.12939453 120.9453125 328.12939453 119.9453125 329.12939453 C117.38937435 329.22445651 114.86066944 329.25494907 112.30444336 329.24291992 C111.4915236 329.24304046 110.67860384 329.24316099 109.84105015 329.24328518 C107.19739146 329.242536 104.5538024 329.23490756 101.91015625 329.22705078 C100.28291864 329.22558138 98.65568056 329.22456066 97.02844238 329.22399902 C90.9798919 329.21874596 84.93135153 329.20478488 78.8828125 329.19189453 C58.61875 329.16095703 58.61875 329.16095703 37.9453125 329.12939453 C37.9453125 358.82939453 37.9453125 388.52939453 37.9453125 419.12939453 C46.1953125 419.12939453 54.4453125 419.12939453 62.9453125 419.12939453 C73.1243518 423.653412 73.1243518 423.653412 76.9453125 428.12939453 C77.6671875 428.93376953 78.3890625 429.73814453 79.1328125 430.56689453 C83.69204864 437.01271115 83.16671476 443.5279169 82.9453125 451.12939453 C80.51093828 452.34658164 78.95956248 452.25519316 76.23852539 452.25637817 C75.2457962 452.259198 74.25306702 452.26201782 73.23025513 452.2649231 C72.13720062 452.26289886 71.04414612 452.26087463 69.91796875 452.25878906 C68.76996796 452.26054138 67.62196716 452.2622937 66.43917847 452.26409912 C62.62870795 452.26851531 58.81828352 452.26558044 55.0078125 452.26220703 C52.36987296 452.26288014 49.73193347 452.26385022 47.09399414 452.2651062 C41.55907691 452.26692681 36.02417302 452.26452444 30.48925781 452.25976562 C24.08519326 452.25432321 17.68116053 452.25608594 11.27709675 452.26159203 C5.12294911 452.26667198 -1.03118439 452.26614043 -7.18533325 452.2632103 C-9.80730188 452.26254127 -12.42927132 452.26336862 -15.05123901 452.26568985 C-18.70996277 452.26821776 -22.36862463 452.26437377 -26.02734375 452.25878906 C-27.66692551 452.26182541 -27.66692551 452.26182541 -29.33963013 452.2649231 C-30.33235931 452.26210327 -31.3250885 452.25928345 -32.34790039 452.25637817 C-33.21363174 452.25600115 -34.0793631 452.25562412 -34.97132874 452.25523567 C-37.0546875 452.12939453 -37.0546875 452.12939453 -39.0546875 451.12939453 C-39.71224298 442.62501034 -39.15262048 436.16265391 -34.0546875 429.12939453 C-28.85522733 423.43292714 -24.01269766 419.50765125 -16.07861328 418.90234375 C-15.0626709 418.91281738 -14.04672852 418.92329102 -13 418.93408203 C-11.99984863 418.93907715 -10.99969727 418.94407227 -9.96923828 418.94921875 C-8.71868652 418.96742676 -7.46813477 418.98563477 -6.1796875 419.00439453 C-2.1784375 419.04564453 1.8228125 419.08689453 5.9453125 419.12939453 C5.9453125 407.90939453 5.9453125 396.68939453 5.9453125 385.12939453 C6.9353125 384.79939453 7.9253125 384.46939453 8.9453125 384.12939453 C8.83579134 380.33711309 8.70508009 376.54585613 8.5703125 372.75439453 C8.539375 371.67416016 8.5084375 370.59392578 8.4765625 369.48095703 C8.43789063 368.44970703 8.39921875 367.41845703 8.359375 366.35595703 C8.3279541 365.40285645 8.2965332 364.44975586 8.26416016 363.46777344 C8.15975454 360.94044278 8.15975454 360.94044278 5.9453125 359.12939453 C5.71826172 356.1484375 5.71826172 356.1484375 5.75 352.37158203 C5.7528299 351.70853058 5.75565979 351.04547913 5.75857544 350.36233521 C5.76977815 348.2428387 5.79488199 346.12376349 5.8203125 344.00439453 C5.83034222 342.56820271 5.83946809 341.13200428 5.84765625 339.69580078 C5.8697175 336.17352825 5.90424756 332.6515025 5.9453125 329.12939453 C4.40769005 329.13272545 4.40769005 329.13272545 2.83900452 329.13612366 C-6.7997571 329.15635494 -16.43851444 329.1713666 -26.07729244 329.1812067 C-31.03322672 329.18643557 -35.98914392 329.19353327 -40.94506836 329.20483398 C-45.72367586 329.21566275 -50.50226688 329.22167134 -55.2808857 329.22427177 C-57.10822369 329.22612604 -58.93556074 329.22974669 -60.76289177 329.23512459 C-63.31322079 329.24233489 -65.86348087 329.24338548 -68.41381836 329.24291992 C-69.17698364 329.2465152 -69.94014893 329.25011047 -70.72644043 329.2538147 C-75.94063534 329.24344669 -75.94063534 329.24344669 -77.0546875 328.12939453 C-81.48135638 275.04290338 -66.35609125 217.49314012 -39.0546875 172.12939453 C-40.22825806 172.0918103 -40.22825806 172.0918103 -41.42553711 172.0534668 C-44.94793699 171.93789665 -48.4700431 171.81499504 -51.9921875 171.69189453 C-53.22388672 171.65257812 -54.45558594 171.61326172 -55.72460938 171.57275391 C-56.89443359 171.53085938 -58.06425781 171.48896484 -59.26953125 171.44580078 C-60.89556274 171.39081421 -60.89556274 171.39081421 -62.55444336 171.3347168 C-65.0546875 171.12939453 -65.0546875 171.12939453 -66.0546875 170.12939453 C-66.18038672 167.5592263 -66.24332089 165.01735686 -66.2578125 162.44580078 C-66.26351257 161.6750975 -66.26921265 160.90439423 -66.27508545 160.1103363 C-66.28454817 158.47697326 -66.29107446 156.84359101 -66.29492188 155.21020508 C-66.3046339 152.70571774 -66.33564664 150.20204863 -66.3671875 147.69775391 C-66.37371661 146.11377442 -66.37896744 144.52978905 -66.3828125 142.94580078 C-66.3951593 142.19367813 -66.4075061 141.44155548 -66.42022705 140.66664124 C-66.41113281 138.5534668 -66.41113281 138.5534668 -66.0546875 135.12939453 C-62.56131932 132.80048241 -61.19460885 132.8938831 -57.07421875 132.93408203 C-55.32915039 132.94375 -55.32915039 132.94375 -53.54882812 132.95361328 C-52.33388672 132.97037109 -51.11894531 132.98712891 -49.8671875 133.00439453 C-48.64064453 133.01341797 -47.41410156 133.02244141 -46.15039062 133.03173828 C-43.11829455 133.05533436 -40.08658812 133.08825612 -37.0546875 133.12939453 C-37.24260864 132.28852295 -37.24260864 132.28852295 -37.43432617 131.43066406 C-38.04079722 128.70608254 -38.64153823 125.98026535 -39.2421875 123.25439453 C-39.46922363 122.23531006 -39.69625977 121.21622559 -39.93017578 120.16625977 C-41.17486432 114.49290574 -42.3032031 108.82466703 -43.25390625 103.09423828 C-43.45153564 101.9422998 -43.64916504 100.79036133 -43.8527832 99.60351562 C-44.22927652 97.37705872 -44.5843065 95.14683503 -44.91479492 92.91308594 C-46.21272708 85.38213628 -48.51655061 81.32026618 -54.0546875 76.12939453 C-54.82973633 75.37118408 -55.60478516 74.61297363 -56.40332031 73.83178711 C-59.78851415 70.53118994 -63.19309732 67.25343116 -66.64257812 64.02001953 C-67.46822266 63.21822266 -68.29386719 62.41642578 -69.14453125 61.59033203 C-69.89597412 60.8766748 -70.64741699 60.16301758 -71.42163086 59.42773438 C-73.53198582 56.45765191 -73.49573725 54.70008494 -73.0546875 51.12939453 C-71.26171875 48.49658203 -71.26171875 48.49658203 -68.8671875 46.00439453 C-68.08988281 45.17681641 -67.31257813 44.34923828 -66.51171875 43.49658203 C-62.62957414 39.75639184 -58.83868004 36.81645115 -53.9921875 34.44189453 C-53.15558594 34.02552734 -52.31898438 33.60916016 -51.45703125 33.18017578 C-47.93490069 31.6396016 -44.85793737 31.00340995 -41.02050781 31.01586914 C-39.84974701 31.01598244 -39.84974701 31.01598244 -38.65533447 31.01609802 C-37.82290222 31.02125931 -36.99046997 31.02642059 -36.1328125 31.03173828 C-35.27282654 31.03315323 -34.41284058 31.03456818 -33.52679443 31.036026 C-30.78605641 31.04161356 -28.04540074 31.05416379 -25.3046875 31.06689453 C-23.4440116 31.07191114 -21.58333441 31.07647377 -19.72265625 31.08056641 C-15.16663504 31.09157892 -10.61067522 31.10883502 -6.0546875 31.12939453 C-6.05992432 30.22584229 -6.06516113 29.32229004 -6.07055664 28.39135742 C-6.08756436 25.04987964 -6.10012083 21.70844762 -6.10961914 18.36694336 C-6.11465851 16.91869381 -6.12149003 15.47044936 -6.13012695 14.0222168 C-6.14220997 11.94464865 -6.14791961 9.86714756 -6.15234375 7.78955078 C-6.15758057 6.53795166 -6.16281738 5.28635254 -6.16821289 3.99682617 C-5.97940608 -0.77206848 -4.29668928 0.00358299 0 0 Z " fill="#3D332C" transform="translate(361.0546875,29.87060546875)"/>
<path d="M0 0 C8.06500261 4.85946246 10.65954239 10.60362718 13.625 19.5 C24.515 19.995 24.515 19.995 35.625 20.5 C36.12 22.975 36.12 22.975 36.625 25.5 C35.625 26.5 35.625 26.5 33.40014648 26.61352539 C32.44180908 26.60828857 31.48347168 26.60305176 30.49609375 26.59765625 C28.94438477 26.59282227 28.94438477 26.59282227 27.36132812 26.58789062 C26.27271484 26.57951172 25.18410156 26.57113281 24.0625 26.5625 C22.4237793 26.55573242 22.4237793 26.55573242 20.75195312 26.54882812 C18.04291505 26.53699826 15.33398401 26.52051543 12.625 26.5 C12.65001587 27.33265381 12.65001587 27.33265381 12.67553711 28.18212891 C12.79965201 35.82174817 12.03952261 43.29001729 11.1875 50.875 C10.98543945 52.76025391 10.98543945 52.76025391 10.77929688 54.68359375 C9.6751277 64.7557711 9.6751277 64.7557711 8.625 68.5 C9.37523438 68.44199219 10.12546875 68.38398437 10.8984375 68.32421875 C19.71346421 67.93564704 25.99851202 69.4059946 32.6953125 75.33203125 C39.50250838 82.552216 41.28279156 89.39803197 41.04296875 99.2421875 C40.08816937 106.68426862 36.37343069 112.73300869 30.625 117.5 C21.61330792 124.35672223 14.2240675 123.5 2.625 123.5 C0.975 137.69 -0.675 151.88 -2.375 166.5 C17.095 166.5 36.565 166.5 56.625 166.5 C56.57859375 157.43660156 56.5321875 148.37320313 56.484375 139.03515625 C56.46393344 133.28840689 56.44451161 127.54168393 56.4296875 121.79492188 C56.40597612 112.67625911 56.37813933 103.55774447 56.32324219 94.43920898 C56.28327548 87.7974654 56.25754383 81.15584227 56.24864602 74.51398176 C56.24344779 70.99965364 56.23129823 67.48567002 56.20207977 63.97145271 C56.16966705 60.0408818 56.16904689 56.11064274 56.17089844 52.17993164 C56.15651733 51.02474533 56.14213623 49.86955902 56.12731934 48.67936707 C56.17698114 38.91645637 58.66666164 31.45833836 65.625 24.5 C71.38200935 20.5 71.38200935 20.5 74.625 20.5 C74.61976318 19.86908447 74.61452637 19.23816895 74.60913086 18.58813477 C74.58842174 15.74626653 74.57535934 12.90441412 74.5625 10.0625 C74.55412109 9.06927734 74.54574219 8.07605469 74.53710938 7.05273438 C74.53388672 6.10849609 74.53066406 5.16425781 74.52734375 4.19140625 C74.52210693 3.31685791 74.51687012 2.44230957 74.51147461 1.54125977 C74.625 -0.5 74.625 -0.5 75.625 -1.5 C78.01782271 -1.60027985 80.3817934 -1.63618677 82.77514648 -1.62939453 C83.52310486 -1.63114685 84.27106323 -1.63289917 85.04168701 -1.63470459 C87.52651252 -1.63912375 90.01126746 -1.63618461 92.49609375 -1.6328125 C94.21623244 -1.63348559 95.93637104 -1.63445566 97.6565094 -1.63571167 C101.26719058 -1.63718879 104.87784707 -1.63503391 108.48852539 -1.63037109 C113.12366677 -1.62467807 117.75875019 -1.62795002 122.39388943 -1.63394356 C125.94798725 -1.63755244 129.50207128 -1.636409 133.05616951 -1.63381577 C134.76545277 -1.63314718 136.47473727 -1.63397254 138.18401909 -1.63629532 C140.57119959 -1.63882672 142.95828555 -1.63497414 145.34545898 -1.62939453 C146.05670425 -1.63141876 146.76794952 -1.63344299 147.50074768 -1.63552856 C152.39647279 -1.61426361 152.39647279 -1.61426361 154.625 -0.5 C154.625 6.43 154.625 13.36 154.625 20.5 C156.605 21.16 158.585 21.82 160.625 22.5 C167.13555065 27.18759647 171.1766855 32.55952892 172.625 40.5 C172.91960637 44.62900961 172.91877192 48.74774924 172.91552734 52.88598633 C172.92224457 54.11940262 172.92896179 55.35281891 172.93588257 56.62361145 C172.95158027 59.99160529 172.95823493 63.35935244 172.95951414 66.72736573 C172.96094037 68.83627189 172.96521886 70.94515255 172.97050858 73.05405235 C172.98898571 80.42480473 172.99718213 87.795485 172.99560547 95.16625977 C172.99440482 102.01516352 173.01549788 108.86375177 173.0470928 115.71257573 C173.07332431 121.61092847 173.08396989 127.50917859 173.08269465 133.40758914 C173.08218701 136.92236522 173.08775928 140.43686065 173.10905075 143.95157814 C173.13218003 147.87645185 173.12287026 151.80089953 173.11083984 155.72583008 C173.12207886 156.87577454 173.13331787 158.02571899 173.14489746 159.21051025 C173.07999935 167.57048588 171.69023854 174.66845182 166.375 181.3125 C163.625 183.5 163.625 183.5 161.63720703 184.44921875 C159.29648105 185.60428463 157.51144188 186.68678463 155.625 188.5 C154.54800297 191.90371004 154.63866737 195.14256775 154.75 198.6875 C154.76018161 200.49346276 154.76314382 202.29948516 154.7578125 204.10546875 C154.78705811 205.29885864 154.78705811 205.29885864 154.81689453 206.51635742 C154.625 208.5 154.625 208.5 152.625 210.5 C150.19669939 210.69815184 147.88245981 210.77283267 145.453125 210.75878906 C144.71477417 210.7622937 143.97642334 210.76579834 143.21569824 210.76940918 C140.76870392 210.77823049 138.3219974 210.77237604 135.875 210.765625 C134.17871037 210.76697154 132.48242112 210.76891197 130.78613281 210.77142334 C127.2284783 210.77437514 123.67092412 210.77007519 120.11328125 210.76074219 C115.54648859 210.74934759 110.979931 210.75590677 106.41314697 210.76788712 C102.90964986 210.77510422 99.40620874 210.77281848 95.90270996 210.76763153 C94.21854627 210.76629462 92.53437754 210.7679442 90.85021973 210.77259064 C88.49896726 210.77765347 86.14809877 210.76994933 83.796875 210.75878906 C83.09655151 210.76283752 82.39622803 210.76688599 81.67468262 210.77105713 C76.85352915 210.72852915 76.85352915 210.72852915 74.625 208.5 C74.46484375 206.53222656 74.46484375 206.53222656 74.5625 204.140625 C75.20369309 194.4679413 75.20369309 194.4679413 71.515625 186.08984375 C68.90461785 184.64383463 68.90461785 184.64383463 66.1484375 183.58984375 C62.13098394 181.85475158 60.77089653 179.21955398 58.625 175.5 C58.625 174.84 58.625 174.18 58.625 173.5 C38.165 173.5 17.705 173.5 -3.375 173.5 C-4.61089645 184.92744537 -4.61089645 184.92744537 -5.82763672 196.35693359 C-5.98595848 197.787512 -6.14493079 199.21801863 -6.3046875 200.6484375 C-6.41889038 201.76665894 -6.41889038 201.76665894 -6.53540039 202.9074707 C-7.1468564 208.2718564 -7.1468564 208.2718564 -9.375 210.5 C-12 210.125 -12 210.125 -14.375 209.5 C-16.21678127 197.50849656 -17.83474917 185.62769965 -18.375 173.5 C-19.04966309 173.52094727 -19.72432617 173.54189453 -20.41943359 173.56347656 C-23.52946567 173.64754586 -26.63925759 173.69894444 -29.75 173.75 C-30.81089844 173.78351563 -31.87179688 173.81703125 -32.96484375 173.8515625 C-41.95012011 173.96181129 -49.40937528 172.41410986 -56.25 166.3125 C-62.43256907 159.44459898 -64.48066936 151.62719084 -64.375 142.5 C-63.63208721 134.28816039 -60.08334369 127.7684647 -54.0625 122.1875 C-45.17863789 115.265255 -36.08223355 116.17148261 -25.375 116.5 C-25.50052246 115.73341064 -25.62604492 114.96682129 -25.75537109 114.17700195 C-27.10578525 105.70223035 -28.12089809 97.22286192 -29 88.6875 C-29.1340625 87.41068359 -29.268125 86.13386719 -29.40625 84.81835938 C-29.73195605 81.71251959 -30.05483045 78.60641454 -30.375 75.5 C-30.96595459 75.51305176 -31.55690918 75.52610352 -32.16577148 75.53955078 C-41.15098288 75.65506314 -48.54402916 74.06235772 -55.62109375 68.21484375 C-61.89210353 62.08350012 -63.91528043 55.16739582 -64.375 46.5 C-64.03801731 39.05376954 -61.36930044 33.02112538 -56.375 27.5 C-51.15646229 23.26105128 -46.53721405 20.33822878 -39.6875 20.4375 C-38.47513672 20.45103516 -38.47513672 20.45103516 -37.23828125 20.46484375 C-36.62339844 20.47644531 -36.00851563 20.48804687 -35.375 20.5 C-35.33375 19.530625 -35.2925 18.56125 -35.25 17.5625 C-34.37235885 11.63541663 -30.95260981 6.55236102 -26.3046875 2.8515625 C-18.57310806 -2.08409523 -8.68069476 -3.8713511 0 0 Z M-13.375 19.5 C-13.375 19.83 -13.375 20.16 -13.375 20.5 C-11.725 20.5 -10.075 20.5 -8.375 20.5 C-8.375 20.17 -8.375 19.84 -8.375 19.5 C-10.025 19.5 -11.675 19.5 -13.375 19.5 Z M-36.375 26.5 C-43.81397661 27.34377281 -48.38868461 29.91532677 -53.375 35.5 C-56.51947597 40.36886601 -57.88811296 45.11563791 -57.0078125 50.921875 C-55.43797314 57.31751682 -52.82344719 61.71343439 -47.375 65.5 C-42.09521069 68.11190991 -37.2077596 68.8723038 -31.375 68.5 C-31.18234261 60.48720405 -31.92198657 52.65314842 -32.75 44.6875 C-32.87632813 43.37845703 -33.00265625 42.06941406 -33.1328125 40.72070312 C-33.26171875 39.46580078 -33.390625 38.21089844 -33.5234375 36.91796875 C-33.63864746 35.78125732 -33.75385742 34.6445459 -33.87255859 33.47338867 C-34.33556293 30.73338393 -34.97059639 28.87169655 -36.375 26.5 Z M7.625 75.5 C7.04904989 80.05245673 6.47963422 84.60566806 5.91601562 89.15966797 C5.72375899 90.7057855 5.52978061 92.25169001 5.33398438 93.79736328 C5.05135199 96.03102429 4.77511197 98.26540175 4.5 100.5 C4.36875732 101.52081665 4.36875732 101.52081665 4.23486328 102.56225586 C3.66597741 107.25127187 3.55136983 111.78766938 3.625 116.5 C16.04126362 117.26691725 16.04126362 117.26691725 26.59375 111.6953125 C32.04274561 105.77734596 34.1456823 101.13439915 33.9296875 93.05859375 C33.31885212 87.92914279 31.48318718 84.2161125 27.68359375 80.70703125 C22.73959612 76.87383972 19.27185364 75.36297819 12.9375 75.4375 C11.94363281 75.44652344 10.94976562 75.45554687 9.92578125 75.46484375 C9.16652344 75.47644531 8.40726562 75.48804687 7.625 75.5 Z M-52.1875 130.1875 C-56.36321636 136.51072764 -58.1652829 142.42134107 -57.078125 150.0078125 C-55.46988836 155.70811793 -52.06016723 160.61349628 -47.1875 164 C-43.32770543 166.0585571 -40.58066743 166.62257611 -36.26953125 166.59765625 C-34.79516602 166.59282227 -34.79516602 166.59282227 -33.29101562 166.58789062 C-32.26685547 166.57951172 -31.24269531 166.57113281 -30.1875 166.5625 C-29.15173828 166.55798828 -28.11597656 166.55347656 -27.04882812 166.54882812 C-24.49082734 166.5370401 -21.93294267 166.52058515 -19.375 166.5 C-19.92409615 161.34025146 -20.47551763 156.18075859 -21.02905273 151.02148438 C-21.21685981 149.26797128 -21.40404216 147.51439116 -21.59057617 145.76074219 C-21.85950344 143.23354301 -22.13070998 140.70659702 -22.40234375 138.1796875 C-22.48467758 137.40132538 -22.56701141 136.62296326 -22.65184021 135.8210144 C-23.09875514 131.68568007 -23.64275989 127.59712559 -24.375 123.5 C-39.58965443 122.62428006 -39.58965443 122.62428006 -52.1875 130.1875 Z " fill="#3C332A" transform="translate(93.375,31.5)"/>
<path d="M0 0 C1.00064484 -0.02351028 2.00128967 -0.04702057 3.03225708 -0.07124329 C6.33885601 -0.1377114 9.64297004 -0.1514076 12.95019531 -0.15893555 C15.25320452 -0.18143427 17.55620369 -0.2049836 19.85919189 -0.22953796 C24.6879392 -0.27145323 29.51581017 -0.28442053 34.34472656 -0.28027344 C40.52162843 -0.27956263 46.69288571 -0.37503816 52.86845016 -0.4956789 C57.62662322 -0.57368082 62.38344217 -0.58770357 67.14218903 -0.58400536 C69.4180571 -0.59224579 71.69396334 -0.62310147 73.96920013 -0.67733192 C91.24638907 -1.05052196 91.24638907 -1.05052196 95.83143616 2.35681534 C99.26946213 6.10667699 101.08944566 10.36401299 103.02832031 15.0168457 C104.30252216 17.36855566 105.66218049 19.65365877 107.02832031 21.9543457 C128.16619146 61.24046877 135.02832031 109.04130844 135.02832031 153.0168457 C121.49832031 153.0168457 107.96832031 153.0168457 94.02832031 153.0168457 C93.65707031 148.3143457 93.28582031 143.6118457 92.90332031 138.7668457 C91.46465112 120.89549087 89.9276647 103.0325199 88.36651611 85.17150879 C88.10027827 82.12469819 87.83582328 79.07774122 87.57293701 76.03063965 C87.25663578 72.36624753 86.93633168 68.70222488 86.61321831 65.03842735 C86.4373294 63.03420242 86.26510877 61.02965661 86.09303284 59.02510071 C85.34744685 50.63529412 84.30213546 42.34233248 83.02832031 34.0168457 C81.70832031 34.3468457 80.38832031 34.6768457 79.02832031 35.0168457 C77.08140505 54.89146008 75.2129458 74.77244143 73.46191406 94.6652832 C73.36153713 95.80543129 73.36153713 95.80543129 73.25913239 96.96861267 C72.58332729 104.6499277 71.91088165 112.33153135 71.24274731 120.01351738 C70.98890129 122.9296583 70.73397325 125.84570411 70.478899 128.76173782 C70.30286133 130.7797292 70.12851013 132.79786747 69.95420837 134.81600952 C69.79330467 136.65589951 69.79330467 136.65589951 69.62915039 138.53295898 C69.53684647 139.59652618 69.44454254 140.66009338 69.34944153 141.75588989 C68.97905868 145.51709295 68.49709666 149.26663496 68.02832031 153.0168457 C28.75832031 153.0168457 -10.51167969 153.0168457 -50.97167969 153.0168457 C-50.97167969 133.10210727 -50.97167969 133.10210727 -50.22167969 125.5168457 C-50.13515137 124.61087646 -50.04862305 123.70490723 -49.95947266 122.77148438 C-48.8042325 111.44376638 -46.97847876 100.22131656 -44.97167969 89.0168457 C-44.81973145 88.16493652 -44.6677832 87.31302734 -44.51123047 86.43530273 C-39.44975241 58.7789392 -29.8880173 31.92726444 -14.97167969 8.0168457 C-14.65857723 7.41456555 -14.34547478 6.8122854 -14.02288437 6.19175434 C-10.470909 0.08289674 -6.70868225 -0.0226317 0 0 Z " fill="#E86B79" transform="translate(340.9716796875,199.983154296875)"/>
<path d="M0 0 C5.65942885 10.91597173 10.60540938 22.07338073 15.4375 33.375 C16.17605458 35.09391234 16.91498468 36.81266338 17.65429688 38.53125 C19.44051847 42.68565926 21.22169337 46.84219693 23 51 C28.87521785 39.68104523 33.89611856 28.09000783 38.82495117 16.33544922 C39.80255223 14.00841336 40.78584571 11.6838438 41.76953125 9.359375 C42.21326836 8.29236359 42.21326836 8.29236359 42.66596985 7.20379639 C43.86869219 4.36393771 44.79748911 2.20251089 47 0 C50.90932049 -0.37529477 54.62441941 0.05073571 57.890625 2.3046875 C61.56273349 5.88766715 62.84338281 8.42608615 63.36547852 13.67285156 C63.27517985 20.37771693 60.94681352 26.63345482 58.89512444 32.94765472 C58.13973513 35.27319181 57.40067764 37.60338903 56.66542053 39.93536377 C55.10377296 44.87819491 53.52175219 49.81437587 51.9375 54.75 C50.0973985 60.48663981 48.26580914 66.22577035 46.45312691 71.971138 C45.72536328 74.26373641 44.98353241 76.55146009 44.24095154 78.83929443 C43.79529658 80.24518884 43.35028015 81.65128587 42.90600586 83.05761719 C42.51295761 84.28067566 42.11990936 85.50373413 41.71495056 86.76385498 C40.51289057 92.2048472 42.27218752 95.96194044 44.44140625 100.9453125 C44.93930664 102.09660645 45.43720703 103.24790039 45.95019531 104.43408203 C46.34543396 105.33879242 46.34543396 105.33879242 46.74865723 106.26177979 C47.56842595 108.13856694 48.38223924 110.01783078 49.19433594 111.89794922 C50.28100249 114.41318087 51.36942258 116.92763915 52.45947266 119.44140625 C54.57494342 124.32811018 56.67108069 129.22264749 58.75 134.125 C59.08459229 134.90504395 59.41918457 135.68508789 59.76391602 136.48876953 C62 141.76903023 62 141.76903023 62 144 C62.66 143.67 63.32 143.34 64 143 C75.0403004 140.86107683 85.59542886 142.78599419 95 149 C103.19541196 155.49620374 108.37018472 163.59177371 110 174 C110.93600054 184.57220282 109.13332293 194.08339709 102.875 202.8125 C95.42826282 211.54261104 86.58604649 216.14620546 75.2109375 217.27734375 C63.50913542 217.68937903 54.53565855 213.73344775 45.8359375 206.1015625 C35.83029208 196.02096842 33.23472039 179.48994518 29.25 166.1875 C28.27969005 162.95071035 27.30512277 159.71524504 26.328125 156.48046875 C26.10835999 155.74209274 25.88859497 155.00371674 25.66217041 154.2429657 C24.8408964 150.84835069 24.8408964 150.84835069 23 148 C22.82540253 148.58136215 22.65080505 149.1627243 22.47091675 149.76170349 C20.63887425 155.85116672 18.78584543 161.93396321 16.92089844 168.01342773 C16.22904948 170.27840943 15.54243814 172.54499826 14.86132812 174.81323242 C13.87726625 178.08696457 12.87405943 181.35431515 11.8671875 184.62109375 C11.57004852 185.62458359 11.27290955 186.62807343 10.96676636 187.66197205 C7.45529709 198.90769561 1.58442069 207.6286999 -8.9375 213.25 C-18.80455446 217.78657677 -29.2290358 218.565384 -39.58984375 215.03515625 C-49.4972818 210.77993569 -56.66903239 203.54864489 -61.2734375 193.859375 C-64.87495381 184.64259133 -64.18383112 172.45780254 -60.3203125 163.4609375 C-55.13210122 153.79060287 -47.56517983 147.03859701 -37.09375 143.52734375 C-29.9393755 141.72540241 -23.24726603 141.94797751 -16 143 C-14.35 139.7 -12.7 136.4 -11 133 C-9.68 133 -8.36 133 -7 133 C-6.608125 131.7625 -6.21625 130.525 -5.8125 129.25 C-4.5375258 125.35765087 -2.98425334 121.67519852 -1.3125 117.9375 C0.4963513 113.70083943 1.24683838 110.80175719 0.82699585 106.14260864 C1.06988751 103.13446248 2.4269804 100.97499526 3.76806641 98.28076172 C7.21780895 89.51033079 4.61830994 82.87945964 1.7109375 74.4453125 C1.20916186 72.89003881 0.71123313 71.33351931 0.21694946 69.77584839 C-1.08504171 65.70562874 -2.43479836 61.652965 -3.79675293 57.60247803 C-5.44282356 52.6787011 -7.0336437 47.73686377 -8.6305294 42.79696465 C-9.87349014 38.95438177 -11.12486987 35.11534211 -12.40420532 31.28469849 C-12.75485046 30.2251873 -12.75485046 30.2251873 -13.11257935 29.14427185 C-13.74160184 27.244848 -14.37603596 25.34721866 -15.01089478 23.44973755 C-16.78499807 17.26213425 -17.52464233 12.717158 -15.0234375 6.796875 C-11.5781962 0.74797805 -6.42541279 -0.14278695 0 0 Z M-35 174 C-36.6143926 177.22878519 -36.5818272 180.50903682 -36 184 C-33.44295652 187.64184981 -31.77727291 188.77792202 -27.5 190 C-23.51887435 190 -22.03489564 189.5290797 -19 187 C-16.4709203 183.96510436 -16 182.48112565 -16 178.5 C-17.22207798 174.22272709 -18.35815019 172.55704348 -22 170 C-27.49785698 168.73382688 -31.03939768 169.91937942 -35 174 Z M64 174 C62.3856074 177.22878519 62.4181728 180.50903682 63 184 C65.55704348 187.64184981 67.22272709 188.77792202 71.5 190 C75.48112565 190 76.96510436 189.5290797 80 187 C82.5290797 183.96510436 83 182.48112565 83 178.5 C81.77792202 174.22272709 80.64184981 172.55704348 77 170 C71.50214302 168.73382688 67.96060232 169.91937942 64 174 Z " fill="#3D332C" transform="translate(161,265)"/>
<path d="M0 0 C14.52 0 29.04 0 44 0 C44.33 9.9 44.66 19.8 45 30 C49.29 30.33 53.58 30.66 58 31 C58 44.53 58 58.06 58 72 C33.91 72 9.82 72 -15 72 C-15 58.47 -15 44.94 -15 31 C-10.38 30.67 -5.76 30.34 -1 30 C-0.67 20.1 -0.34 10.2 0 0 Z " fill="#86786E" transform="translate(361,36)"/>
<path d="M0 0 C3.63 0 7.26 0 11 0 C11.33 3.63 11.66 7.26 12 11 C13.65 11.33 15.3 11.66 17 12 C17 8.04 17 4.08 17 0 C20.3 0 23.6 0 27 0 C27.33 5.94 27.66 11.88 28 18 C29.32 18 30.64 18 32 18 C32.33 12.06 32.66 6.12 33 0 C36.3 0 39.6 0 43 0 C43 3.96 43 7.92 43 12 C44.65 11.67 46.3 11.34 48 11 C48.33 7.37 48.66 3.74 49 0 C51.97 0 54.94 0 58 0 C58.495 8.91 58.495 8.91 59 18 C60.32 18 61.64 18 63 18 C63.33 12.06 63.66 6.12 64 0 C67.3 0 70.6 0 74 0 C74.495 5.445 74.495 5.445 75 11 C76.32 11 77.64 11 79 11 C79.33 7.37 79.66 3.74 80 0 C82.97 0 85.94 0 89 0 C89.495 8.91 89.495 8.91 90 18 C91.65 18.33 93.3 18.66 95 19 C95 12.73 95 6.46 95 0 C98.3 0 101.6 0 105 0 C105.495 5.445 105.495 5.445 106 11 C107.32 11 108.64 11 110 11 C110.33 7.37 110.66 3.74 111 0 C114.3 0 117.6 0 121 0 C121.495 8.91 121.495 8.91 122 18 C123.32 18 124.64 18 126 18 C126.33 12.06 126.66 6.12 127 0 C129.97 0 132.94 0 136 0 C136.33 3.63 136.66 7.26 137 11 C138.65 11.33 140.3 11.66 142 12 C142 8.04 142 4.08 142 0 C147.95703125 -0.29296875 147.95703125 -0.29296875 150 0 C150.99 0.99 151.98 1.98 153 3 C153 10.59 153 18.18 153 26 C102.51 25.67 52.02 25.34 0 25 C0 16.75 0 8.5 0 0 Z " fill="#CFD654" transform="translate(301,170)"/>
<path d="M0 0 C2.56630083 0.54195173 3.82007286 0.83868602 5.8125 2.625 C8.3794432 7.7588864 5.4814982 14.08636802 3.8125 19.25 C3.594729 19.9303833 3.37695801 20.6107666 3.15258789 21.31176758 C2.68421446 22.77508324 2.21369077 24.23771209 1.74121094 25.69970703 C0.45544736 29.68997858 -0.80167473 33.68929362 -2.0625 37.6875 C-2.3193457 38.50025391 -2.57619141 39.31300781 -2.84082031 40.15039062 C-5.46665259 48.4627172 -8.03031509 56.79301949 -10.5546875 65.13671875 C-14.09707014 76.83300027 -17.72843734 88.49600335 -21.44921875 100.13671875 C-23.90141578 107.81246146 -26.24790806 115.51933663 -28.5859375 123.23046875 C-32.31249321 135.51250211 -36.10426737 147.77053897 -40 160 C-40.66 160 -41.32 160 -42 160 C-42.32613281 159.38511719 -42.65226562 158.77023437 -42.98828125 158.13671875 C-43.42527344 157.32847656 -43.86226562 156.52023437 -44.3125 155.6875 C-44.74175781 154.88699219 -45.17101562 154.08648437 -45.61328125 153.26171875 C-46.89283846 150.97749619 -46.89283846 150.97749619 -48.66796875 149.33203125 C-49.10753906 148.89246094 -49.54710937 148.45289063 -50 148 C-50 147.34 -50 146.68 -50 146 C-50.804375 145.62875 -50.804375 145.62875 -51.625 145.25 C-54.56424252 143.70303025 -57.25754408 141.86985631 -60 140 C-59.69255859 139.20335937 -59.69255859 139.20335937 -59.37890625 138.390625 C-59.10949219 137.68421875 -58.84007812 136.9778125 -58.5625 136.25 C-58.29566406 135.55390625 -58.02882812 134.8578125 -57.75390625 134.140625 C-56.19929103 130.2261718 -56.19929103 130.2261718 -56.58691406 126.19897461 C-57.44964334 121.6064199 -54.54809966 116.99553512 -52.8125 112.8125 C-52.21211914 111.27819336 -52.21211914 111.27819336 -51.59960938 109.71289062 C-51.20193359 108.74158203 -50.80425781 107.77027344 -50.39453125 106.76953125 C-50.03206299 105.87854736 -49.66959473 104.98756348 -49.29614258 104.06958008 C-48 102 -48 102 -46.01293945 101.51220703 C-43.78227296 101.18764215 -43.78227296 101.18764215 -42.63818359 98.89086914 C-42.02450928 97.47729126 -42.02450928 97.47729126 -41.3984375 96.03515625 C-40.91761719 94.94662354 -40.43679687 93.85809082 -39.94140625 92.73657227 C-39.16603516 90.91790649 -39.16603516 90.91790649 -38.375 89.0625 C-37.8149736 87.77805303 -37.25374115 86.49413134 -36.69140625 85.21069336 C-35.11849592 81.60758773 -33.5667028 77.9957257 -32.01989746 74.38134766 C-30.96445889 71.91701544 -29.90509108 69.45440392 -28.84472656 66.9921875 C-25.02000857 58.10903409 -21.21061221 49.21944522 -17.4140625 40.32421875 C-13.4315389 30.99452494 -9.41398181 21.68037618 -5.375 12.375 C-5.09479004 11.72927032 -4.81458008 11.08354065 -4.52587891 10.41824341 C-3.01847783 6.94496258 -1.50989771 3.47219619 0 0 Z " fill="#F8E4C8" transform="translate(211,272)"/>
<path d="M0 0 C6.94090877 3.97153603 12.51020741 9.67908954 15.13671875 17.296875 C17.25283595 26.37415603 17.38615813 35.69122668 12.5390625 43.85546875 C7.72703356 50.56055477 2.03704845 55.61089042 -6 58 C-16.51899201 59.43589136 -25.12983569 58.32422402 -34 52 C-40.91301056 46.24124891 -44.11055876 38.83937509 -45.44921875 30.05078125 C-45.980566 21.01787795 -42.79961304 13.91558331 -37.32421875 6.83203125 C-27.42737991 -3.83835361 -13.13889918 -5.79335821 0 0 Z M-23 22 C-24.6143926 25.22878519 -24.5818272 28.50903682 -24 32 C-21.44295652 35.64184981 -19.77727291 36.77792202 -15.5 38 C-11.51887435 38 -10.03489564 37.5290797 -7 35 C-4.4709203 31.96510436 -4 30.48112565 -4 26.5 C-5.22207798 22.22272709 -6.35815019 20.55704348 -10 18 C-15.49785698 16.73382688 -19.03939768 17.91937942 -23 22 Z " fill="#E76C78" transform="translate(248,417)"/>
<path d="M0 0 C6.3089812 4.39354099 11.49409849 10.33133066 13.80859375 17.74609375 C14.88378908 28.91680734 14.34827271 37.61762361 7.26953125 46.7265625 C1.46960339 53.17245389 -5.27913708 56.84170328 -13.99462891 57.38891602 C-23.50345958 57.59397329 -30.93254911 55.126884 -38.34375 48.953125 C-44.26427727 42.88239408 -47.31428878 35.0633291 -47.62890625 26.62109375 C-47.19303914 17.15225659 -43.39700647 9.57653681 -36.50390625 3.12109375 C-25.69685009 -5.87149357 -12.36786591 -7.07680028 0 0 Z M-25.19140625 20.74609375 C-26.80579885 23.97487894 -26.77323345 27.25513057 -26.19140625 30.74609375 C-23.63436277 34.38794356 -21.96867916 35.52401577 -17.69140625 36.74609375 C-13.7102806 36.74609375 -12.22630189 36.27517345 -9.19140625 33.74609375 C-6.66232655 30.71119811 -6.19140625 29.2272194 -6.19140625 25.24609375 C-7.41348423 20.96882084 -8.54955644 19.30313723 -12.19140625 16.74609375 C-17.68926323 15.47992063 -21.23080393 16.66547317 -25.19140625 20.74609375 Z " fill="#E76C78" transform="translate(151.19140625,418.25390625)"/>
<path d="M0 0 C0.66 0 1.32 0 2 0 C2.72524603 1.75419132 3.45041665 3.50841386 4.17518616 5.26280212 C5.9125958 9.08084927 7.73138163 12.30218599 11 15 C18.40212229 17.68330509 26.82924912 16.72798641 34.5625 16.4375 C36.73755566 16.4104515 38.91270713 16.39020148 41.08789062 16.37695312 C46.39556755 16.32988382 51.69592722 16.19813637 57 16 C56.71507769 18.35515568 56.42225086 20.70889434 56.125 23.0625 C56.04636719 23.71927734 55.96773438 24.37605469 55.88671875 25.05273438 C55.76103516 26.0340332 55.76103516 26.0340332 55.6328125 27.03515625 C55.55949707 27.6269165 55.48618164 28.21867676 55.41064453 28.82836914 C54.8233145 31.93437427 53.86840667 34.96057666 53 38 C18.68 38 -15.64 38 -51 38 C-52.61690417 30.72393125 -53.86663267 23.36688768 -55 16 C-39.49 15.67 -23.98 15.34 -8 15 C-7.34 13.35 -6.68 11.7 -6 10 C-5.03754912 8.20848137 -4.03677447 6.43705691 -3 4.6875 C-2.484375 3.80449219 -1.96875 2.92148438 -1.4375 2.01171875 C-0.963125 1.34785156 -0.48875 0.68398437 0 0 Z " fill="#E76B79" transform="translate(382,126)"/>
<path d="M0 0 C40.59 0 81.18 0 123 0 C121.68 7.26 120.36 14.52 119 22 C112.77746738 22.41637765 106.60362229 22.7725247 100.37817383 22.98876953 C98.26908436 23.07882018 96.16110475 23.2013375 94.0559082 23.35791016 C79.9347606 24.38113326 79.9347606 24.38113326 74 22 C68.58562952 17.25435054 65.59165826 10.60025319 63 4 C60.60588516 3.82979939 60.60588516 3.82979939 58 5 C56.84691371 6.95722268 56.05254922 8.98332676 55.18307495 11.08131409 C53.36663834 15.25769321 51.41857015 18.92811877 48 22 C40.76325269 24.81731552 32.45037155 23.59242312 24.875 23.0625 C22.75290709 22.97713031 20.63048435 22.89958009 18.5078125 22.83007812 C13.33034095 22.6435921 8.1688152 22.35104738 3 22 C2.49133331 19.64741656 1.9929375 17.29338596 1.5 14.9375 C1.35691406 14.28072266 1.21382813 13.62394531 1.06640625 12.94726562 C0.93105469 12.29306641 0.79570312 11.63886719 0.65625 10.96484375 C0.53056641 10.3730835 0.40488281 9.78132324 0.27539062 9.17163086 C-0.10939592 6.13734335 0 3.05858814 0 0 Z " fill="#EEDABF" transform="translate(322,114)"/>
<path d="M0 0 C0.73700638 -0.0065712 1.47401276 -0.0131424 2.23335266 -0.01991272 C4.67363594 -0.03962859 7.11385759 -0.051307 9.55419922 -0.0612793 C10.38972195 -0.06535482 11.22524467 -0.06943035 12.08608627 -0.07362938 C16.51197817 -0.09448692 20.93783913 -0.10878769 25.36376953 -0.11816406 C29.91989498 -0.1292032 34.47552863 -0.16357482 39.03148079 -0.20333576 C42.54726016 -0.22957594 46.06292391 -0.23786263 49.57879257 -0.24144554 C51.25720399 -0.24629562 52.93561079 -0.2578643 54.61392593 -0.27648354 C73.3209641 -0.47105116 73.3209641 -0.47105116 80.89013672 6.02856445 C81.33357422 6.61379883 81.77701172 7.1990332 82.23388672 7.80200195 C82.92998047 8.68758789 82.92998047 8.68758789 83.64013672 9.59106445 C86.40927189 13.60631045 85.73388672 14.1968409 85.73388672 20.17700195 C50.09388672 20.17700195 14.45388672 20.17700195 -22.26611328 20.17700195 C-22.26611328 12.41219008 -21.32701288 10.45594485 -16.26611328 5.17700195 C-11.14258975 0.9012557 -6.51269313 0.02519417 0 0 Z " fill="#86786E" transform="translate(351.26611328125,454.822998046875)"/>
<path d="M0 0 C5.94 0 11.88 0 18 0 C18 29.7 18 59.4 18 90 C12.06 90 6.12 90 0 90 C-0.03738281 87.64101563 -0.07476562 85.28203125 -0.11328125 82.8515625 C-0.15947035 80.57119378 -0.21071324 78.29099095 -0.26245117 76.01074219 C-0.2957398 74.42393035 -0.32375947 72.83699897 -0.34643555 71.25 C-0.37991078 68.97083516 -0.4322186 66.69276959 -0.48828125 64.4140625 C-0.49786613 63.34679428 -0.49786613 63.34679428 -0.50764465 62.25796509 C-0.54009648 60.0399544 -0.54009648 60.0399544 -1 57 C-1.99 56.34 -2.98 55.68 -4 55 C-4.34057617 52.56982422 -4.34057617 52.56982422 -4.29296875 49.5546875 C-4.28330078 48.47832031 -4.27363281 47.40195312 -4.26367188 46.29296875 C-4.23853516 45.16503906 -4.21339844 44.03710938 -4.1875 42.875 C-4.17396484 41.73933594 -4.16042969 40.60367188 -4.14648438 39.43359375 C-4.11104319 36.62192613 -4.06163517 33.81119583 -4 31 C-3.01 31 -2.02 31 -1 31 C-0.67 20.77 -0.34 10.54 0 0 Z " fill="#86786E" transform="translate(374,359)"/>
<path d="M0 0 C5.04714221 3.01505312 8.86966463 6.34727515 10.7734375 12.05859375 C11.59066806 22.79187191 9.92956858 33.65317762 8.7734375 44.30859375 C8.58015779 46.13275205 8.3874451 47.95697052 8.1953125 49.78125 C7.72892617 54.20789957 7.25095014 58.63307479 6.7734375 63.05859375 C-2.1365625 63.05859375 -11.0465625 63.05859375 -20.2265625 63.05859375 C-20.80301366 58.84586811 -21.37478468 54.6329893 -21.93554688 50.41821289 C-22.12696557 48.98947785 -22.32090552 47.56107794 -22.51757812 46.13305664 C-23.66998722 37.75163231 -24.55121907 29.54137386 -24.2265625 21.05859375 C-20.9765625 20.74609375 -20.9765625 20.74609375 -17.2265625 21.05859375 C-14.9140625 23.49609375 -14.9140625 23.49609375 -13.2265625 26.05859375 C-9.75873422 27.79250789 -6.01822929 27.51737194 -2.2265625 27.05859375 C0.66459064 25.3961807 1.46551061 24.14444122 2.3671875 20.96484375 C3.04609964 17.04804293 3.074862 14.7162472 1.3984375 11.05859375 C-2.22460394 8.29818123 -5.70665551 7.74824802 -10.2265625 8.05859375 C-13.32010888 9.22897631 -14.02192617 9.6493211 -15.5390625 12.68359375 C-16.374375 13.85921875 -16.374375 13.85921875 -17.2265625 15.05859375 C-20.9140625 15.37109375 -20.9140625 15.37109375 -24.2265625 15.05859375 C-24.62858661 11.64138881 -24.23878523 10.08162889 -22.6015625 6.99609375 C-17.05503865 0.13591952 -8.52012889 -3.60237029 0 0 Z " fill="#85776D" transform="translate(89.2265625,36.94140625)"/>
<path d="M0 0 C3.99820044 1.50875488 5.0312617 4.59939551 6.75390625 8.265625 C10.41299229 15.7866771 13.72878329 21.43079267 21.69140625 25.015625 C24.01539147 25.81590785 26.29955487 26.42986548 28.69140625 27.015625 C29.18640625 29.490625 29.18640625 29.490625 29.69140625 32.015625 C28.6240625 32.65371094 28.6240625 32.65371094 27.53515625 33.3046875 C11.9488999 42.54004074 11.9488999 42.54004074 3.44140625 57.953125 C3.19390625 58.96375 2.94640625 59.974375 2.69140625 61.015625 C0.21640625 61.510625 0.21640625 61.510625 -2.30859375 62.015625 C-2.61152344 61.2421875 -2.91445312 60.46875 -3.2265625 59.671875 C-8.72668009 45.94605048 -8.72668009 45.94605048 -19.30859375 36.015625 C-22.58930137 34.74459061 -25.8813923 33.80174364 -29.30859375 33.015625 C-29.30859375 31.365625 -29.30859375 29.715625 -29.30859375 28.015625 C-28.53515625 27.72429687 -27.76171875 27.43296875 -26.96484375 27.1328125 C-18.51830949 23.80855768 -10.34496714 20.42067524 -6.046875 11.95703125 C-4.91600191 8.98325386 -4.26994016 5.96136688 -3.703125 2.8359375 C-3.11153107 0.1064051 -2.84246377 0.01923833 0 0 Z " fill="#3B322A" transform="translate(107.30859375,316.984375)"/>
<path d="M0 0 C22.44 0 44.88 0 68 0 C68 5.28 68 10.56 68 16 C45.56 16 23.12 16 0 16 C0 10.72 0 5.44 0 0 Z " fill="#65574E" transform="translate(174,36)"/>
<path d="M0 0 C22.44 0 44.88 0 68 0 C68 4.95 68 9.9 68 15 C45.56 15 23.12 15 0 15 C0 10.05 0 5.1 0 0 Z " fill="#86786E" transform="translate(174,220)"/>
<path d="M0 0 C32.34 0 64.68 0 98 0 C95.46712032 5.06575937 92.5395996 7.99869039 87.32772827 10.05361938 C83.7113339 11.08209444 80.68459863 11.26712824 76.92822266 11.29052734 C76.24769333 11.29724457 75.567164 11.30396179 74.86601257 11.31088257 C72.63195351 11.32977139 70.39819628 11.33378198 68.1640625 11.3359375 C66.59996419 11.34237144 65.03586707 11.34910024 63.47177124 11.35610962 C60.19860038 11.36805933 56.92553488 11.37179279 53.65234375 11.37060547 C49.4739251 11.37040233 45.29618697 11.39770875 41.11792946 11.43214989 C37.88869164 11.45447003 34.65961633 11.45844147 31.4303093 11.45738602 C29.89063547 11.45973411 28.35095662 11.46851279 26.81135941 11.48405075 C16.78128463 11.57580767 9.83116017 11.22726515 2 4.375 C0 2 0 2 0 0 Z " fill="#D5DE57" transform="translate(159,204)"/>
<path d="M0 0 C3.27458875 3.8105238 5.04958426 8.22627679 7.046875 12.78125 C7.42233459 13.63174927 7.79779419 14.48224854 8.18463135 15.35852051 C8.97404547 17.15265473 9.76058566 18.94805587 10.54443359 20.74462891 C11.74799558 23.49541882 12.96926243 26.2378935 14.19140625 28.98046875 C14.95682826 30.72608098 15.72118785 32.47215953 16.484375 34.21875 C16.85197937 35.03863403 17.21958374 35.85851807 17.59832764 36.70324707 C17.92907288 37.47084351 18.25981812 38.23843994 18.60058594 39.02929688 C18.89576111 39.70118042 19.19093628 40.37306396 19.49505615 41.06530762 C20.11181847 43.42843249 19.86148375 44.73166284 19 47 C17.14453125 48.60546875 17.14453125 48.60546875 14.8125 50.1875 C10.60721097 53.2896528 7.98932126 56.44155594 5.2890625 60.88671875 C3.978751 63.03483548 2.52139877 64.99789784 1 67 C-0.29673689 63.16836326 -1.58646284 59.33440122 -2.875 55.5 C-3.23980469 54.42234375 -3.60460937 53.3446875 -3.98046875 52.234375 C-10.69155119 32.22314735 -10.69155119 32.22314735 -7.03125 21.19140625 C-6.62519531 19.95068359 -6.21914062 18.70996094 -5.80078125 17.43164062 C-5.36741213 16.14185159 -4.93381558 14.85213894 -4.5 13.5625 C-4.06545949 12.24575477 -3.63185684 10.92869965 -3.19921875 9.61132812 C-2.14198546 6.40438714 -1.07533685 3.20090664 0 0 Z " fill="#F8E4C7" transform="translate(197,366)"/>
<path d="M0 0 C34.32 0 68.64 0 104 0 C104 2.97 104 5.94 104 9 C69.68 9 35.36 9 0 9 C0 6.03 0 3.06 0 0 Z " fill="#D6DF58" transform="translate(156,175)"/>
<path d="M0 0 C34.32 0 68.64 0 104 0 C104 2.97 104 5.94 104 9 C69.68 9 35.36 9 0 9 C0 6.03 0 3.06 0 0 Z " fill="#D6DF58" transform="translate(156,146)"/>
<path d="M0 0 C34.32 0 68.64 0 104 0 C104 2.97 104 5.94 104 9 C69.68 9 35.36 9 0 9 C0 6.03 0 3.06 0 0 Z " fill="#D6DF58" transform="translate(156,131)"/>
<path d="M0 0 C34.32 0 68.64 0 104 0 C104 2.97 104 5.94 104 9 C69.68 9 35.36 9 0 9 C0 6.03 0 3.06 0 0 Z " fill="#D6DF58" transform="translate(156,117)"/>
<path d="M0 0 C34.32 0 68.64 0 104 0 C104 2.97 104 5.94 104 9 C69.68 9 35.36 9 0 9 C0 6.03 0 3.06 0 0 Z " fill="#D4DD57" transform="translate(156,102)"/>
<path d="M0 0 C34.32 0 68.64 0 104 0 C104 2.97 104 5.94 104 9 C69.68 9 35.36 9 0 9 C0 6.03 0 3.06 0 0 Z " fill="#D6DF58" transform="translate(156,73)"/>
<path d="M0 0 C34.32 0 68.64 0 104 0 C104 2.64 104 5.28 104 8 C102.03782967 9.96217033 99.02595856 9.12694487 96.41363525 9.13552856 C94.99072174 9.13249222 94.99072174 9.13249222 93.5390625 9.12939453 C92.54565857 9.13114685 91.55225464 9.13289917 90.52874756 9.13470459 C87.22748088 9.13912511 83.92626727 9.13618441 80.625 9.1328125 C78.34195953 9.13348548 76.05891913 9.13445546 73.77587891 9.13571167 C68.98404256 9.13718891 64.19222481 9.13503323 59.40039062 9.13037109 C53.24283365 9.1246738 47.08532026 9.12795266 40.92776489 9.13394356 C36.21134103 9.13754845 31.49492759 9.13641091 26.77850342 9.13381577 C24.5073852 9.1331463 22.23626606 9.1339756 19.96514893 9.13629532 C16.79705278 9.13882067 13.62902828 9.1349829 10.4609375 9.12939453 C9.51232849 9.13141876 8.56371948 9.13344299 7.58636475 9.13552856 C1.11426224 9.11426224 1.11426224 9.11426224 0 8 C0 5.36 0 2.72 0 0 Z " fill="#D4DD57" transform="translate(156,190)"/>
<path d="M0 0 C1.06950394 -0.00788544 1.06950394 -0.00788544 2.16061401 -0.01593018 C4.50183452 -0.02906205 6.84236713 -0.02041679 9.18359375 -0.01025391 C10.81974416 -0.01227661 12.45589368 -0.01518969 14.09204102 -0.01895142 C17.51489883 -0.02336553 20.93752119 -0.01697329 24.36035156 -0.00292969 C28.73841598 0.01416179 33.11592859 0.00431569 37.49397278 -0.01364708 C40.87068813 -0.0245097 44.24727357 -0.02102725 47.62399292 -0.0132637 C49.23786485 -0.01126854 50.85174873 -0.01369686 52.46560669 -0.02070236 C54.72478283 -0.02835794 56.98307673 -0.01665639 59.2421875 0 C61.16695923 0.00358017 61.16695923 0.00358017 63.13061523 0.00723267 C69.56076413 0.70901931 73.38292399 3.66565157 77.62109375 8.38818359 C78.11609375 9.37818359 78.11609375 9.37818359 78.62109375 10.38818359 C46.28109375 10.38818359 13.94109375 10.38818359 -19.37890625 10.38818359 C-12.69026704 2.58477118 -10.00413681 0.01860818 0 0 Z " fill="#D5DE57" transform="translate(178.37890625,56.61181640625)"/>
<path d="M0 0 C2.40625 0.140625 2.40625 0.140625 5 1 C6.40625 3.109375 6.40625 3.109375 7.5 5.75 C11.23215001 13.83632503 15.91148688 16.84565611 24 20 C24 21.65 24 23.3 24 25 C23.27554688 25.35191406 22.55109375 25.70382812 21.8046875 26.06640625 C13.81643156 30.14574228 8.40124773 33.91625018 5.125 42.4375 C4.75375 43.613125 4.3825 44.78875 4 46 C1.66015625 45.828125 1.66015625 45.828125 -1 45 C-2.44140625 42.671875 -2.44140625 42.671875 -3.5625 39.75 C-6.25818138 33.33842551 -8.10791632 29.6608032 -14.6875 26.9375 C-15.47511719 26.65777344 -16.26273438 26.37804687 -17.07421875 26.08984375 C-19 25 -19 25 -19.83203125 23.00390625 C-20 21 -20 21 -19 19 C-17.328125 18.25390625 -17.328125 18.25390625 -15.25 17.5625 C-9.49478663 15.49309412 -5.73086172 13.7218055 -3 8 C-2.30269194 5.6756398 -1.63087848 3.34326294 -1 1 C-0.67 0.67 -0.34 0.34 0 0 Z " fill="#3B3229" transform="translate(62,351)"/>
<path d="M0 0 C2.31640625 0.171875 2.31640625 0.171875 5 1 C6.58984375 3.328125 6.58984375 3.328125 7.9375 6.25 C11.7954431 13.8477859 16.09616551 16.99654289 24 20 C23.86328125 22.28515625 23.86328125 22.28515625 23 25 C20.41796875 26.80859375 20.41796875 26.80859375 17.1875 28.4375 C10.87240052 31.90593542 7.83558583 34.95085505 5.75 41.875 C5.5025 42.90625 5.255 43.9375 5 45 C3.02 45 1.04 45 -1 45 C-1.27972656 44.20335937 -1.55945313 43.40671875 -1.84765625 42.5859375 C-4.78445294 34.82372888 -7.5064374 29.79497045 -15.00390625 25.98046875 C-16.64216778 25.25566213 -18.31843254 24.61771866 -20 24 C-19.796875 21.62109375 -19.796875 21.62109375 -19 19 C-16.890625 17.84765625 -16.890625 17.84765625 -14.25 17.0625 C-8.39799161 14.96177904 -5.61299462 12.25260631 -2.81640625 6.61328125 C-1.82425117 4.4264204 -0.88747225 2.23107549 0 0 Z " fill="#3B322A" transform="translate(62,298)"/>
<path d="M0 0 C8.25 0 16.5 0 25 0 C23.75421514 14.08695189 22.12458932 28.0202023 20 42 C14.72 42 9.44 42 4 42 C3.42783731 36.82243852 2.85732824 31.64474967 2.29101562 26.46655273 C2.09797508 24.70602945 1.9039744 22.94561117 1.70898438 21.18530273 C1.42844568 18.65115091 1.15139256 16.11663822 0.875 13.58203125 C0.78750488 12.79850784 0.70000977 12.01498444 0.60986328 11.2077179 C0.20090342 7.42676779 0 3.81414295 0 0 Z " fill="#85776D" transform="translate(70,106)"/>
<path d="M0 0 C10.14726465 0 17.10208149 2.77210914 25.02734375 9.0234375 C27.44534964 11.44623152 29.18054887 14.11004406 31 17 C30.14277344 17.845625 29.28554688 18.69125 28.40234375 19.5625 C20.13062637 27.74900026 20.13062637 27.74900026 12.3671875 36.4140625 C11.69042969 37.19910156 11.69042969 37.19910156 11 38 C10.61070312 38.56460938 10.22140625 39.12921875 9.8203125 39.7109375 C8 41 8 41 0 41 C0 27.47 0 13.94 0 0 Z " fill="#84766C" transform="translate(440,67)"/>
<path d="M0 0 C33.66 0 67.32 0 102 0 C102 2.64 102 5.28 102 8 C68.34 8 34.68 8 0 8 C0 5.36 0 2.72 0 0 Z " fill="#D6DF58" transform="translate(157,161)"/>
<path d="M0 0 C33.66 0 67.32 0 102 0 C102 2.64 102 5.28 102 8 C68.34 8 34.68 8 0 8 C0 5.36 0 2.72 0 0 Z " fill="#D6DF58" transform="translate(157,88)"/>
<path d="M0 0 C3 1 3 1 4.01046753 2.59602356 C4.30849274 3.28596909 4.60651794 3.97591461 4.91357422 4.68676758 C5.2575827 5.46881058 5.60159119 6.25085358 5.95602417 7.05659485 C6.31858307 7.91061386 6.68114197 8.76463287 7.0546875 9.64453125 C7.4381131 10.52469406 7.8215387 11.40485687 8.21658325 12.31169128 C9.44615852 15.14103872 10.66061281 17.97660532 11.875 20.8125 C12.68523384 22.68205874 13.4964211 24.55120458 14.30859375 26.41992188 C15.86609125 30.00871497 17.41084238 33.60254766 18.94433594 37.20166016 C20.17511709 40.08973008 21.42584119 42.96535874 22.71972656 45.82568359 C23.18604492 46.8770752 23.65236328 47.9284668 24.1328125 49.01171875 C24.5261377 49.87627686 24.91946289 50.74083496 25.32470703 51.6315918 C26.50840213 55.78308353 25.07662578 59.17409143 23.37109375 62.98828125 C23.05849609 63.69404297 22.74589844 64.39980469 22.42382812 65.12695312 C22.09833984 65.84818359 21.77285156 66.56941406 21.4375 67.3125 C21.10814453 68.05306641 20.77878906 68.79363281 20.43945312 69.55664062 C19.63082877 71.37311562 18.81602884 73.18683931 18 75 C17.34 75 16.68 75 16 75 C15.78384033 74.29093506 15.56768066 73.58187012 15.3449707 72.85131836 C10.53504427 56.9633824 10.53504427 56.9633824 5.375 41.1875 C3.35618122 35.20657769 1.51815932 29.18387153 -0.25 23.125 C-0.50861816 22.25641357 -0.76723633 21.38782715 -1.03369141 20.49291992 C-4.19751128 9.48075837 -4.19751128 9.48075837 -4 4 C-2.0625 1.4375 -2.0625 1.4375 0 0 Z " fill="#F7E3C7" transform="translate(155,272)"/>
<path d="M0 0 C0 13.53 0 27.06 0 41 C-7 41 -7 41 -8.96875 39.75 C-9.4740625 39.1725 -9.979375 38.595 -10.5 38 C-11.37011719 37.03707031 -11.37011719 37.03707031 -12.2578125 36.0546875 C-12.83273437 35.37664062 -13.40765625 34.69859375 -14 34 C-15.12461615 32.70799912 -16.24961953 31.41633519 -17.375 30.125 C-18.22384766 29.13886719 -18.22384766 29.13886719 -19.08984375 28.1328125 C-22.55922673 24.25902292 -26.28633589 20.63787505 -30 17 C-25.58761728 9.13444819 -18.45924 3.92819846 -10 1 C-6.40536639 0.05854834 -3.83348334 0 0 0 Z " fill="#86786E" transform="translate(325,67)"/>
<path d="M0 0 C0.33 0 0.66 0 1 0 C1.54947294 5.84732897 2.09881758 11.69466933 2.64575195 17.54223633 C2.78596669 19.0411787 2.9261849 20.54012075 3.06640625 22.0390625 C3.13930374 22.8184166 3.21220123 23.59777069 3.28730774 24.40074158 C3.7921244 29.79293758 4.30080658 35.18475927 4.81118774 40.57643127 C5.18057414 44.48298266 5.54802278 48.38971504 5.91516113 52.29647827 C6.09638275 54.22024196 6.27842722 56.14392832 6.46130371 58.0675354 C6.71984006 60.78831565 6.97546474 63.50935548 7.23046875 66.23046875 C7.308452 67.04377655 7.38643524 67.85708435 7.46678162 68.69503784 C7.53728226 69.45333893 7.6077829 70.21164001 7.68041992 70.99291992 C7.74243088 71.64918869 7.80444183 72.30545746 7.86833191 72.98161316 C8.02064824 75.31652424 8 77.66012606 8 80 C3.05 80 -1.9 80 -7 80 C-7.09056735 74.27516851 -6.75776093 68.74918085 -6.12890625 63.0625 C-5.30970232 55.27761134 -4.5973921 47.48976244 -3.96484375 39.6875 C-3.88013824 38.64835449 -3.79543274 37.60920898 -3.7081604 36.53857422 C-3.36083341 32.2629175 -3.01640719 27.98703585 -2.67456055 23.7109375 C-2.42002424 20.53621861 -2.161436 17.36184983 -1.90234375 14.1875 C-1.78825417 12.73766724 -1.78825417 12.73766724 -1.67185974 11.25854492 C-1.59830765 10.36240479 -1.52475555 9.46626465 -1.44897461 8.54296875 C-1.38616806 7.75946045 -1.32336151 6.97595215 -1.25865173 6.16870117 C-1.00520721 4.04366057 -0.5669307 2.06147287 0 0 Z " fill="#82746B" transform="translate(422,273)"/>
<path d="M0 0 C5.08824191 2.31283723 8.31772051 5.19403477 10.85546875 10.26953125 C11.41260007 16.2265507 11.37727061 21.22161524 7.85546875 26.26953125 C3.65205793 30.49591153 0.01601456 32.40770272 -5.95703125 32.58203125 C-10.84636413 32.50385878 -13.46976366 31.6879197 -17.14453125 28.26953125 C-21.00590668 23.73215906 -23.01003873 19.53314824 -22.625 13.5078125 C-21.45654763 8.06453439 -18.4840997 3.81044755 -13.83203125 0.76953125 C-8.87263198 -1.2478515 -5.02057489 -1.71010474 0 0 Z M-14.14453125 10.26953125 C-15.75892385 13.49831644 -15.72635845 16.77856807 -15.14453125 20.26953125 C-12.58748777 23.91138106 -10.92180416 25.04745327 -6.64453125 26.26953125 C-2.6634056 26.26953125 -1.17942689 25.79861095 1.85546875 23.26953125 C4.38454845 20.23463561 4.85546875 18.7506569 4.85546875 14.76953125 C3.63339077 10.49225834 2.49731856 8.82657473 -1.14453125 6.26953125 C-6.64238823 5.00335813 -10.18392893 6.18891067 -14.14453125 10.26953125 Z " fill="#3D322B" transform="translate(239.14453125,428.73046875)"/>
<path d="M0 0 C5.08824191 2.31283723 8.31772051 5.19403477 10.85546875 10.26953125 C11.3696854 15.35268932 11.66281364 20.53135438 9.35546875 25.20703125 C5.66517476 29.72764139 2.11017591 31.78232972 -3.67578125 32.6484375 C-7.84701438 32.84317881 -10.62286749 32.50575635 -14.45703125 30.76953125 C-19.05212691 26.49502366 -22.36893555 22.2124455 -22.76953125 15.76953125 C-22.44608502 10.70803479 -20.49701495 7.01991075 -17.14453125 3.26953125 C-12.08488867 -1.09011223 -6.25037712 -2.12899913 0 0 Z M-14.14453125 10.26953125 C-15.75892385 13.49831644 -15.72635845 16.77856807 -15.14453125 20.26953125 C-12.58748777 23.91138106 -10.92180416 25.04745327 -6.64453125 26.26953125 C-2.6634056 26.26953125 -1.17942689 25.79861095 1.85546875 23.26953125 C4.38454845 20.23463561 4.85546875 18.7506569 4.85546875 14.76953125 C3.63339077 10.49225834 2.49731856 8.82657473 -1.14453125 6.26953125 C-6.64238823 5.00335813 -10.18392893 6.18891067 -14.14453125 10.26953125 Z " fill="#3E322B" transform="translate(140.14453125,428.73046875)"/>
<path d="M0 0 C12.21 0 24.42 0 37 0 C37 4.62 37 9.24 37 14 C24.79 14 12.58 14 0 14 C0 9.38 0 4.76 0 0 Z " fill="#86786E" transform="translate(175,37)"/>
<path d="M0 0 C22.44 0 44.88 0 68 0 C68 4.95 68 9.9 68 15 C58.1 15 48.2 15 38 15 C38 10.38 38 5.76 38 1 C25.79 1 13.58 1 1 1 C1 5.62 1 10.24 1 15 C0.67 15 0.34 15 0 15 C0 10.05 0 5.1 0 0 Z " fill="#685A50" transform="translate(174,220)"/>
<path d="M0 0 C32.34 0 64.68 0 98 0 C95.46785353 5.06429295 92.54010024 7.99172815 87.33566284 10.05758667 C83.66429697 11.09484502 80.61338886 11.24061704 76.80126953 11.22705078 C76.10788986 11.22734283 75.41451019 11.22763489 74.70011902 11.22793579 C72.42755243 11.22655185 70.15532121 11.21103539 67.8828125 11.1953125 C66.2995522 11.19157903 64.71628957 11.18873364 63.13302612 11.18673706 C58.98032167 11.17912688 54.8277587 11.15950106 50.67510986 11.1373291 C46.43186354 11.11681414 42.1885942 11.10772329 37.9453125 11.09765625 C29.63014365 11.07625253 21.31508946 11.04214842 13 11 C13 10.67 13 10.34 13 10 C14.29623291 9.9906543 15.59246582 9.98130859 16.92797852 9.97167969 C21.75709856 9.93167712 26.58558842 9.8658894 31.41430664 9.79248047 C33.50048704 9.76433038 35.58677292 9.7430863 37.6730957 9.72900391 C40.67974615 9.70749198 43.68513641 9.66079876 46.69140625 9.609375 C47.61772354 9.60814636 48.54404083 9.60691772 49.49842834 9.60565186 C55.49999586 9.47123025 59.11029447 8.5540098 64 5 C64.99 3.68 65.98 2.36 67 1 C44.89 1.33 22.78 1.66 0 2 C0 1.34 0 0.68 0 0 Z " fill="#A4A93A" transform="translate(159,204)"/>
<path d="M0 0 C0.66 0 1.32 0 2 0 C3.26171875 1.7578125 3.26171875 1.7578125 4.6875 4.125 C7.88742764 9.10965387 11.63715735 13.31857867 17 16 C17 16.66 17 17.32 17 18 C15.2421875 19.26171875 15.2421875 19.26171875 12.875 20.6875 C7.89034613 23.88742764 3.68142133 27.63715735 1 33 C0.34 33 -0.32 33 -1 33 C-1.95938693 31.49705948 -2.84229624 29.94499493 -3.6875 28.375 C-6.52822968 23.43704027 -9.48502141 20.43138373 -14 17 C-12.83645528 13.50936584 -11.68569719 13.10907747 -8.6953125 11.23828125 C-4.75030881 8.35679238 -1.54241507 4.62724522 0 0 Z " fill="#D3DB55" transform="translate(107,331)"/>
<path d="M0 0 C34.32 0 68.64 0 104 0 C104 2.97 104 5.94 104 9 C69.68 9 35.36 9 0 9 C0 6.03 0 3.06 0 0 Z M1 1 C1 3.31 1 5.62 1 8 C24.76 8 48.52 8 73 8 C73 5.69 73 3.38 73 1 C49.24 1 25.48 1 1 1 Z " fill="#B6BE40" transform="translate(156,146)"/>
<path d="M0 0 C34.32 0 68.64 0 104 0 C104 2.97 104 5.94 104 9 C69.68 9 35.36 9 0 9 C0 6.03 0 3.06 0 0 Z M1 1 C1 3.31 1 5.62 1 8 C24.76 8 48.52 8 73 8 C73 5.69 73 3.38 73 1 C49.24 1 25.48 1 1 1 Z " fill="#B6BD41" transform="translate(156,73)"/>
<path d="M0 0 C4.62 0 9.24 0 14 0 C13.36529186 8.84319324 12.53822314 17.63316219 11.5 26.4375 C11.36980469 27.56865234 11.23960938 28.69980469 11.10546875 29.86523438 C10.51450293 34.93619863 9.86858269 39.96790533 9 45 C7.68 45 6.36 45 5 45 C3.33333333 30 1.66666667 15 0 0 Z " fill="#82756B" transform="translate(75,154)"/>
<path d="M0 0 C2.97 0 5.94 0 9 0 C9 13.53 9 27.06 9 41 C6.03 41 3.06 41 0 41 C0 27.47 0 13.94 0 0 Z " fill="#F0DBC0" transform="translate(425,67)"/>
<path d="M0 0 C2.97 0 5.94 0 9 0 C9 13.53 9 27.06 9 41 C6.03 41 3.06 41 0 41 C0 27.47 0 13.94 0 0 Z " fill="#F0DBC0" transform="translate(331,67)"/>
<path d="M0 0 C34.32 0 68.64 0 104 0 C104 2.97 104 5.94 104 9 C93.77 9 83.54 9 73 9 C73 6.36 73 3.72 73 1 C49.24 1 25.48 1 1 1 C1 3.64 1 6.28 1 9 C0.67 9 0.34 9 0 9 C0 6.03 0 3.06 0 0 Z " fill="#AFB63C" transform="translate(156,175)"/>
<path d="M0 0 C34.32 0 68.64 0 104 0 C104 2.97 104 5.94 104 9 C93.77 9 83.54 9 73 9 C73 6.36 73 3.72 73 1 C49.24 1 25.48 1 1 1 C1 3.64 1 6.28 1 9 C0.67 9 0.34 9 0 9 C0 6.03 0 3.06 0 0 Z " fill="#A7AC3A" transform="translate(156,131)"/>
<path d="M0 0 C0.33 0 0.66 0 1 0 C1 2.64 1 5.28 1 8 C24.76 8 48.52 8 73 8 C73 5.36 73 2.72 73 0 C83.23 0 93.46 0 104 0 C104 2.97 104 5.94 104 9 C69.68 9 35.36 9 0 9 C0 6.03 0 3.06 0 0 Z " fill="#AFB63C" transform="translate(156,117)"/>
<path d="M0 0 C34.32 0 68.64 0 104 0 C104 2.97 104 5.94 104 9 C94.1 9 84.2 9 74 9 C74 6.36 74 3.72 74 1 C49.91 1 25.82 1 1 1 C1 3.64 1 6.28 1 9 C0.67 9 0.34 9 0 9 C0 6.03 0 3.06 0 0 Z " fill="#B1B83D" transform="translate(156,102)"/>
<path d="M0 0 C10.23 0 20.46 0 31 0 C31 2.64 31 5.28 31 8 C29.03571633 9.96428367 26.01702837 9.12023917 23.40252686 9.12442017 C22.4523468 9.12082489 21.50216675 9.11722961 20.52319336 9.11352539 C19.03067802 9.11374443 19.03067802 9.11374443 17.50801086 9.1139679 C14.20193338 9.11326831 10.89591146 9.10547379 7.58984375 9.09765625 C5.30440807 9.09579223 3.01897199 9.09436825 0.73353577 9.09336853 C-5.29498387 9.08954207 -11.32347959 9.0797107 -17.35198975 9.06866455 C-23.49832841 9.05845317 -29.64467093 9.0538715 -35.79101562 9.04882812 C-47.86068762 9.03808854 -59.93034182 9.0210106 -72 9 C-72 8.67 -72 8.34 -72 8 C-48.24 8 -24.48 8 0 8 C0 5.36 0 2.72 0 0 Z " fill="#AFB63C" transform="translate(229,190)"/>
<path d="M0 0 C9.54474059 -0.0695871 19.08939351 -0.12285542 28.63433266 -0.15543652 C33.0666972 -0.17107579 37.49888786 -0.1922822 41.93115234 -0.22631836 C46.21054157 -0.25897398 50.4897638 -0.27686609 54.76926804 -0.28463173 C56.39991254 -0.29016412 58.03054817 -0.3009676 59.66112137 -0.31719017 C61.94957299 -0.33904734 64.23733928 -0.34196353 66.52587891 -0.34057617 C68.47779648 -0.35056892 68.47779648 -0.35056892 70.46914673 -0.36076355 C76.93077651 0.29945094 80.74623863 3.26009448 85 8 C85.495 8.99 85.495 8.99 86 10 C81.87449131 10.17445227 77.75044004 10.30070887 73.62207031 10.38452148 C72.22129884 10.41949242 70.82077858 10.46709032 69.42089844 10.52807617 C56.29766538 11.08501795 56.29766538 11.08501795 51.21875 6.53515625 C50.36700195 5.58394897 50.36700195 5.58394897 49.49804688 4.61352539 C47.53601231 2.50024533 45.76861288 2.05877265 42.93086243 1.84178162 C41.74172493 1.81846519 41.74172493 1.81846519 40.52856445 1.79467773 C39.17750359 1.7647599 39.17750359 1.7647599 37.79914856 1.73423767 C36.83031235 1.71752518 35.86147614 1.70081268 34.86328125 1.68359375 C33.86870407 1.66281265 32.87412689 1.64203156 31.84941101 1.62062073 C28.67051133 1.55520588 25.49152866 1.4962776 22.3125 1.4375 C20.15819452 1.39430712 18.00389746 1.35069258 15.84960938 1.30664062 C10.56649412 1.19953274 5.28329621 1.09775127 0 1 C0 0.67 0 0.34 0 0 Z " fill="#B5BD3B" transform="translate(171,57)"/>
<path d="M0 0 C9.9 0 19.8 0 30 0 C30 2.64 30 5.28 30 8 C20.1 8 10.2 8 0 8 C0 5.36 0 2.72 0 0 Z " fill="#B9C239" transform="translate(229,161)"/>
<path d="M0 0 C9.9 0 19.8 0 30 0 C30 2.64 30 5.28 30 8 C20.1 8 10.2 8 0 8 C0 5.36 0 2.72 0 0 Z " fill="#B9C239" transform="translate(229,88)"/>
<path d="M0 0 C0.721875 0.7425 1.44375 1.485 2.1875 2.25 C4.90711047 5.01267269 4.90711047 5.01267269 7.8125 7.1875 C8.534375 7.785625 9.25625 8.38375 10 9 C10 9.66 10 10.32 10 11 C8.28515625 12.4375 8.28515625 12.4375 6.0625 14 C3.01367363 16.04816804 3.01367363 16.04816804 1 19 C-3.02627499 17.65790834 -3.75169153 15.51298199 -6 12 C-6.97860413 10.97905242 -7.97411403 9.97342589 -9 9 C-8.51789062 8.60167969 -8.03578125 8.20335937 -7.5390625 7.79296875 C-6.90742187 7.26316406 -6.27578125 6.73335938 -5.625 6.1875 C-4.99851562 5.66542969 -4.37203125 5.14335937 -3.7265625 4.60546875 C-1.7778952 2.91774261 -1.7778952 2.91774261 0 0 Z " fill="#D1D955" transform="translate(64,364)"/>
<path d="M0 0 C3.33333333 3.33333333 6.66666667 6.66666667 10 10 C6.7 12.97 3.4 15.94 0 19 C-1.32 17.35 -2.64 15.7 -4 14 C-5.31494512 12.64852862 -6.64264858 11.30887458 -8 10 C-6.44303593 6.17836093 -3.96591316 3.81381505 -1 1 C-0.67 0.67 -0.34 0.34 0 0 Z " fill="#D1DA55" transform="translate(64,311)"/>
<path d="M0 0 C1.8125 1.125 1.8125 1.125 3 3 C3.39310741 6.14485925 3.47555213 8.13281671 1.9375 10.9375 C-1.21566824 12.66665678 -3.62508255 11.8590699 -7 11 C-9 8 -9 8 -8.8125 5.5 C-7.24981526 0.69173926 -5.06096263 -0.75914439 0 0 Z " fill="#443A31" transform="translate(187,352)"/>
<path d="M0 0 C7.27272727 -0.48484848 7.27272727 -0.48484848 10.25 1.5 C12.69466761 4.99238229 12.43798423 8.15772797 12.25 12.25 C12.23195313 12.99507812 12.21390625 13.74015625 12.1953125 14.5078125 C12.14835649 16.33909701 12.07661652 18.16971649 12 20 C9.07540176 16.31822423 6.71642444 12.34204479 4.3125 8.3125 C3.89677734 7.62349609 3.48105469 6.93449219 3.05273438 6.22460938 C0 1.12669335 0 1.12669335 0 0 Z " fill="#CED454" transform="translate(442,201)"/>
</svg>
