<?xml version="1.0" encoding="UTF-8"?>
<svg version="1.1" xmlns="http://www.w3.org/2000/svg" width="512" height="512">
<path d="M0 0 C1.00224609 -0.02449219 2.00449219 -0.04898437 3.03710938 -0.07421875 C10.36994435 -0.10356966 10.36994435 -0.10356966 13.62890625 2.1484375 C14.93530305 4.17744615 16.00361968 6.21067021 17.0625 8.375 C17.48378174 7.5228894 17.48378174 7.5228894 17.91357422 6.65356445 C20.10116559 2.98546977 21.67949415 0.73217056 25.93066406 -0.36572266 C29.37989324 -0.59426117 32.73347401 -0.5685934 36.1875 -0.4375 C37.36699219 -0.44330078 38.54648438 -0.44910156 39.76171875 -0.45507812 C46.23231149 -0.3409778 46.23231149 -0.3409778 49.0625 0.375 C51.31982422 2.80981445 51.31982422 2.80981445 53.0625 5.375 C54.04480498 6.3923873 55.03719597 7.40096117 56.0625 8.375 C56.51625 7.42625 56.97 6.4775 57.4375 5.5 C59.0625 2.375 59.0625 2.375 61.0625 0.375 C63.10508728 0.11430359 63.10508728 0.11430359 65.64819336 0.1003418 C66.59935532 0.09080978 67.55051727 0.08127777 68.53050232 0.07145691 C70.07581383 0.07282402 70.07581383 0.07282402 71.65234375 0.07421875 C72.70780899 0.06993362 73.76327423 0.0656485 74.85072327 0.06123352 C77.08594037 0.05548295 79.32117618 0.05499528 81.55639648 0.05932617 C84.98258305 0.06248395 88.4079048 0.03904294 91.83398438 0.01367188 C94.00260307 0.01139881 96.1712241 0.01069542 98.33984375 0.01171875 C99.36802719 0.002509 100.39621063 -0.00670074 101.45555115 -0.01618958 C102.88702232 -0.00684639 102.88702232 -0.00684639 104.34741211 0.00268555 C105.18743271 0.00205612 106.02745331 0.0014267 106.89292908 0.0007782 C109.61953963 0.47108184 110.35326965 1.23226976 112.0625 3.375 C112.43723011 5.32759285 112.43723011 5.32759285 112.4367218 7.58547974 C112.44373611 8.44325516 112.45075043 9.30103058 112.45797729 10.18479919 C112.45033356 11.12300003 112.44268982 12.06120087 112.43481445 13.02783203 C112.43846512 14.01843124 112.44211578 15.00903046 112.44587708 16.02964783 C112.45400172 19.31420894 112.44035052 22.59827943 112.42578125 25.8828125 C112.42526263 28.16624959 112.42578041 30.44968713 112.42729187 32.73312378 C112.42720204 37.52657715 112.41675606 42.3198627 112.39868164 47.11328125 C112.3760712 53.24314542 112.37543544 59.37276262 112.38219929 65.50265694 C112.38555065 70.2228513 112.37888592 74.94298991 112.36907005 79.66317368 C112.3652321 81.92209455 112.36406399 84.18102165 112.3656559 86.43994522 C112.36602901 89.6086824 112.35333516 92.7771103 112.3371582 95.94580078 C112.33963562 96.87185623 112.34211304 97.79791168 112.34466553 98.75202942 C112.25297835 110.07177948 109.60958288 119.72796252 102.23046875 128.5703125 C95.31875812 135.31022153 88.14953235 137.83148382 79.0625 142.375 C78.7325 156.235 78.4025 170.095 78.0625 184.375 C81.0325 185.035 84.0025 185.695 87.0625 186.375 C89.63793945 187.30126953 89.63793945 187.30126953 91.67578125 188.2578125 C92.44301514 188.61641357 93.21024902 188.97501465 94.00073242 189.34448242 C95.17599487 189.91646362 95.17599487 189.91646362 96.375 190.5 C97.61503784 191.09615112 97.61503784 191.09615112 98.88012695 191.7043457 C105.70154113 195.05483057 111.9313862 198.86877306 118.0625 203.375 C118.88878906 203.97957031 119.71507812 204.58414063 120.56640625 205.20703125 C122.413277 206.57853353 124.24557602 207.96421197 126.0625 209.375 C126.41683506 205.76917175 126.41683506 205.76917175 124.7421875 202.70703125 C124.14664063 202.20558594 123.55109375 201.70414063 122.9375 201.1875 C118.71780891 197.25199218 115.21349761 192.76984078 113.0625 187.375 C113.51964286 182.91785714 113.51964286 182.91785714 115.0625 181.375 C117.890625 181.01171875 117.890625 181.01171875 121.0625 181.375 C123.109375 183.45703125 123.109375 183.45703125 124.8125 186.1875 C125.38484375 187.08082031 125.9571875 187.97414062 126.546875 188.89453125 C127.04703125 189.71308594 127.5471875 190.53164062 128.0625 191.375 C129.78476496 194.62349977 129.78476496 194.62349977 133.0625 195.375 C134.0525 191.415 134.0525 191.415 135.0625 187.375 C134.155 186.67375 133.2475 185.9725 132.3125 185.25 C129.1967539 182.63010898 126.96201424 180.02206735 125.0625 176.375 C125.3125 173.5 125.3125 173.5 126.0625 171.375 C128.625 170.4375 128.625 170.4375 132.0625 170.375 C134.73881874 172.41562626 136.89807436 174.80714591 139.0625 177.375 C141.47054568 174.96695432 142.07018759 172.95296225 143.1875 169.75 C143.71730469 168.24566406 143.71730469 168.24566406 144.2578125 166.7109375 C144.52335938 165.94007813 144.78890625 165.16921875 145.0625 164.375 C144.17498047 164.17197266 144.17498047 164.17197266 143.26953125 163.96484375 C137.80518928 162.47618941 134.9791384 160.90967747 131.9375 156.09375 C129.82480124 151.94380602 129.59442168 147.9344296 130.0625 143.375 C131.92018147 138.11156918 134.63041742 135.54077327 139.0625 132.375 C141.25390625 131.73828125 141.25390625 131.73828125 143.0625 131.375 C142.629375 130.38757813 142.19625 129.40015625 141.75 128.3828125 C141.18730955 127.08862446 140.62481995 125.79434907 140.0625 124.5 C139.77632812 123.84902344 139.49015625 123.19804687 139.1953125 122.52734375 C137.0625 117.6015625 137.0625 117.6015625 137.0625 115.375 C136.47082031 115.22804688 135.87914062 115.08109375 135.26953125 114.9296875 C129.30482198 113.23660526 126.45007267 111.61033959 123.0625 106.375 C120.4308969 101.11179379 120.71051108 95.98753296 122.0625 90.375 C124.32120333 85.24423855 127.76429828 82.54760274 132.7301178 80.18616486 C136.99870741 78.70161834 141.22538756 78.85401809 145.70117188 78.92089844 C147.25374191 78.92002228 147.25374191 78.92002228 148.837677 78.91912842 C152.23588385 78.92190012 155.63319765 78.95294991 159.03125 78.984375 C161.39635743 78.99184061 163.76147107 78.99753203 166.12658691 79.00152588 C172.33436328 79.01675683 178.54176193 79.05601729 184.74938965 79.1003418 C191.09068696 79.141349 197.43204565 79.15954856 203.7734375 79.1796875 C216.20329043 79.22251357 228.63286374 79.29073452 241.0625 79.375 C240.7325 78.385 240.4025 77.395 240.0625 76.375 C239.5229263 70.00803036 240.43499649 65.69218755 244.0625 60.375 C247.38725306 57.05024694 250.46134773 55.34832067 255.0625 54.375 C261.34762694 54.55708737 267.06580679 56.11948368 273 58.0625 C281.04779639 60.60480034 289.13200499 62.57394454 297.375 64.375 C311.91251176 67.62699215 323.75241823 71.2164902 335.0625 81.375 C335.88363281 82.00277344 336.70476562 82.63054687 337.55078125 83.27734375 C340.29858829 85.5721686 342.39440323 88.01552562 344.625 90.8125 C345.36878906 91.73933594 346.11257813 92.66617188 346.87890625 93.62109375 C348.25776823 95.36008784 349.58663205 97.14103915 350.83984375 98.97265625 C355.10563437 103.58330868 360.00407015 105.55980413 366.25341797 105.88916016 C368.18699731 105.91662038 370.12093878 105.92401318 372.0546875 105.9140625 C373.08183868 105.92585541 374.10898987 105.93764832 375.16726685 105.94979858 C378.42416819 105.98490499 381.68042522 105.99421821 384.9375 106 C388.21580572 106.01632909 391.49382523 106.0382846 394.77200317 106.07162476 C396.80633128 106.09130151 398.84079138 106.10058462 400.87521362 106.09854126 C401.79021637 106.10550018 402.70521912 106.11245911 403.64794922 106.11962891 C404.85751785 106.12151718 404.85751785 106.12151718 406.09152222 106.1234436 C408.0625 106.375 408.0625 106.375 410.0625 108.375 C410.1875 111.5 410.1875 111.5 410.0625 114.375 C408.7425 114.705 407.4225 115.035 406.0625 115.375 C406.0625 141.115 406.0625 166.855 406.0625 193.375 C407.3825 193.705 408.7025 194.035 410.0625 194.375 C410.1875 197.25 410.1875 197.25 410.0625 200.375 C407.44596134 202.99153866 406.31656628 202.63058426 402.66992188 202.64624023 C401.54114624 202.65642685 400.41237061 202.66661346 399.24938965 202.67710876 C398.02240356 202.67924881 396.79541748 202.68138885 395.53125 202.68359375 C392.94010209 202.70877132 390.34895631 202.73416907 387.7578125 202.75976562 C383.66767411 202.79044224 379.57751346 202.8126232 375.48730469 202.83129883 C371.54344474 202.85039008 367.59994226 202.89253058 363.65625 202.93359375 C362.44545776 202.93370956 361.23466553 202.93382538 359.98718262 202.9339447 C350.59726303 203.04248092 342.77677649 204.65459671 334.4375 209.0625 C333.59960938 209.49949219 332.76171875 209.93648437 331.8984375 210.38671875 C331.29257812 210.71285156 330.68671875 211.03898438 330.0625 211.375 C330.33924561 211.98794922 330.61599121 212.60089844 330.90112305 213.23242188 C336.37972556 225.42787087 341.5047524 237.47348369 345.0625 250.375 C350.03236574 246.97329578 354.39163593 243.93930014 357.0625 238.375 C357.77804346 234.01018491 357.9477788 231.82938661 355.640625 228.0390625 C354.53245727 226.5089777 353.37993751 225.00975182 352.1796875 223.55078125 C351.0625 221.375 351.0625 221.375 351.7734375 218.67578125 C353.0625 216.375 353.0625 216.375 354.8125 215.25 C357.81545076 215.4168306 359.43813669 216.73250768 361.6015625 218.7421875 C366.64863806 224.38303666 367.73811762 230.00651179 367.4375 237.484375 C366.36615672 245.74264615 361.27999116 251.16107421 355.0625 256.375 C352.77348532 257.90963131 350.53412041 259.13918979 348.0625 260.375 C348.0625 264.995 348.0625 269.615 348.0625 274.375 C354.73136169 270.68009015 359.46581027 267.41636365 364.0625 261.375 C366.125 258.875 366.125 258.875 368.0625 257.375 C372.3625 257.675 372.3625 257.675 374.0625 259.375 C374.29254089 264.78096102 372.58750858 267.37207198 369.0625 271.4375 C364.06621845 276.66413475 358.75521877 280.94058261 351.9777832 283.57324219 C348.81706969 285.07727977 348.81706969 285.07727977 348.26123047 288.12036133 C348.23432129 289.2214624 348.20741211 290.32256348 348.1796875 291.45703125 C348.12973633 292.6881665 348.07978516 293.91930176 348.02832031 295.18774414 C348.01401978 295.84001984 347.99971924 296.49229553 347.98498535 297.16433716 C347.90465842 300.58674954 347.71904021 304.00348521 347.5390625 307.421875 C347.50478149 308.10548599 347.47050049 308.78909698 347.43518066 309.49342346 C346.55671882 325.75410799 343.40909013 345.68181974 336.0625 360.375 C336.99521729 360.35405273 337.92793457 360.33310547 338.88891602 360.31152344 C342.37599726 360.24302604 345.86235541 360.19304554 349.34985352 360.15527344 C350.85420062 360.13525637 352.35847089 360.10803373 353.86254883 360.07324219 C356.03486162 360.02428055 358.20613906 360.00193347 360.37890625 359.984375 C361.68287354 359.96342773 362.98684082 359.94248047 364.33032227 359.92089844 C369.34285109 360.53078289 373.3219929 362.259346 376.62109375 366.26953125 C379.23759779 371.97932452 380.13991112 376.38219134 377.9375 382.5 C375.14234174 386.78590933 372.01474283 389.72425239 367.0625 391.375 C364.78006991 391.47911954 362.49468883 391.5215016 360.20991516 391.53321838 C359.50906443 391.53815636 358.8082137 391.54309434 358.08612508 391.54818195 C355.7323052 391.56356816 353.37851262 391.5719206 351.0246582 391.58032227 C349.33950561 391.58989991 347.65435542 391.59990992 345.96920776 391.61032104 C341.38896836 391.63738851 336.80871864 391.65838811 332.22844338 391.67832303 C327.44379555 391.70017122 322.65917961 391.72756562 317.8745575 391.75437927 C308.81172881 391.80432195 299.74888243 391.84925494 290.68601912 391.89240164 C280.36931706 391.94176055 270.05264699 391.99668367 259.73597586 392.05208123 C238.51151371 392.16592546 217.28702101 392.27275919 196.0625 392.375 C196.79076241 393.1944812 196.79076241 393.1944812 197.53373718 394.03051758 C198.4851635 395.10789185 198.4851635 395.10789185 199.45581055 396.20703125 C200.08569382 396.91835205 200.71557709 397.62967285 201.36454773 398.36254883 C210.03314459 408.63676455 211.0755904 421.52542298 210.0625 434.375 C208.05673673 443.52704559 202.36455745 450.17394866 194.9375 455.625 C187.65460878 460.16127184 178.65827638 463.59255439 170.00390625 462.0625 C166.07242137 460.6702639 162.94904122 458.14808244 161.0625 454.375 C160.33669001 449.34945489 160.17936318 444.7382143 163.25 440.5 C167.07766241 436.58032648 171.94474518 435.56642332 177.13671875 434.296875 C180.0621498 433.37511034 181.34532816 432.87970238 183.0625 430.375 C184.27036469 424.85799642 182.98433946 419.98101088 180.265625 415.15625 C173.58238098 405.26157704 161.47823774 398.96948585 150.0625 396.375 C149.66160156 396.90867187 149.26070312 397.44234375 148.84765625 397.9921875 C137.79655844 412.47639279 125.38270451 424.48801639 110.0625 434.375 C109.10730469 434.99246094 108.15210938 435.60992187 107.16796875 436.24609375 C76.77757215 454.9126985 39.09908656 459.55427786 4.56103516 451.85327148 C-31.30812068 443.19266135 -62.67243898 420.8674149 -82.12744141 389.45361328 C-100.61756133 359.04647241 -107.78949563 320.81038238 -99.70336914 285.82226562 C-99.1536796 283.65995097 -98.55841066 281.51783055 -97.9375 279.375 C-97.75558105 278.71628906 -97.57366211 278.05757813 -97.38623047 277.37890625 C-87.86049497 243.53232508 -65.08222211 214.69851532 -35.046875 196.63671875 C-33.02701932 195.50928358 -30.99480573 194.43123313 -28.9375 193.375 C-30.84117564 186.70220223 -33.03789556 180.23222634 -35.58984375 173.78125 C-35.93124893 172.90907837 -36.27265411 172.03690674 -36.62440491 171.13830566 C-37.7042346 168.38240087 -38.78954443 165.62869308 -39.875 162.875 C-40.59866356 161.03008762 -41.32197358 159.18503653 -42.04492188 157.33984375 C-43.38192272 153.93080716 -44.72012242 150.52225383 -46.06225586 147.11523438 C-46.36493378 146.3446167 -46.66761169 145.57399902 -46.97946167 144.7800293 C-47.66139454 143.06812647 -48.35735474 141.36178291 -49.06277466 139.65942383 C-49.42950287 138.76956787 -49.79623108 137.87971191 -50.17407227 136.96289062 C-50.51116714 136.15613892 -50.84826202 135.34938721 -51.1955719 134.51818848 C-51.9375 132.375 -51.9375 132.375 -51.9375 129.375 C-52.7728125 129.26285156 -52.7728125 129.26285156 -53.625 129.1484375 C-61.52633992 127.78705799 -67.13194238 124.31920368 -71.8125 117.75 C-75.37565133 111.43295543 -76.64988262 103.83680783 -75.4375 96.6875 C-73.37487854 89.44861831 -69.01269719 83.3156067 -62.63671875 79.3046875 C-55.86314619 75.59868688 -47.81711744 75.00098291 -40.37109375 77.09765625 C-32.25330856 80.4903685 -27.67605518 85.07945855 -23.91796875 92.97265625 C-20.64680915 100.9876489 -22.04146723 107.52382859 -24.9375 115.375 C-25.36385742 116.18670654 -25.79021484 116.99841309 -26.22949219 117.8347168 C-27.32119789 123.29362178 -25.18312794 127.28303675 -23.1171875 132.328125 C-22.70211945 133.38352478 -22.28705139 134.43892456 -21.85940552 135.52630615 C-20.52794391 138.89979067 -19.17070832 142.26220711 -17.8125 145.625 C-16.92015742 147.87301689 -16.02951334 150.12170878 -15.140625 152.37109375 C-13.49332857 156.53062176 -11.83717309 160.68632522 -10.16748047 164.83691406 C-9.79749939 165.75927856 -9.42751831 166.68164307 -9.04632568 167.63195801 C-8.29362941 169.49399776 -7.53144918 171.35222631 -6.76080322 173.20690918 C-6.39388367 174.09736938 -6.02696411 174.98782959 -5.64892578 175.90527344 C-5.31933868 176.69496521 -4.98975159 177.48465698 -4.650177 178.29827881 C-3.9375 180.375 -3.9375 180.375 -3.9375 183.375 C-3.41542969 183.18164062 -2.89335938 182.98828125 -2.35546875 182.7890625 C4.93248888 180.21083581 12.3013294 178.375 20.0625 178.375 C19.7325 166.495 19.4025 154.615 19.0625 142.375 C13.78892321 139.99932689 13.78892321 139.99932689 8.50366211 137.64990234 C1.09504727 134.23791184 -4.41356041 129.93470581 -8.75 122.9375 C-9.59498047 121.60912109 -9.59498047 121.60912109 -10.45703125 120.25390625 C-13.97030717 113.42202142 -14.23121154 107.247068 -14.2121582 99.69799805 C-14.21726913 98.64680283 -14.22238007 97.5956076 -14.22764587 96.51255798 C-14.2414957 93.05388632 -14.24058953 89.59541476 -14.23828125 86.13671875 C-14.24216872 83.73012722 -14.24650349 81.32353637 -14.25126648 78.91694641 C-14.25871728 73.88267792 -14.25844418 68.84847958 -14.25317383 63.81420898 C-14.24735939 57.34967266 -14.2643634 50.88542101 -14.2875185 44.42093182 C-14.30221113 39.45655121 -14.30313402 34.49224006 -14.30000877 29.52784157 C-14.30052354 27.14310959 -14.30579016 24.75837388 -14.31582069 22.37366295 C-14.32809053 19.05059296 -14.32145201 15.72808949 -14.30981445 12.4050293 C-14.31745819 11.4133374 -14.32510193 10.42164551 -14.33297729 9.39990234 C-14.32596298 8.4985405 -14.31894867 7.59717865 -14.3117218 6.66850281 C-14.31188954 5.88300899 -14.31205729 5.09751516 -14.31223011 4.2882185 C-14.12673871 3.34117534 -14.12673871 3.34117534 -13.9375 2.375 C-9.478244 -0.59783733 -5.24661565 0.00672212 0 0 Z " fill="#3D332C" transform="translate(101.9375,24.625)"/>
<path d="M0 0 C3.3 0 6.6 0 10 0 C9.67 0.99 9.34 1.98 9 3 C8.16668317 9.03559472 8.96553805 13.35775178 12.53125 18.33984375 C16.96188828 23.34787904 22.5225049 23.45953033 28.8046875 23.88671875 C29.52914062 23.92410156 30.25359375 23.96148437 31 24 C30.76603516 24.85851562 30.76603516 24.85851562 30.52734375 25.734375 C29.42854724 30.45513036 28.89156119 34.88060723 31.19921875 39.29296875 C33.78097384 42.86320437 35.87736264 45.30348227 40 47 C42.52924187 47.30878547 42.52924187 47.30878547 45.3024292 47.2784729 C46.37652542 47.28963638 47.45062164 47.30079987 48.55726624 47.31230164 C50.31701027 47.31554192 50.31701027 47.31554192 52.11230469 47.31884766 C53.35159225 47.32889328 54.59087982 47.3389389 55.86772156 47.34928894 C59.26204106 47.37487977 62.65619345 47.39173554 66.05057049 47.40471697 C69.59937483 47.42035143 73.14809451 47.44714064 76.69683838 47.4727478 C83.41508231 47.51953003 90.13334218 47.5562768 96.85166574 47.58942068 C104.5010002 47.62764601 112.15024962 47.67705508 119.79951239 47.72740483 C135.53294678 47.8307164 151.26642887 47.91997929 167 48 C168.60758882 51.6528876 170.20863435 55.3086088 171.80859375 58.96484375 C172.25988647 59.99009155 172.7111792 61.01533936 173.17614746 62.07165527 C177.40398727 71.74879659 181.46666537 81.48796359 183 92 C169.21875567 96.79594885 155.48709981 98.63110288 141 100 C140.08524902 100.09571289 139.17049805 100.19142578 138.22802734 100.29003906 C128.91135724 101.19087114 119.60182064 101.23774392 110.25 101.25 C109.36257111 101.25266876 108.47514221 101.25533752 107.56082153 101.25808716 C89.66486806 101.28329077 71.87111324 100.26349962 54.02636719 98.97949219 C53.02841629 98.90878006 52.03046539 98.83806793 51.00227356 98.76521301 C49.12076026 98.63028326 47.23961265 98.49012376 45.3589325 98.34403992 C43.24177663 98.19011159 41.12087376 98.08909202 39 98 C37.70366379 99.06645115 37.70366379 99.06645115 37.9375 101.5625 C37.958125 102.366875 37.97875 103.17125 38 104 C40.9623922 105.4811961 44.07851485 105.48074707 47.3359375 105.75390625 C48.10155502 105.81935135 48.86717255 105.88479645 49.6559906 105.95222473 C92.71323184 109.51971239 138.14362032 112.07854166 180.17602539 100.41137695 C182 100 182 100 185 100 C185.74258797 103.62011635 186.05815773 107.03966067 186.03125 110.72265625 C186.02673828 111.52582275 186.02222656 112.32898926 186.01757812 113.15649414 C186.00887695 114.06902954 186.00887695 114.06902954 186 115 C168.97840943 118.97556424 152.46936941 121.29228567 135 122 C134.957279 123.66611905 134.95936168 125.33382885 135 127 C136.78710294 128.78710294 139.19295554 128.16582661 141.57397461 128.19018555 C154.87018514 128.17507778 168.16879424 127.62113234 180.93359375 123.5859375 C183 123 183 123 186 123 C187.25886227 147.29137941 181.44883134 172.357132 173 195 C172 196 172 196 169.40940762 196.12304783 C168.24518308 196.12212604 167.08095854 196.12120424 165.88145447 196.12025452 C165.23539877 196.12110894 164.58934307 196.12196337 163.92370993 196.12284368 C161.74330183 196.12450024 159.56296945 196.11897429 157.38256836 196.11352539 C155.82579042 196.11324353 154.26901236 196.11340123 152.7122345 196.1139679 C148.47274796 196.11425592 144.23328946 196.10835846 139.99380946 196.10139394 C135.5681858 196.09516115 131.14256157 196.09455666 126.7169342 196.09336853 C118.33046022 196.09025499 109.9439992 196.0820413 101.55753094 196.07201904 C92.01234651 196.0608586 82.46716148 196.05534763 72.92197216 196.05032361 C53.28130752 196.03985871 33.64065458 196.02225883 14 196 C14.57905118 191.16442559 15.24229892 186.59137905 16.5 181.875 C24.95186896 150.01145402 18.53930958 112.2843124 2.38671875 83.9375 C-4.40293494 72.51764464 -12.5427823 62.3386319 -22 53 C-21.25 50.0625 -21.25 50.0625 -20 47 C-18.2265625 46.16796875 -18.2265625 46.16796875 -16 46 C-13.6953125 46.890625 -13.6953125 46.890625 -11.125 48.25 C-0.06128179 53.52473418 10.9200942 54.49568003 23 54 C23.042721 52.33388095 23.04063832 50.66617115 23 49 C21.17241615 47.17241615 18.57272238 47.62193918 16.12036133 47.40478516 C4.77180707 46.39121634 -5.26685574 44.19381907 -15 38 C-13.8905928 34.51329166 -12.73662334 31.22515763 -11 28 C-7.73064562 28.52731522 -4.78361419 29.42690102 -1.6875 30.5625 C2.73074561 32.08961174 6.35033171 32.25361827 11 32 C11.5534764 29.92446352 12 28.15634036 12 26 C11.29875 25.90203125 10.5975 25.8040625 9.875 25.703125 C8.92625 25.55359375 7.9775 25.4040625 7 25.25 C5.6078125 25.04117188 5.6078125 25.04117188 4.1875 24.828125 C1 24 1 24 -7 20 C-4.69 13.4 -2.38 6.8 0 0 Z " fill="#BB8253" transform="translate(256,189)"/>
<path d="M0 0 C3.24705368 0.79755182 6.43100472 1.76335225 9.625 2.75 C17.33968392 5.06253352 25.04453391 6.90813583 32.9375 8.5 C46.50305987 11.3227281 57.63492824 15.43224146 68 25 C68.69609375 25.639375 69.3921875 26.27875 70.109375 26.9375 C73.77267225 30.45880899 76.95848079 34.165978 80.0625 38.1875 C84.78094682 44.19867198 89.46543876 48.03515682 97 50 C100.54774314 50.32235158 104.08762267 50.37203731 107.6484375 50.4140625 C108.54667236 50.43170654 109.44490723 50.44935059 110.37036133 50.4675293 C113.70506343 50.5302889 117.0400573 50.57668741 120.375 50.625 C127.84125 50.74875 135.3075 50.8725 143 51 C143 76.74 143 102.48 143 129 C115.3125 129.25 115.3125 129.25 106.65356445 129.29785156 C104.3484502 129.32725938 102.04335351 129.35809188 99.73828125 129.390625 C97.99194397 129.39231689 97.99194397 129.39231689 96.21032715 129.39404297 C87.89083231 129.53671756 80.81033656 131.17247086 73 134 C72.28676575 134.25591415 71.57353149 134.51182831 70.83868408 134.77549744 C69.19505317 135.38683985 67.5652901 136.03514923 65.9375 136.6875 C60.71050302 138.77442216 56.52092146 140.12031394 50.87634277 140.14717102 C49.84168381 140.15432632 48.80702484 140.16148163 47.74101257 140.16885376 C46.61153702 140.17154266 45.48206146 140.17423157 44.31835938 140.17700195 C43.12451126 140.18357315 41.93066315 140.19014435 40.70063782 140.19691467 C36.74834835 140.21663388 32.79607217 140.22830721 28.84375 140.23828125 C27.48178589 140.24233015 26.11982198 140.24644712 24.75785828 140.25063133 C18.3623824 140.26966505 11.96691797 140.28390339 5.57141924 140.2922433 C-1.80966167 140.30202812 -9.1904437 140.32838726 -16.57141924 140.36874419 C-22.27937339 140.39888308 -27.98724169 140.41370979 -33.69527388 140.41702431 C-37.10373181 140.41937615 -40.51186975 140.42835408 -43.92024231 140.45348549 C-47.71986033 140.47771222 -51.51868853 140.47694211 -55.31835938 140.4699707 C-57.01257271 140.48918579 -57.01257271 140.48918579 -58.74101257 140.50878906 C-60.29300102 140.49837334 -60.29300102 140.49837334 -61.87634277 140.48774719 C-62.77450462 140.49013555 -63.67266647 140.4925239 -64.59804535 140.49498463 C-67.80479211 139.83415186 -68.97973743 138.52722269 -71 136 C-72.0625 132.5625 -72.0625 132.5625 -72 129 C-70.34166012 126.44003844 -69.59011893 125.43352361 -67 124 C-62.90581137 123.24032103 -58.85408919 123.2788265 -54.69921875 123.29296875 C-53.50770706 123.27784744 -52.31619537 123.26272614 -51.08857727 123.24714661 C-47.28802662 123.20420579 -43.48826927 123.19542477 -39.6875 123.1875 C-37.10870277 123.16436089 -34.52992448 123.13899679 -31.95117188 123.11132812 C-25.63410711 123.0484123 -19.31735316 123.01352896 -13 123 C-12.34 121.02 -11.68 119.04 -11 117 C-11.94103073 116.99635437 -12.88206146 116.99270874 -13.85160828 116.98895264 C-22.72409175 116.95199603 -31.59622836 116.89421626 -40.46844769 116.81609726 C-45.02967954 116.77660402 -49.59071781 116.74442468 -54.15209961 116.72900391 C-58.55491651 116.71384937 -62.95720127 116.67942558 -67.35978127 116.63169098 C-69.03862696 116.6168647 -70.71754863 116.60895827 -72.39645958 116.60811615 C-74.75015227 116.60574839 -77.10237203 116.5786869 -79.45581055 116.54589844 C-80.49483017 116.55344398 -80.49483017 116.55344398 -81.55484009 116.56114197 C-86.2703593 116.45963933 -88.73565727 115.39808731 -92 112 C-93.0625 108.5625 -93.0625 108.5625 -93 105 C-91.45951843 102.31756592 -91.45951843 102.31756592 -89 100 C-86.32040282 99.4955073 -84.26316348 99.31713893 -81.58520508 99.35644531 C-80.8449559 99.3475679 -80.10470673 99.33869049 -79.34202576 99.32954407 C-76.90073637 99.30588443 -74.460889 99.31704521 -72.01953125 99.328125 C-70.32368912 99.31754773 -68.62786007 99.30463725 -66.93205261 99.28948975 C-62.47223289 99.25527109 -58.01285061 99.24990789 -53.55291748 99.25140381 C-47.25546458 99.24817787 -40.95813351 99.20557351 -34.66081238 99.16766357 C-31.3065161 99.14758794 -27.95245265 99.13831316 -24.59809875 99.13751221 C-23.07426955 99.13369351 -21.5504404 99.12984969 -20.02661133 99.12597656 C-19.32583466 99.12807632 -18.62505798 99.13017609 -17.90304565 99.13233948 C-14.6722707 99.39397993 -14.6722707 99.39397993 -12 98 C-11.83333333 95.5 -11.83333333 95.5 -12 93 C-13.54832324 91.45167676 -14.99966364 91.87216001 -17.1554718 91.86869812 C-18.49933456 91.86268585 -18.49933456 91.86268585 -19.87034607 91.85655212 C-20.86099564 91.85708084 -21.8516452 91.85760956 -22.87231445 91.8581543 C-24.42834381 91.85294266 -24.42834381 91.85294266 -26.01580811 91.84762573 C-28.27701082 91.84025319 -30.53822085 91.83491583 -32.79943275 91.83133507 C-36.37539739 91.82419456 -39.95122279 91.80854632 -43.52714539 91.78999329 C-53.6973581 91.73740895 -63.86749607 91.68952921 -74.0378418 91.67407227 C-80.25070759 91.66400866 -86.46322604 91.6347231 -92.67595482 91.59275246 C-95.04783695 91.58041227 -97.4197681 91.57532667 -99.79168129 91.57755089 C-103.10800037 91.57989535 -106.42331789 91.55780083 -109.73950195 91.5300293 C-111.21636726 91.53993141 -111.21636726 91.53993141 -112.72306824 91.55003357 C-119.34243761 91.45877869 -119.34243761 91.45877869 -122.60612488 89.18171692 C-124.69578556 85.91094467 -124.5993793 83.79606891 -124 80 C-121.97733644 77.13265498 -120.37131131 75.29514248 -116.8475399 74.53673363 C-114.12118507 74.34273432 -111.43514901 74.316351 -108.7019043 74.34057617 C-107.66729568 74.33009247 -106.63268707 74.31960876 -105.56672668 74.30880737 C-102.15225289 74.28004162 -98.7387921 74.28635107 -95.32421875 74.29296875 C-92.95480579 74.27985473 -90.58540401 74.26455142 -88.21601868 74.24714661 C-81.98365395 74.20724971 -75.75158137 74.19710306 -69.519104 74.19311523 C-63.15782787 74.18379275 -56.79672403 74.14638468 -50.43554688 74.11132812 C-37.95703933 74.04670428 -25.47866023 74.01350344 -13 74 C-12.61781233 72.34385343 -12.28604898 70.67542976 -12 69 C-13.88508759 67.11491241 -17.15313405 67.86504917 -19.65942383 67.8581543 C-20.35540176 67.85467987 -21.0513797 67.85120544 -21.76844788 67.84762573 C-23.28481555 67.84025632 -24.8011941 67.83491728 -26.31757545 67.83133507 C-28.7173965 67.82418788 -31.11701088 67.80853426 -33.51676941 67.78999329 C-40.34163557 67.73744453 -47.16639103 67.68954677 -53.99145508 67.67407227 C-58.16198478 67.66399475 -62.33199895 67.63467396 -66.50232506 67.59275246 C-68.09268991 67.58043105 -69.68312757 67.57532329 -71.27353859 67.57755089 C-73.50038307 67.57990201 -75.72574796 67.55775423 -77.95239258 67.5300293 C-79.21956619 67.52416306 -80.48673981 67.51829681 -81.79231262 67.51225281 C-85.5772732 66.90781215 -86.73550698 66.03855661 -89 63 C-90.0625 59.5625 -90.0625 59.5625 -90 56 C-88.01571524 53.20486118 -86.42223275 51.31727719 -82.97455025 50.54815483 C-80.4499495 50.37153864 -77.97021993 50.36205253 -75.43969727 50.40405273 C-74.4830014 50.3999942 -73.52630554 50.39593567 -72.5406189 50.39175415 C-70.46719413 50.38624119 -68.39371388 50.39223338 -66.32034492 50.40841484 C-63.03721545 50.43381963 -59.75534244 50.42904138 -56.47215271 50.41651917 C-49.50213054 50.39576471 -42.5324966 50.41545821 -35.5625 50.4375 C-27.48839233 50.45860442 -19.41468862 50.46316908 -11.34058952 50.43699837 C-8.10865375 50.43363768 -4.87748946 50.45486062 -1.64564514 50.47740173 C0.33967252 50.47489014 2.32498923 50.47132979 4.31030273 50.46655273 C5.20659897 50.47943832 6.1028952 50.49232391 7.02635193 50.50559998 C12.65242728 50.46049137 15.6616505 49.6453388 20 46 C22.58536545 42.59201828 22.43781946 39.1592849 22 35 C18.88752727 29.82612518 14.86404998 28.2794044 9.5 26.125 C-10.11027275 17.83459087 -10.11027275 17.83459087 -14 12 C-14.54799548 7.14632577 -14.68909423 5.08921345 -12.0625 0.9375 C-7.77381557 -1.77574933 -4.84771274 -0.89656316 0 0 Z " fill="#F6B5AC" transform="translate(365,89)"/>
<path d="M0 0 C0.74258797 3.62011635 1.05815773 7.03966067 1.03125 10.72265625 C1.02673828 11.52582275 1.02222656 12.32898926 1.01757812 13.15649414 C1.00887695 14.06902954 1.00887695 14.06902954 1 15 C-16.02159057 18.97556424 -32.53063059 21.29228567 -50 22 C-50.042721 23.66611905 -50.04063832 25.33382885 -50 27 C-48.21289706 28.78710294 -45.80704446 28.16582661 -43.42602539 28.19018555 C-30.12981486 28.17507778 -16.83120576 27.62113234 -4.06640625 23.5859375 C-2 23 -2 23 1 23 C2.25886227 47.29137941 -3.55116866 72.357132 -12 95 C-13 96 -13 96 -15.59059238 96.12304783 C-16.75481692 96.12212604 -17.91904146 96.12120424 -19.11854553 96.12025452 C-19.76460123 96.12110894 -20.41065693 96.12196337 -21.07629007 96.12284368 C-23.25669817 96.12450024 -25.43703055 96.11897429 -27.61743164 96.11352539 C-29.17420958 96.11324353 -30.73098764 96.11340123 -32.2877655 96.1139679 C-36.52725204 96.11425592 -40.76671054 96.10835846 -45.00619054 96.10139394 C-49.4318142 96.09516115 -53.85743843 96.09455666 -58.2830658 96.09336853 C-66.66953978 96.09025499 -75.0560008 96.0820413 -83.44246906 96.07201904 C-92.98765349 96.0608586 -102.53283852 96.05534763 -112.07802784 96.05032361 C-131.71869248 96.03985871 -151.35934542 96.02225883 -171 96 C-170.42094882 91.16442559 -169.75770108 86.59137905 -168.5 81.875 C-166.82800559 75.57158107 -165.88577593 69.59790876 -165.68359375 63.0703125 C-165.64169922 61.78125 -165.59980469 60.4921875 -165.55664062 59.1640625 C-165.51683972 57.81771091 -165.47712727 56.47135671 -165.4375 55.125 C-165.39424817 53.75519667 -165.35063188 52.38540479 -165.30664062 51.015625 C-165.20084478 47.67717843 -165.09875628 44.338661 -165 41 C-164.67 41 -164.34 41 -164 41 C-164 47.6 -164 54.2 -164 61 C-133.98322135 57.79950341 -101.73790479 53.67426634 -81 29 C-76.48910395 22.66537038 -76.48910395 22.66537038 -73.14916992 15.69189453 C-72.0246106 12.983157 -71.04148242 11.1184474 -69 9 C-64.55854929 7.61812815 -60.18786421 7.65647314 -55.5625 7.625 C-52.93597801 7.52653405 -50.30966588 7.42231108 -47.68359375 7.3125 C-46.38276855 7.26738281 -45.08194336 7.22226562 -43.74169922 7.17578125 C-38.49324135 6.929214 -33.32610977 6.35428806 -28.125 5.625 C-26.80000488 5.43997925 -26.80000488 5.43997925 -25.44824219 5.2512207 C-18.74573956 4.24533889 -12.29405912 2.69801311 -5.80078125 0.76953125 C-3 0 -3 0 0 0 Z " fill="#AC774F" transform="translate(441,289)"/>
<path d="M0 0 C1.04929687 0.06316406 2.09859375 0.12632812 3.1796875 0.19140625 C5.01660156 0.28808594 5.01660156 0.28808594 6.890625 0.38671875 C8.27895101 0.50560298 9.66696177 0.62820874 11.0546875 0.75390625 C11.8168457 0.81288086 12.57900391 0.87185547 13.36425781 0.93261719 C62.12030485 4.73460389 106.12345088 21.06837192 142.0546875 54.75390625 C142.54839844 55.21361816 143.04210937 55.67333008 143.55078125 56.14697266 C152.84600045 64.87138195 160.6299184 74.40651793 168.0546875 84.75390625 C168.4990918 85.36959473 168.94349609 85.9852832 169.40136719 86.61962891 C203.77502791 134.74539601 203.77502791 134.74539601 202.9296875 155.87890625 C201.92324436 159.18579085 200.53869873 160.4295102 198.0546875 162.75390625 C197.72895752 162.12637451 197.40322754 161.49884277 197.06762695 160.85229492 C182.31085232 132.59228642 164.13532686 104.09186934 139.0546875 83.75390625 C137.96729349 82.84263216 136.88007013 81.93115442 135.79296875 81.01953125 C115.14977287 63.90199554 91.40007101 51.38315222 66.0546875 42.75390625 C65.24741211 42.47708008 64.44013672 42.20025391 63.60839844 41.91503906 C35.12789644 32.32903169 5.88905158 29.70409444 -23.9453125 28.75390625 C-23.17833454 27.3351486 -22.40654472 25.91899173 -21.6328125 24.50390625 C-20.98892578 23.32054687 -20.98892578 23.32054687 -20.33203125 22.11328125 C-18.98762683 19.82590021 -17.70042567 17.74600738 -15.9453125 15.75390625 C8.69102753 11.85264043 39.78776319 19.51721193 63.0546875 27.75390625 C63.83215332 28.02154785 64.60961914 28.28918945 65.41064453 28.56494141 C90.97326341 37.43646757 114.56439408 50.25193421 134.3359375 68.90625 C135.026875 69.55722656 135.7178125 70.20820313 136.4296875 70.87890625 C137.30753906 71.74902344 137.30753906 71.74902344 138.203125 72.63671875 C140.08849615 74.03233849 140.08849615 74.03233849 142.78125 73.43359375 C143.53148437 73.20929688 144.28171875 72.985 145.0546875 72.75390625 C144.53610498 66.46327483 140.09606824 63.62021477 135.62890625 59.72265625 C94.66307089 25.2394013 43.65781263 11.22131482 -8.9453125 7.75390625 C-4.0737319 1.0427457 -4.0737319 1.0427457 0 0 Z " fill="#E57089" transform="translate(48.9453125,248.24609375)"/>
<path d="M0 0 C4.62 0 9.24 0 14 0 C17.465 6.435 17.465 6.435 21 13 C22.65 13 24.3 13 26 13 C28.31 8.71 30.62 4.42 33 0 C45.42342177 -1.68862043 45.42342177 -1.68862043 51 0 C54.54351472 2.87891161 56.33818677 6.79326918 58.2734375 10.83984375 C59.64037851 14.1198445 59.64037851 14.1198445 62.2265625 14.94140625 C62.81179687 14.96074219 63.39703125 14.98007812 64 15 C64.79423861 13.43880578 65.58527123 11.87598036 66.375 10.3125 C67.03628906 9.00732422 67.03628906 9.00732422 67.7109375 7.67578125 C68.9190543 5.16802364 69.96619922 2.58450196 71 0 C83.54 0 96.08 0 109 0 C109 18.81 109 37.62 109 57 C105.37 57 101.74 57 98 57 C97.67 45.78 97.34 34.56 97 23 C95.35 22.67 93.7 22.34 92 22 C90.02170928 23.97829072 90.74496068 27.82327027 90.68359375 30.53515625 C90.6524221 31.66503212 90.6524221 31.66503212 90.62062073 32.81773376 C90.55504575 35.2325599 90.49620379 37.64749798 90.4375 40.0625 C90.3943223 41.69597529 90.35070827 43.3294391 90.30664062 44.96289062 C90.19935638 48.97514464 90.09811179 52.98751164 90 57 C86.04 57 82.08 57 78 57 C77.67 45.78 77.34 34.56 77 23 C75.35 22.67 73.7 22.34 72 22 C70.02170928 23.97829072 70.74496068 27.82327027 70.68359375 30.53515625 C70.6524221 31.66503212 70.6524221 31.66503212 70.62062073 32.81773376 C70.55504575 35.2325599 70.49620379 37.64749798 70.4375 40.0625 C70.3943223 41.69597529 70.35070827 43.3294391 70.30664062 44.96289062 C70.19935638 48.97514464 70.09811179 52.98751164 70 57 C66.37 57 62.74 57 59 57 C58.67 45.78 58.34 34.56 58 23 C56.35 22.67 54.7 22.34 53 22 C51.02170928 23.97829072 51.74496068 27.82327027 51.68359375 30.53515625 C51.66281265 31.28840683 51.64203156 32.04165741 51.62062073 32.81773376 C51.55504575 35.2325599 51.49620379 37.64749798 51.4375 40.0625 C51.3943223 41.69597529 51.35070827 43.3294391 51.30664062 44.96289062 C51.19935638 48.97514464 51.09811179 52.98751164 51 57 C47.04 57 43.08 57 39 57 C38.67 45.78 38.34 34.56 38 23 C36.35 22.67 34.7 22.34 33 22 C31.02170928 23.97829072 31.74496068 27.82327027 31.68359375 30.53515625 C31.66281265 31.28840683 31.64203156 32.04165741 31.62062073 32.81773376 C31.55504575 35.2325599 31.49620379 37.64749798 31.4375 40.0625 C31.3943223 41.69597529 31.35070827 43.3294391 31.30664062 44.96289062 C31.19935638 48.97514464 31.09811179 52.98751164 31 57 C27.37 57 23.74 57 20 57 C19.67 45.78 19.34 34.56 19 23 C17.35 22.67 15.7 22.34 14 22 C12.02170928 23.97829072 12.74496068 27.82327027 12.68359375 30.53515625 C12.66281265 31.28840683 12.64203156 32.04165741 12.62062073 32.81773376 C12.55504575 35.2325599 12.49620379 37.64749798 12.4375 40.0625 C12.3943223 41.69597529 12.35070827 43.3294391 12.30664062 44.96289062 C12.19935638 48.97514464 12.09811179 52.98751164 12 57 C8.04 57 4.08 57 0 57 C0 38.19 0 19.38 0 0 Z " fill="#FAD7A9" transform="translate(96,34)"/>
<path d="M0 0 C35.97 0 71.94 0 109 0 C109 19.94303097 109 19.94303097 101.75 28.1875 C95.84649995 33.61961792 88.21702864 36.68875459 81 40 C80.01 40.495 80.01 40.495 79 41 C77.52931287 41.13980599 76.05285236 41.2212063 74.57641602 41.2722168 C73.65687637 41.30441818 72.73733673 41.33661957 71.78993225 41.36979675 C67.51283672 41.48168495 63.23587354 41.56319364 58.95776367 41.62475586 C56.72422475 41.66603144 54.49094812 41.72701115 52.25854492 41.80932617 C36.72610878 42.37205356 23.48685493 41.10737612 11 31 C5.41193103 25.47945486 2.23132737 20.58651306 0 13 C0 8.71 0 4.42 0 0 Z " fill="#5F4432" transform="translate(96,119)"/>
<path d="M0 0 C27.8922276 -0.74716456 55.02352223 1.27562286 82 9 C82.83192871 9.23525391 83.66385742 9.47050781 84.52099609 9.71289062 C127.71661441 22.23623302 167.8393136 50.08956228 195 86 C195.51240234 86.66837891 196.02480469 87.33675781 196.55273438 88.02539062 C203.22839319 96.75626937 209.63400979 105.63936254 215.5 114.9375 C215.98710449 115.68845947 216.47420898 116.43941895 216.97607422 117.21313477 C217.40678223 117.91494873 217.83749023 118.6167627 218.28125 119.33984375 C218.66345703 119.95206787 219.04566406 120.56429199 219.43945312 121.19506836 C220 123 220 123 219.10742188 125.22875977 C218.74197266 125.81326904 218.37652344 126.39777832 218 127 C216.68 127 215.36 127 214 127 C212.22384001 125.072806 210.75605597 123.24706285 209.25 121.125 C208.35751687 119.91741702 207.46428049 118.71039041 206.5703125 117.50390625 C206.13235352 116.90465332 205.69439453 116.30540039 205.24316406 115.68798828 C202.2957957 111.68600383 199.1512241 107.84198156 196 104 C195.59652344 103.50483887 195.19304687 103.00967773 194.77734375 102.49951172 C182.13938024 87.07459432 168.19615792 72.69210202 152 61 C150.94683594 60.22527344 149.89367187 59.45054687 148.80859375 58.65234375 C108.19353299 29.59887084 60.06163038 17.94906254 10.75 16.4375 C9.40754308 16.39415828 8.06509505 16.35053997 6.72265625 16.30664062 C3.4818473 16.20172235 0.24097723 16.09955985 -3 16 C-3.37851209 10.06997733 -2.10575375 5.52760359 0 0 Z " fill="#AC5970" transform="translate(13,306)"/>
<path d="M0 0 C15.46407485 -0.26472606 30.63825801 0.15624953 46 2 C46.85577637 2.10183594 47.71155273 2.20367187 48.59326172 2.30859375 C88.56176518 7.25032057 126.69027085 22.62273801 158 48 C158.56187012 48.45213867 159.12374023 48.90427734 159.70263672 49.37011719 C182.82175059 68.11322954 199.93922206 91.72704679 214.5 117.5 C214.90943848 118.21720215 215.31887695 118.9344043 215.74072266 119.67333984 C218.37233053 124.4327245 221.16330542 129.57498029 222 135 C221.34 135.99 220.68 136.98 220 138 C215.95621965 136.65207322 215.0891711 134.09800797 213.125 130.5625 C204.63116669 115.89457029 194.3136642 102.58682261 183 90 C182.25169922 89.15912842 182.25169922 89.15912842 181.48828125 88.30126953 C161.57255974 65.97287867 137.90470783 48.55747617 110.81591797 35.85253906 C109.17325638 35.08134059 107.54101958 34.28803231 105.91015625 33.4921875 C75.62576185 19.5147747 42.37444848 14.48300485 9.3125 13.4375 C8.02666016 13.39431641 6.74082031 13.35113281 5.41601562 13.30664062 C2.27742506 13.20163202 -0.86123004 13.09947595 -4 13 C-3.29120484 8.14165647 -2.03597876 4.42604077 0 0 Z " fill="#B7687C" transform="translate(20,285)"/>
<path d="M0 0 C11.71596317 4.01376007 22.91379788 8.40948262 33.70947266 14.47973633 C34.90017732 15.1216644 36.09159065 15.76227962 37.28369141 16.40161133 C49.35500125 22.97575106 60.26405641 30.7730452 70.26806641 40.19458008 C72.33881404 42.13279987 74.45482981 43.93370964 76.64697266 45.72973633 C104.91058563 70.48198395 121.31263569 107.93342612 133.70947266 142.47973633 C134.13228516 143.62313477 134.55509766 144.7665332 134.99072266 145.94458008 C135.95450108 149.34399418 135.39444139 152.05489264 134.70947266 155.47973633 C132.55550034 153.32576401 131.86726503 151.78511749 130.71337891 148.99145508 C130.32569336 148.0683252 129.93800781 147.14519531 129.53857422 146.1940918 C129.1205957 145.19522949 128.70261719 144.19636719 128.27197266 143.16723633 C105.27228245 89.50408442 67.49985733 42.82168571 12.21337891 20.63598633 C-13.58029122 10.66156677 -39.8012765 5.79077954 -67.29052734 3.47973633 C-64.09649537 0.15381434 -60.90827755 -2.66818638 -57.10302734 -5.27026367 C-56.24322266 -5.86323242 -55.38341797 -6.45620117 -54.49755859 -7.06713867 C-41.84890072 -15.39510457 -12.95386745 -4.260943 0 0 Z " fill="#EF89A4" transform="translate(123.29052734375,237.520263671875)"/>
<path d="M0 0 C40.92 0 81.84 0 124 0 C138.41955193 33.16496945 138.41955193 33.16496945 140 44 C126.21635162 48.79678548 112.48787988 50.62207018 98 52 C97.12005371 52.09788818 96.24010742 52.19577637 95.33349609 52.29663086 C84.99945062 53.3451593 74.6236371 53.10877969 64.25 53.0625 C62.28125114 53.05747437 60.31250104 53.05291335 58.34375 53.04882812 C53.56246882 53.03790809 48.78124842 53.02070218 44 53 C44 52.67 44 52.34 44 52 C54.56 52 65.12 52 76 52 C78.19168565 34.19255412 77.92202246 19.25921333 76 1 C50.92 1 25.84 1 0 1 C0 0.67 0 0.34 0 0 Z " fill="#AA764F" transform="translate(299,237)"/>
<path d="M0 0 C1.11459091 -0.01533279 2.22918182 -0.03066559 3.37754822 -0.04646301 C7.06761908 -0.0882017 10.7560099 -0.08527393 14.44628906 -0.07836914 C17.02159241 -0.09003616 19.59689001 -0.10304144 22.17218018 -0.11732483 C27.57935678 -0.13972857 32.98588627 -0.13924933 38.39306641 -0.12304688 C44.60171381 -0.10502457 50.80830485 -0.14160344 57.01660132 -0.20575708 C63.02410515 -0.2655075 69.03055436 -0.27406165 75.03839874 -0.26355171 C77.57545012 -0.26508067 80.11253669 -0.28059157 82.64940643 -0.31098747 C98.62714337 -0.47878141 109.55623223 0.99209705 122.96191406 9.82397461 C125.927123 11.27863855 128.91451441 12.54960748 131.96191406 13.82397461 C131.08691406 18.69897461 131.08691406 18.69897461 129.96191406 19.82397461 C128.17640339 19.92690286 126.38679493 19.95918852 124.59832764 19.9644165 C123.43461136 19.97012665 122.27089508 19.97583679 121.07191467 19.98171997 C119.78361252 19.98283783 118.49531036 19.98395569 117.16796875 19.98510742 C115.80649175 19.98973342 114.44501604 19.99475778 113.08354187 20.00015259 C109.37470647 20.01330235 105.66588919 20.01972691 101.95703411 20.02416325 C99.6408304 20.02709071 97.32463169 20.03119496 95.00843048 20.03566742 C87.76451443 20.04935107 80.52060974 20.05901265 73.27668166 20.06286931 C64.90969551 20.06734799 56.54287289 20.0848833 48.17593646 20.11386991 C41.71304322 20.1354838 35.25019598 20.14557348 28.78726697 20.14691043 C24.92552492 20.14795896 21.06393641 20.15387648 17.20223236 20.17173004 C13.56772649 20.18820508 9.93348963 20.19036913 6.29895973 20.18159103 C4.33062919 20.18045299 2.3623076 20.19417603 0.39402771 20.20834351 C-0.78096786 20.20277435 -1.95596344 20.1972052 -3.16656494 20.19146729 C-4.18569096 20.19293385 -5.20481697 20.19440041 -6.25482559 20.19591141 C-9.50865322 19.76109106 -11.38742417 18.72702892 -14.03808594 16.82397461 C-16.36657641 13.60844015 -16.58265601 10.71376084 -16.03808594 6.82397461 C-11.93916003 -0.18909632 -7.71128682 -0.05461676 0 0 Z " fill="#5F4432" transform="translate(248.0380859375,112.176025390625)"/>
<path d="M0 0 C26.41608109 -0.07000912 52.83214832 -0.12294842 79.24830341 -0.15543652 C91.51314198 -0.17092068 103.77792298 -0.19203978 116.04272461 -0.22631836 C126.72983166 -0.2561733 137.41689703 -0.27556372 148.10404462 -0.28226548 C153.76542804 -0.28618437 159.4266922 -0.2954264 165.08803749 -0.31719017 C170.41246424 -0.33749365 175.73672215 -0.34384626 181.06118393 -0.33932304 C183.01919025 -0.340151 184.977202 -0.34615305 186.93517494 -0.35761642 C189.60118378 -0.37246457 192.26654877 -0.36898189 194.93257141 -0.36076355 C195.71369539 -0.36950207 196.49481937 -0.3782406 197.29961377 -0.38724393 C202.49248193 -0.34374701 202.49248193 -0.34374701 204.97687054 1.33895397 C206.62166897 4.00927675 206.43651022 5.94442846 206 9 C204.43341637 11.15839863 204.43341637 11.15839863 202 13 C199.40234081 13.3995988 197.22440452 13.55382297 194.62783813 13.52812195 C193.88292472 13.53647861 193.13801131 13.54483527 192.37052476 13.55344516 C189.87256115 13.57643716 187.37549253 13.57080683 184.87744141 13.56518555 C183.08677177 13.57551699 181.29611103 13.58750548 179.50546265 13.60102844 C174.63707669 13.63212568 169.76898652 13.63735119 164.90051317 13.63609672 C160.83063646 13.63692704 156.76082395 13.64917025 152.69096696 13.66104633 C143.07860511 13.68844644 133.46639656 13.69374366 123.85400391 13.6862793 C113.9609723 13.679056 104.06865639 13.71235406 94.17577994 13.76533669 C85.66935422 13.80923833 77.16315851 13.82582208 68.65662134 13.8213008 C63.58218861 13.81898629 58.50833264 13.82714382 53.43400955 13.86237144 C48.65168758 13.89452876 43.87053916 13.89236113 39.08819962 13.86492729 C37.34282782 13.86050261 35.59737649 13.86777442 33.85211945 13.88827133 C21.91325803 14.01886509 14.33726153 12.03998932 4 6 C2.347347 5.29931441 0.68499354 4.61888528 -1 4 C-0.67 2.68 -0.34 1.36 0 0 Z " fill="#5F4432" transform="translate(266,394)"/>
<path d="M0 0 C2.01851724 1.47475341 3.77865757 2.99752239 5.5390625 4.7734375 C6.42464844 5.65128906 6.42464844 5.65128906 7.328125 6.546875 C8.92826404 8.41501762 9.85864214 10.19092142 10.9140625 12.3984375 C4.65577269 16.80879579 -1.73170337 20.43866552 -8.6484375 23.7109375 C-10.1336792 24.41706177 -10.1336792 24.41706177 -11.64892578 25.13745117 C-21.69156469 29.82238408 -31.98154946 33.72133694 -42.41455078 37.43896484 C-44.76214732 38.28214291 -47.09549043 39.15338119 -49.42578125 40.04296875 C-66.52883434 46.48343156 -84.50699423 50.52390339 -102.3359375 54.3984375 C-103.31699463 54.61830322 -104.29805176 54.83816895 -105.30883789 55.06469727 C-116.85111312 57.47728404 -116.85111312 57.47728404 -121.90185547 54.23144531 C-123.817287 52.73792165 -125.60873369 51.1651207 -127.3984375 49.5234375 C-128.3275293 48.70939453 -128.3275293 48.70939453 -129.27539062 47.87890625 C-131.98586334 45.47155914 -134.05607152 43.44323646 -136.0859375 40.3984375 C-135.21839844 40.38425781 -134.35085937 40.37007813 -133.45703125 40.35546875 C-112.16668801 39.57320192 -90.3609366 35.94600218 -70.0859375 29.3984375 C-68.43892265 28.89153518 -66.79178108 28.38504446 -65.14453125 27.87890625 C-44.37116406 21.35698978 -22.3471342 12.90931805 -4.3125 0.48828125 C-2.0859375 -0.6015625 -2.0859375 -0.6015625 0 0 Z " fill="#F08AA4" transform="translate(182.0859375,391.6015625)"/>
<path d="M0 0 C2.19921875 2.265625 2.19921875 2.265625 4.6875 5.25 C5.51636719 6.22453125 6.34523437 7.1990625 7.19921875 8.203125 C9 11 9 11 9.16015625 13.0703125 C7.34298393 16.09281462 4.65221151 17.75054618 1.75 19.625 C1.08887207 20.05594971 0.42774414 20.48689941 -0.25341797 20.9309082 C-31.2005945 40.49908965 -78.0633951 55.44171979 -115 50 C-118.70620788 48.77029047 -121.83287923 47.27967562 -125 45 C-125 44.67 -125 44.34 -125 44 C-124.16678223 43.82984375 -123.33356445 43.6596875 -122.47509766 43.484375 C-103.64284488 39.60069089 -85.24606647 35.15257705 -67 29 C-65.9579541 28.65211426 -64.9159082 28.30422852 -63.84228516 27.94580078 C-43.30984897 21.02777872 -23.52244245 12.61910493 -4.8515625 1.58203125 C-2 0 -2 0 0 0 Z " fill="#E6708A" transform="translate(200,410)"/>
<path d="M0 0 C6.2099102 0.53083357 11.26190764 2.56351295 16.9375 5.0625 C17.81212891 5.43955078 18.68675781 5.81660156 19.58789062 6.20507812 C21.72864676 7.12922968 23.86573647 8.0609751 26 9 C26 12 26 12 23.4375 14.890625 C22.29929404 16.01816861 21.15306753 17.13765892 20 18.25 C19.44699219 18.79785156 18.89398438 19.34570312 18.32421875 19.91015625 C14.69023191 23.47731114 10.91380279 26.84467126 7.06640625 30.17871094 C3.45743027 33.35959005 -0.0140952 36.68553314 -3.5 40 C-11.0847342 47.21171449 -18.91012165 54.08879103 -26.875 60.875 C-31.93003654 65.19138555 -36.91202182 69.57460575 -41.81640625 74.0625 C-42.53699219 74.701875 -43.25757813 75.34125 -44 76 C-44.82757813 76.73734375 -45.65515625 77.4746875 -46.5078125 78.234375 C-50.23465025 80.87470519 -52.5457207 80.30198504 -57 80 C-53.92137635 74.00556453 -50.36638567 68.59713257 -46.3515625 63.19140625 C-43.61562056 59.47834219 -40.96270457 55.71195558 -38.3125 51.9375 C-28.77222203 38.39411776 -19.09277301 24.9847104 -8.97265625 11.8671875 C-5.94326201 7.94015765 -2.96629561 3.97482294 0 0 Z " fill="#F18AA5" transform="translate(102,344)"/>
<path d="M0 0 C4.00521387 2.88747977 7.46370991 6.48991981 9.6875 10.9375 C10.25346244 16.98894452 10.05243845 21.7031513 6.6875 26.9375 C5.82125 27.9584375 5.82125 27.9584375 4.9375 29 C3.42270396 30.88695256 3.42270396 30.88695256 4.00495911 33.27407837 C4.6455207 35.77368773 5.41379118 38.09032155 6.3581543 40.48974609 C6.69908615 41.36190765 7.04001801 42.23406921 7.39128113 43.13265991 C7.76102554 44.06599152 8.13076996 44.99932312 8.51171875 45.9609375 C8.89560257 46.93930573 9.27948639 47.91767395 9.67500305 48.9256897 C10.90445308 52.05616907 12.13968847 55.18432965 13.375 58.3125 C14.18721955 60.37876061 14.99907222 62.44516548 15.81054688 64.51171875 C16.60673534 66.53647229 17.40295885 68.56121205 18.19921875 70.5859375 C18.58616913 71.57180847 18.97311951 72.55767944 19.37179565 73.57342529 C21.08993943 77.93889951 22.82355141 82.29384239 24.64306641 86.61816406 C24.9318013 87.31148834 25.22053619 88.00481262 25.51802063 88.71914673 C26.26975419 90.5152639 27.03433027 92.3059916 27.80004883 94.09619141 C28.6978964 96.97078563 28.79450928 98.18730643 27.6875 100.9375 C24.2225 101.9275 24.2225 101.9275 20.6875 102.9375 C19.09502472 98.90603162 17.50277466 94.87447455 15.91088867 90.84277344 C14.54857093 87.39258664 13.18533201 83.94276566 11.8215332 80.49316406 C8.63122148 72.42002186 5.44927873 64.3441112 2.3125 56.25 C1.80713539 54.94951012 1.30168583 53.64905325 0.79614258 52.34863281 C-0.13546718 49.94862939 -1.06286723 47.54698668 -1.9855957 45.14355469 C-2.39898193 44.08040039 -2.81236816 43.01724609 -3.23828125 41.921875 C-3.77062378 40.54080566 -3.77062378 40.54080566 -4.3137207 39.13183594 C-5.223655 36.79258185 -5.223655 36.79258185 -7.3125 34.9375 C-9.27979882 34.48035586 -9.27979882 34.48035586 -11.5 34.1875 C-16.67397767 33.11271237 -19.90557762 30.95379061 -23.3125 26.9375 C-26.12880971 22.03167019 -27.28990558 17.50541719 -26.3125 11.9375 C-22.07014914 0.36091544 -11.41202087 -3.66045953 0 0 Z " fill="#B9B6AA" transform="translate(61.3125,111.0625)"/>
<path d="M0 0 C35.97 0 71.94 0 109 0 C109 3.96 109 7.92 109 12 C73.03 12 37.06 12 0 12 C0 8.04 0 4.08 0 0 Z " fill="#BAB7AB" transform="translate(96,99)"/>
<path d="M0 0 C6.76594019 -0.11381955 13.28837062 0.11978631 20 1 C18.88648817 4.62789339 17.55754753 8.09767682 16.0390625 11.5703125 C5.60365122 35.48379123 -3.08869768 60.56765283 -9 86 C-12 86 -12 86 -13.640625 84.48828125 C-18.81018144 77.49934208 -18.1892667 72.33726632 -17 64 C-16.013878 58.22759378 -14.73741898 52.52088263 -13.4375 46.8125 C-13.26314423 46.03384583 -13.08878845 45.25519165 -12.90914917 44.45294189 C-5.31045171 10.62090342 -5.31045171 10.62090342 0 0 Z " fill="#B7687C" transform="translate(45,332)"/>
<path d="M0 0 C1.75215106 0.93347358 3.50163563 1.8719532 5.25 2.8125 C6.71179688 3.59560547 6.71179688 3.59560547 8.203125 4.39453125 C10.63355412 5.78965188 12.80787699 7.26195961 15 9 C13.49506981 12.73724331 11.38337568 14.58268345 8.25 17.0625 C6.75533203 18.25166016 6.75533203 18.25166016 5.23046875 19.46484375 C4.43455322 20.08915283 4.43455322 20.08915283 3.62255859 20.72607422 C2.02929544 21.97699916 0.44548159 23.23903016 -1.13671875 24.50390625 C-17.10745294 37.22089773 -33.55667041 49.26061937 -50.36791992 60.83935547 C-51.95606411 61.90057962 -51.95606411 61.90057962 -53 63 C-55.85528607 63.400383 -58.69736487 63.7518227 -61.5625 64.0625 C-62.77196289 64.19881836 -62.77196289 64.19881836 -64.00585938 64.33789062 C-66.00347377 64.56247449 -68.0016856 64.78173236 -70 65 C-65.88090581 59.76763711 -61.40262916 55.8012914 -56.203125 51.66015625 C-51.75924802 48.04353703 -47.63447945 44.07641335 -43.47875977 40.13647461 C-39.7363172 36.59369654 -35.91875487 33.16526805 -32.02856445 29.78564453 C-28.59599805 26.76412682 -25.26781951 23.6332783 -21.9375 20.5 C-21.26912109 19.87480469 -20.60074219 19.24960937 -19.91210938 18.60546875 C-16.64016912 15.53385137 -13.41208764 12.43090903 -10.25 9.24609375 C-6.98395032 5.95734065 -3.55441773 2.97410463 0 0 Z " fill="#E67089" transform="translate(137,358)"/>
<path d="M0 0 C6.24675325 6.07792208 6.24675325 6.07792208 8 9 C6.67917302 12.96248093 4.16657426 14.38661511 0.875 16.6875 C-0.0672644 17.34842651 -0.0672644 17.34842651 -1.02856445 18.02270508 C-23.28510636 33.31976248 -48.61097202 41.211303 -75.625 41.1875 C-76.58124268 41.18669434 -77.53748535 41.18588867 -78.52270508 41.18505859 C-98.98499114 41.01000591 -98.98499114 41.01000591 -105 37 C-104.12601562 36.88519287 -103.25203125 36.77038574 -102.3515625 36.65209961 C-66.1882879 31.80237325 -29.45023845 22.86368127 0 0 Z " fill="#B6687B" transform="translate(214,430)"/>
<path d="M0 0 C9.57 0 19.14 0 29 0 C28.01 3.63 27.02 7.26 26 11 C21.23538522 28.91495158 16.79591 46.85439995 13 65 C10.44990265 63.72495132 10.36593404 62.8646256 9.37890625 60.23828125 C9.0845166 59.45573975 8.79012695 58.67319824 8.48681641 57.86694336 C8.18179199 57.02397705 7.87676758 56.18101074 7.5625 55.3125 C7.24974121 54.45342041 6.93698242 53.59434082 6.61474609 52.70922852 C1.62173746 38.64266381 -0.1972683 24.75675951 -0.0625 9.875 C-0.041875 6.61625 -0.02125 3.3575 0 0 Z " fill="#EF89A4" transform="translate(8,330)"/>
<path d="M0 0 C2.3760271 0.45344029 4.75071581 0.91259259 7.125 1.375 C7.79015625 1.50132812 8.4553125 1.62765625 9.140625 1.7578125 C13.218661 2.5574274 17.08853085 3.59869485 21 5 C19.41734448 10.01983377 16.40214417 13.62189306 13.1875 17.6875 C6.81445805 25.88230017 0.70789759 34.24158848 -5.33544922 42.68115234 C-7.07243659 45.10090976 -8.81815333 47.51415212 -10.56640625 49.92578125 C-11.15164062 50.73345947 -11.736875 51.5411377 -12.33984375 52.37329102 C-13.45510554 53.91199191 -14.57095292 55.45026862 -15.6875 56.98803711 C-18.54657137 60.93881179 -21.32593118 64.92156411 -24 69 C-25.57614965 65.00552109 -24.36088774 62.19314507 -23.04296875 58.234375 C-22.8244223 57.57205368 -22.60587585 56.90973236 -22.38070679 56.2273407 C-21.66168841 54.06397232 -20.92576683 51.90686923 -20.1875 49.75 C-19.9393454 49.01468048 -19.6911908 48.27936096 -19.43551636 47.52175903 C-13.94817151 31.27622264 -7.82645881 15.2785312 0 0 Z " fill="#E47089" transform="translate(73,335)"/>
<path d="M0 0 C15.05383594 4.33754595 28.99260293 12.63773513 37.5625 26.0625 C42.12337805 34.57882981 44.61927454 43.53784314 42.53125 53.16015625 C40.44304353 59.61122268 36.90450033 64.29418235 31.046875 67.734375 C24.50791431 71.05123912 19.4496262 73.40634325 12 73 C10 71 10 71 9.875 68.5625 C11 66 11 66 14.4375 64.5 C15.15164063 64.27183594 15.86578125 64.04367187 16.6015625 63.80859375 C19.28126657 62.9051756 21.76576198 61.79105837 24.3125 60.5625 C25.54419922 59.97662109 25.54419922 59.97662109 26.80078125 59.37890625 C29.85011699 57.46697816 31.50365381 55.45420726 32.66796875 52.04296875 C34.27661795 42.14504487 31.9294748 35.01100806 26.3125 26.875 C18.66023148 17.30966435 7.45075742 11.81691914 -4 8 C-2.25 2.25 -2.25 2.25 0 0 Z " fill="#ED88A2" transform="translate(261,405)"/>
<path d="M0 0 C13.53 0 27.06 0 41 0 C41 7.59 41 15.18 41 23 C38.504375 22.690625 36.00875 22.38125 33.4375 22.0625 C22.32299693 20.76042212 11.17749818 20.37721575 0 20 C0 13.4 0 6.8 0 0 Z " fill="#5F4432" transform="translate(130,183)"/>
<path d="M0 0 C4.91458865 2.45729433 8.88144489 5.38370771 13 9 C11.27681143 13.98031378 8.55848624 18.28506417 5.8125 22.75 C5.07809692 23.94955322 5.07809692 23.94955322 4.32885742 25.17333984 C0.88647951 30.72935929 -2.74117922 36.02895322 -7 41 C-9.71033085 39.72594127 -12.01170741 38.33943761 -14.34765625 36.46875 C-15.25547852 35.74751953 -15.25547852 35.74751953 -16.18164062 35.01171875 C-16.80232422 34.51285156 -17.42300781 34.01398438 -18.0625 33.5 C-19.30261128 32.50944672 -20.54347004 31.51982835 -21.78515625 30.53125 C-22.33051025 30.09361328 -22.87586426 29.65597656 -23.43774414 29.20507812 C-24.9093247 28.06994425 -26.45362199 27.03091867 -28 26 C-26.52419112 22.48317884 -24.60739501 20.49785524 -21.75 18 C-20.86828125 17.2265625 -19.9865625 16.453125 -19.078125 15.65625 C-18.05240404 14.77046183 -17.02633665 13.88507472 -16 13 C-14.76561942 11.92708975 -13.53124469 10.85417278 -12.296875 9.78125 C-11.03187591 8.68677616 -9.76625564 7.59301984 -8.5 6.5 C-7.88866211 5.97148437 -7.27732422 5.44296875 -6.64746094 4.8984375 C-2.23630204 1.11815102 -2.23630204 1.11815102 0 0 Z " fill="#E6708A" transform="translate(209,232)"/>
<path d="M0 0 C1.04414063 0.54527344 2.08828125 1.09054688 3.1640625 1.65234375 C4.22367188 2.20019531 5.28328125 2.74804688 6.375 3.3125 C7.17164063 3.73402344 7.96828125 4.15554687 8.7890625 4.58984375 C1.67720935 11.79139595 -5.89162041 18.50941567 -13.5546875 25.1171875 C-15.25987415 26.550619 -15.25987415 26.550619 -16.6171875 28.34375 C-18.2109375 29.58984375 -18.2109375 29.58984375 -20.390625 29.55078125 C-24.31170561 28.2147898 -27.75370817 26.27674624 -31.3359375 24.21484375 C-32.40908203 23.61542969 -32.40908203 23.61542969 -33.50390625 23.00390625 C-36.8262567 21.116066 -39.58178109 19.39837534 -42.2109375 16.58984375 C-35.76145691 11.61695477 -28.90017429 7.62714922 -21.7734375 3.71484375 C-20.44070801 2.98237427 -20.44070801 2.98237427 -19.08105469 2.23510742 C-11.95728653 -1.63529167 -7.88037411 -3.46084556 0 0 Z " fill="#B7687C" transform="translate(193.2109375,222.41015625)"/>
<path d="M0 0 C3.44835686 1.55135868 6.22991749 3.59152983 9.1875 5.9375 C10.06792969 6.62714844 10.94835937 7.31679688 11.85546875 8.02734375 C14 10 14 10 15 13 C-3.01764395 23.24399707 -21.14931297 31.70747921 -40.6875 38.625 C-41.68644287 38.98045898 -42.68538574 39.33591797 -43.71459961 39.70214844 C-44.63764893 40.01958008 -45.56069824 40.33701172 -46.51171875 40.6640625 C-47.74088013 41.08872803 -47.74088013 41.08872803 -48.99487305 41.52197266 C-51 42 -51 42 -53 41 C-52.29206299 40.49569458 -52.29206299 40.49569458 -51.56982422 39.98120117 C-38.22156194 30.454352 -25.28152236 20.57024649 -12.62109375 10.1484375 C-8.44576474 6.72603667 -4.22366553 3.36244089 0 0 Z " fill="#B6687B" transform="translate(159,373)"/>
<path d="M0 0 C7.74380463 7.58077716 7.74380463 7.58077716 8.203125 13.7109375 C7.54697824 28.18261886 2.56863891 42.22388445 -4 55 C-4.66 55 -5.32 55 -6 55 C-7.56724796 52.60898035 -9.02002838 50.22771291 -10.4375 47.75 C-11.22580709 46.38943082 -12.01612139 45.03002231 -12.80859375 43.671875 C-13.18097168 43.02798828 -13.55334961 42.38410156 -13.93701172 41.72070312 C-15.03914865 39.8486736 -15.03914865 39.8486736 -16.84765625 37.765625 C-18 36 -18 36 -17.69946289 34.12939453 C-16.98435486 31.95237105 -16.09952507 30.15050271 -14.9609375 28.1640625 C-14.54827637 27.43558105 -14.13561523 26.70709961 -13.71044922 25.95654297 C-13.26975098 25.18713379 -12.82905273 24.41772461 -12.375 23.625 C-7.99014796 15.86499699 -3.89293753 8.01790445 0 0 Z " fill="#AC5970" transform="translate(244,266)"/>
<path d="M0 0 C8.48837209 6.97674419 8.48837209 6.97674419 10 10 C9.65118508 15.98641817 6.88297182 21.01019828 4.3125 26.3125 C3.89033203 27.21162109 3.46816406 28.11074219 3.03320312 29.03710938 C0.15141673 35.04843755 -3.1536519 40.55705457 -7 46 C-10.96408177 44.19479547 -13.42121872 41.61494135 -16.25 38.375 C-16.70890625 37.859375 -17.1678125 37.34375 -17.640625 36.8125 C-18.76592296 35.5465398 -19.88372177 34.27392058 -21 33 C-16.63534905 26.04835396 -12.15878864 19.18639206 -7.55322266 12.39233398 C-4.83762748 8.35803015 -2.36894289 4.24775967 0 0 Z " fill="#B7687C" transform="translate(228,247)"/>
<path d="M0 0 C2 1 2 1 2.96484375 3.30078125 C11.02319943 28.25255727 11.02319943 28.25255727 6.48046875 37.6796875 C5.39771825 39.75264573 4.29956352 41.81761836 3.1875 43.875 C2.64029297 44.93203125 2.09308594 45.9890625 1.52929688 47.078125 C-2.60028176 54.86676059 -2.60028176 54.86676059 -6 56 C-7.39998862 53.30216785 -8.76944843 50.59505067 -10.125 47.875 C-10.52332031 47.11445313 -10.92164063 46.35390625 -11.33203125 45.5703125 C-14.14885344 39.83783224 -14.14885344 39.83783224 -13.453125 35.921875 C-12.97359375 34.95765625 -12.4940625 33.9934375 -12 33 C-11.47664062 31.79085938 -10.95328125 30.58171875 -10.4140625 29.3359375 C-9.81863146 28.01520843 -9.22224317 26.6949106 -8.625 25.375 C-4.96836243 17.15658835 -1.63255888 8.88304099 0 0 Z " fill="#B6687B" transform="translate(258,292)"/>
<path d="M0 0 C1.84717873 -0.01441132 1.84717873 -0.01441132 3.73167419 -0.02911377 C5.0816123 -0.03396103 6.43155255 -0.03824004 7.78149414 -0.04199219 C9.16150414 -0.04774333 10.54151411 -0.05350107 11.92152405 -0.05926514 C14.81585055 -0.06977362 17.71014929 -0.07561748 20.60449219 -0.07910156 C24.3148192 -0.08459036 28.02477998 -0.10862675 31.73499203 -0.13707352 C34.5857094 -0.15568737 37.43633826 -0.16090478 40.28711128 -0.16243744 C41.65507576 -0.16546665 43.02303859 -0.17350429 44.39094353 -0.18662262 C46.3035241 -0.2036572 48.21625547 -0.19996181 50.12890625 -0.1953125 C51.76199989 -0.20078094 51.76199989 -0.20078094 53.42808533 -0.20635986 C56.12915039 0.16113281 56.12915039 0.16113281 58.01979065 1.51934814 C59.12915039 3.16113281 59.12915039 3.16113281 58.87915039 5.78613281 C58.12915039 8.16113281 58.12915039 8.16113281 57.12915039 9.16113281 C55.14586612 9.27094475 53.15864896 9.31024971 51.17236328 9.32226562 C49.89756607 9.33187317 48.62276886 9.34148071 47.30934143 9.35137939 C45.90683164 9.35622647 44.50431979 9.36050552 43.10180664 9.36425781 C41.67313127 9.37000646 40.24445594 9.37576422 38.81578064 9.38153076 C35.81712483 9.39204897 32.8184959 9.39788637 29.81982422 9.40136719 C25.9714923 9.40685624 22.12351345 9.43088912 18.2752924 9.45933914 C15.3233892 9.47793325 12.37157162 9.48316936 9.41961479 9.48470306 C8.00058497 9.48773705 6.58155692 9.4957906 5.1625843 9.50888824 C3.18023759 9.5258809 1.19774611 9.52223357 -0.78466797 9.51757812 C-1.91416367 9.52122375 -3.04365936 9.52486938 -4.2073822 9.52862549 C-5.08632645 9.40735291 -5.96527069 9.28608032 -6.87084961 9.16113281 C-8.87084961 6.16113281 -8.87084961 6.16113281 -8.62084961 3.53613281 C-8.37334961 2.75238281 -8.12584961 1.96863281 -7.87084961 1.16113281 C-5.16425736 -0.19216331 -3.03028206 0.01901842 0 0 Z " fill="#39322A" transform="translate(231.870849609375,84.8388671875)"/>
<path d="M0 0 C0.71671875 0.10828125 1.4334375 0.2165625 2.171875 0.328125 C4.21624053 0.74314657 6.23186164 1.22273863 8.25 1.75 C8.25 2.41 8.25 3.07 8.25 3.75 C7.10144531 4.36746094 5.95289063 4.98492187 4.76953125 5.62109375 C3.19983479 6.47530303 1.63087657 7.33086974 0.0625 8.1875 C-0.75669922 8.63182373 -1.57589844 9.07614746 -2.41992188 9.53393555 C-6.93540666 12.02866145 -11.09425556 14.65516 -15.15917969 17.82739258 C-21.50174193 22.7517361 -21.50174193 22.7517361 -25.55859375 22.74609375 C-28.18329784 22.00119259 -30.35916525 21.05526654 -32.75 19.75 C-33.94625 19.193125 -35.1425 18.63625 -36.375 18.0625 C-37.15875 17.629375 -37.9425 17.19625 -38.75 16.75 C-34.17886993 12.60230092 -28.97530856 10.26511222 -23.4375 7.6875 C-22.52548828 7.25373047 -21.61347656 6.81996094 -20.67382812 6.37304688 C-5.26517062 -0.88393375 -5.26517062 -0.88393375 0 0 Z " fill="#EE89A3" transform="translate(164.75,213.25)"/>
<path d="M0 0 C-2.82970204 2.22977098 -5.67793646 3.98066631 -8.87890625 5.62890625 C-9.79994141 6.10650391 -10.72097656 6.58410156 -11.66992188 7.07617188 C-12.62447266 7.56666016 -13.57902344 8.05714844 -14.5625 8.5625 C-16.46041801 9.541453 -18.35758693 10.52186002 -20.25390625 11.50390625 C-21.09252197 11.93517822 -21.9311377 12.3664502 -22.79516602 12.81079102 C-25.18150337 14.05367236 -25.18150337 14.05367236 -28 16 C-29.91796875 15.86328125 -29.91796875 15.86328125 -32.1875 15.3125 C-36.98456841 14.22193318 -41.78797452 13.26745395 -46.625 12.375 C-48.03389099 12.11217648 -49.44274804 11.84917092 -50.8515625 11.5859375 C-52.41003906 11.29589844 -52.41003906 11.29589844 -54 11 C-54 10.34 -54 9.68 -54 9 C-36.4339343 1.06148954 -18.99241118 -0.18620011 0 0 Z " fill="#B5677A" transform="translate(143,211)"/>
<path d="M0 0 C0.84477905 0.00202423 1.68955811 0.00404846 2.55993652 0.00613403 C3.42179565 0.00517731 4.28365479 0.00422058 5.17163086 0.00323486 C6.99751864 0.00255304 8.82340884 0.00440749 10.64929199 0.00857544 C13.45419731 0.01392367 16.25894248 0.00863054 19.06384277 0.00222778 C20.83337438 0.00288856 22.60290588 0.00416973 24.37243652 0.00613403 C25.21721558 0.0041098 26.06199463 0.00208557 26.93237305 0 C32.85123621 0.02399622 32.85123621 0.02399622 33.96618652 1.13894653 C34.21618652 4.07644653 34.21618652 4.07644653 33.96618652 7.13894653 C30.21698814 9.63841212 27.24657447 9.44491837 22.90368652 9.43972778 C22.11598877 9.44401291 21.32829102 9.44829803 20.51672363 9.45271301 C18.85242677 9.45845232 17.18810482 9.4589595 15.52380371 9.45462036 C12.97551819 9.45145811 10.42839119 9.47493103 7.88024902 9.50027466 C6.26306299 9.50254745 4.64587383 9.50325124 3.02868652 9.50222778 C2.26612549 9.51143753 1.50356445 9.52064728 0.71789551 9.53013611 C-4.52056751 9.4842335 -4.52056751 9.4842335 -7.05334473 7.78030396 C-8.03381348 6.13894653 -8.03381348 6.13894653 -7.78381348 3.51394653 C-6.38831202 -0.9051414 -4.32130963 0.01751943 0 0 Z " fill="#3A322B" transform="translate(276.0338134765625,69.86105346679688)"/>
<path d="M0 0 C13.53 0 27.06 0 41 0 C41 2.31 41 4.62 41 7 C27.47 7 13.94 7 0 7 C0 4.69 0 2.38 0 0 Z " fill="#B1ADA2" transform="translate(130,168)"/>
<path d="M0 0 C6.6 0 13.2 0 20 0 C19.67 0.99 19.34 1.98 19 3 C18.84656238 7.7565662 19.05493954 11.27469769 20 16 C15.05 16 10.1 16 5 16 C0 3.375 0 3.375 0 0 Z " fill="#BA8253" transform="translate(249,140)"/>
<path d="M0 0 C0.33 0 0.66 0 1 0 C1.33945257 7.93313225 0.99974718 15.38158979 -0.375 23.1875 C-0.50108643 23.91767334 -0.62717285 24.64784668 -0.75708008 25.40014648 C-1.40420898 28.84006252 -2.03309269 31.04963903 -4 34 C-5.06300631 31.44458088 -6.10028574 28.88323513 -7.125 26.3125 C-7.42792969 25.59126953 -7.73085938 24.87003906 -8.04296875 24.12695312 C-10.16045171 18.73475816 -10.16045171 18.73475816 -9.43359375 15.40625 C-8.96050781 14.6121875 -8.48742187 13.818125 -8 13 C-7.36964844 11.90042969 -6.73929687 10.80085938 -6.08984375 9.66796875 C-5.37647673 8.50529875 -4.65894829 7.34517284 -3.9375 6.1875 C-3.57333984 5.59001953 -3.20917969 4.99253906 -2.83398438 4.37695312 C-1.91993746 2.89859629 -0.96364025 1.44651932 0 0 Z " fill="#A44965" transform="translate(267,341)"/>
</svg>
