<svg width="25" height="24" viewBox="0 0 25 24" fill="none" xmlns="http://www.w3.org/2000/svg">
<path d="M17.3376 4.5C17.8836 4.49954 18.4243 4.6081 18.9278 4.81931C19.4314 5.03052 19.8877 5.34014 20.2701 5.73C21.0579 6.52979 21.4995 7.60737 21.4995 8.73C21.4995 9.85264 21.0579 10.9302 20.2701 11.73L12.5001 19.5975L4.73008 11.73C3.94226 10.9302 3.50067 9.85264 3.50067 8.73C3.50067 7.60737 3.94226 6.52979 4.73008 5.73C5.11264 5.34042 5.56901 5.03096 6.07251 4.81972C6.57601 4.60848 7.11656 4.49968 7.66258 4.49968C8.20859 4.49968 8.74914 4.60848 9.25264 4.81972C9.75614 5.03096 10.2125 5.34042 10.5951 5.73L12.5001 7.68L14.3976 5.745C14.7788 5.35049 15.2356 5.0369 15.7407 4.82298C16.2459 4.60906 16.789 4.49921 17.3376 4.5ZM17.3376 3C16.5918 2.99937 15.8534 3.14764 15.1657 3.43613C14.4779 3.72461 13.8547 4.1475 13.3326 4.68L12.5001 5.52L11.6676 4.68C11.1448 4.14846 10.5214 3.72631 9.83382 3.43814C9.14621 3.14998 8.40812 3.00157 7.66258 3.00157C6.91703 3.00157 6.17894 3.14998 5.49133 3.43814C4.80373 3.72631 4.18036 4.14846 3.65758 4.68C2.59398 5.76272 1.99805 7.21977 1.99805 8.7375C1.99805 10.2552 2.59398 11.7123 3.65758 12.795L12.5001 21.75L21.3426 12.795C22.4062 11.7123 23.0021 10.2552 23.0021 8.7375C23.0021 7.21977 22.4062 5.76272 21.3426 4.68C20.8197 4.14852 20.1963 3.72629 19.5088 3.43788C18.8212 3.14947 18.0832 3.00062 17.3376 3Z" fill="#CE9560"/>
</svg>
