<svg width="18" height="14" viewBox="0 0 18 14" fill="none" xmlns="http://www.w3.org/2000/svg">
<path d="M14.9756 0.284189C14.9264 0.305283 14.4588 0.751767 13.9315 1.27559L12.9787 2.22833L12.5252 2.05255C11.794 1.76075 11.0979 1.57794 10.2823 1.45489C9.63538 1.35997 8.27484 1.37052 7.59632 1.47599C5.80687 1.7502 4.22484 2.46388 2.72718 3.66973C2.25257 4.04942 1.35257 4.95645 0.969368 5.43458C0.554524 5.95841 0.0412433 6.72833 0.0131183 6.87598C-0.0255536 7.08692 0.0271808 7.22755 0.315462 7.65997C1.15921 8.93614 2.36859 10.1525 3.58499 10.9541C3.7889 11.0877 3.96116 11.2002 3.9682 11.2072C3.97874 11.2143 3.60257 11.6045 3.13851 12.0721C2.41077 12.7998 2.28773 12.9404 2.26663 13.0565C2.22796 13.2674 2.27718 13.4326 2.42132 13.5768C2.56546 13.7209 2.7307 13.7701 2.94163 13.7315C3.06116 13.7104 3.73968 13.0424 9.37874 7.41036C14.0088 2.78028 15.6893 1.07872 15.7174 0.990829C15.7948 0.755282 15.7104 0.502157 15.4959 0.343954C15.3869 0.263095 15.1057 0.231455 14.9756 0.284189ZM10.1944 2.58692C10.7991 2.67833 11.4705 2.85411 12.0014 3.06153L12.1069 3.1002L11.5303 3.67677L10.9537 4.25333L10.8588 4.18653C10.676 4.05294 10.103 3.79981 9.82523 3.72247C9.45257 3.62403 8.61585 3.61349 8.24671 3.70489C7.60335 3.86661 7.09359 4.15489 6.62249 4.62247C6.15491 5.09356 5.86663 5.60684 5.70491 6.24669C5.60999 6.62638 5.62054 7.42091 5.72249 7.80763C5.80335 8.09942 6.03538 8.63028 6.18304 8.84473L6.25335 8.95372L5.53968 9.66739L4.82601 10.3811L4.49202 10.1736C3.32484 9.43888 2.14007 8.32091 1.40531 7.25919L1.22601 6.99903L1.40179 6.74239C2.02406 5.84239 3.10687 4.75958 4.02445 4.1127C5.26195 3.24083 6.72445 2.68888 8.1764 2.5377C8.61234 2.492 9.7514 2.52013 10.1944 2.58692ZM9.49827 4.81583C9.71624 4.87208 10.1241 5.04083 10.1241 5.07598C10.1241 5.0795 9.43851 5.76856 8.59827 6.6088L7.07249 8.13458L6.97757 7.95177C6.85101 7.69513 6.74906 7.28028 6.74906 7.00255C6.75257 5.56466 8.13421 4.46778 9.49827 4.81583Z" fill="#777777"/>
<path d="M14.5441 3.82817C14.3366 4.0356 14.1679 4.22192 14.1714 4.2395C14.1714 4.2606 14.3085 4.38013 14.4773 4.51021C15.198 5.06216 16.1472 6.07466 16.6605 6.83052L16.773 6.99927L16.6288 7.21021C16.0241 8.10317 14.973 9.16841 14.0448 9.83286C12.4558 10.9719 10.5995 11.552 8.75383 11.4852C8.17726 11.4676 7.99797 11.4465 7.40734 11.3375L7.09445 11.2778L6.64094 11.7313C6.31398 12.0583 6.20148 12.1883 6.23664 12.2094C6.33508 12.2657 7.16828 12.452 7.6464 12.5258C8.30383 12.6278 9.64328 12.6348 10.2831 12.5434C12.5507 12.2094 14.4421 11.2321 16.1718 9.49888C16.7905 8.87661 17.1948 8.38794 17.6484 7.70942C18.1019 7.03442 18.1019 6.97466 17.6905 6.34536C17.2968 5.7477 16.7589 5.09028 16.1894 4.51724C15.7077 4.03208 15.0362 3.44849 14.9624 3.44849C14.9413 3.44849 14.7515 3.61724 14.5441 3.82817Z" fill="#777777"/>
<path d="M11.7273 6.6449L11.2422 7.13005L11.1965 7.40779C11.1402 7.73122 10.9398 8.16013 10.7254 8.41677C10.3949 8.81404 9.88866 9.11286 9.40702 9.19724L9.12928 9.24294L8.63358 9.73865C8.36288 10.0093 8.15194 10.2414 8.16249 10.2519C8.20468 10.2941 8.74257 10.3715 9.00272 10.375C9.89218 10.3785 10.7113 10.0304 11.3723 9.37302C12.0508 8.6945 12.3496 7.98083 12.3531 7.03513C12.3566 6.59568 12.2969 6.15622 12.2406 6.15622C12.2266 6.15622 11.998 6.37419 11.7273 6.6449Z" fill="#777777"/>
</svg>
