<?xml version="1.0" encoding="UTF-8"?>
<svg version="1.1" xmlns="http://www.w3.org/2000/svg" width="512" height="512">
<path d="M0 0 C1.2650386 -0.01283524 2.53007721 -0.02567047 3.83345032 -0.03889465 C5.22123829 -0.04706227 6.60903069 -0.05450596 7.99682617 -0.0612793 C9.04383981 -0.06739259 9.04383981 -0.06739259 10.11200523 -0.07362938 C13.80708902 -0.09449026 17.50213568 -0.10879138 21.19726562 -0.11816406 C25.01063097 -0.12922377 28.82341202 -0.16361758 32.63657093 -0.20333576 C35.57143729 -0.22950496 38.50616455 -0.23785615 41.44113731 -0.24144554 C42.84654368 -0.24631145 44.25194384 -0.25792575 45.6572361 -0.27648354 C47.62681613 -0.30087456 49.59668039 -0.2974902 51.56640625 -0.29296875 C53.24613274 -0.30176811 53.24613274 -0.30176811 54.95979309 -0.31074524 C58.65972808 0.28731004 60.31303517 1.59431901 62.97729492 4.17700195 C64.69080483 7.60402176 64.10588475 11.53799998 64.09082031 15.30834961 C64.09096634 16.25473801 64.09111237 17.2011264 64.09126282 18.17619324 C64.09056434 21.3145067 64.08277494 24.45276132 64.07495117 27.59106445 C64.07308676 29.76296964 64.07166297 31.93487525 64.07066345 34.10678101 C64.06684008 39.83114782 64.05701132 45.55548938 64.04595947 51.27984619 C64.03574149 57.11795714 64.031165 62.95607215 64.02612305 68.79418945 C64.01538891 80.25513807 63.99831463 91.71606791 63.97729492 103.17700195 C64.61666992 103.46575195 65.25604492 103.75450195 65.91479492 104.05200195 C67.97729492 105.17700195 67.97729492 105.17700195 68.97729492 107.17700195 C69.27389042 110.58785017 69.33631629 112.55687413 67.60229492 115.55200195 C66.79791992 116.35637695 66.79791992 116.35637695 65.97729492 117.17700195 C65.31729492 117.17700195 64.65729492 117.17700195 63.97729492 117.17700195 C63.97729492 128.06700195 63.97729492 138.95700195 63.97729492 150.17700195 C72.83229515 150.01953895 72.83229515 150.01953895 81.6862793 149.81665039 C88.93956423 149.75177681 93.89871076 150.08355731 99.97729492 154.17700195 C101.81713867 155.9934082 101.81713867 155.9934082 102.91479492 157.73950195 C103.29506836 158.31829102 103.6753418 158.89708008 104.06713867 159.4934082 C105.82161081 162.73880517 106.10192363 165.4003992 106.10034275 169.01271343 C106.1023338 170.01493771 106.10432485 171.01716199 106.10637623 172.04975671 C106.10346339 173.15382939 106.10055055 174.25790208 106.09754944 175.39543152 C106.09883108 177.15112039 106.09883108 177.15112039 106.1001386 178.94227773 C106.10150373 182.19636453 106.0983678 185.45041176 106.09336054 188.70449388 C106.08905044 192.21163138 106.09050287 195.71876697 106.09126282 199.22590637 C106.0917877 205.30401741 106.08864465 211.38211772 106.08302498 217.46022606 C106.07490511 226.24819838 106.07229426 235.03616551 106.07103699 243.82414118 C106.06884724 258.08133144 106.06218923 272.33851597 106.05273438 286.59570312 C106.04355828 300.44693981 106.03647841 314.29817495 106.03222656 328.14941406 C106.03183248 329.42965291 106.03183248 329.42965291 106.03143043 330.73575517 C106.03012541 335.01738763 106.0288617 339.29902011 106.02761853 343.58065259 C106.01724831 379.11277329 105.99935726 414.64488671 105.97729492 450.17700195 C114.55729492 450.17700195 123.13729492 450.17700195 131.97729492 450.17700195 C133.46229492 445.22700195 133.46229492 445.22700195 134.97729492 440.17700195 C135.53959242 438.49694523 136.11578445 436.82130157 136.71972656 435.15576172 C137.02788803 434.3018132 137.3360495 433.44786469 137.65354919 432.56803894 C138.14058067 431.23172173 138.14058067 431.23172173 138.63745117 429.8684082 C138.9840126 428.91126419 139.33057404 427.95412018 139.68763733 426.9679718 C140.42398127 424.93585251 141.16161261 422.9041993 141.90045166 420.87298584 C143.04977716 417.71204826 144.19435089 414.54942118 145.33813477 411.38647461 C148.62065743 402.32212887 151.91602109 393.26489994 155.35620117 384.2590332 C155.59877151 383.62052933 155.84134186 382.98202545 156.09126282 382.32417297 C157.16943589 379.48689397 158.25873016 376.65524417 159.37207031 373.83154297 C159.73937256 372.87046631 160.1066748 371.90938965 160.48510742 370.91918945 C160.80108887 370.11336426 161.11707031 369.30753906 161.44262695 368.47729492 C162.6388539 363.33078795 160.12932306 359.20279279 157.81713867 354.7512207 C155.65568872 348.12612526 157.20695955 342.41754595 159.60229492 336.11450195 C160.25871998 334.31508664 160.91495257 332.51560111 161.57104492 330.71606445 C161.9500293 329.69029297 162.32901367 328.66452148 162.71948242 327.60766602 C164.11056636 323.81350617 165.46866081 320.00851821 166.82104492 316.20043945 C174.13675354 295.63138661 181.66289998 275.14238843 189.23617554 254.66696167 C194.63096262 240.07458171 199.97329222 225.46520462 205.22729492 210.8215332 C205.48691072 210.09806513 205.74652653 209.37459705 206.01400948 208.6292057 C208.55600714 201.54358459 211.09294936 194.45617715 213.62174702 187.36583424 C222.07042848 163.68204082 222.07042848 163.68204082 225.38745117 155.15356445 C225.80260986 154.08444824 226.21776855 153.01533203 226.64550781 151.91381836 C229.20137942 146.66151393 232.3143882 143.31023357 237.57104492 140.9074707 C243.73536938 139.03615792 250.48422576 139.14978272 256.41479492 141.73950195 C261.31352491 144.59709444 264.20826019 148.86989775 265.97729492 154.17700195 C267.6742215 165.52761065 263.17816499 175.46185541 259.28979492 185.86450195 C258.56759759 187.84045963 257.84710417 189.81704077 257.12817383 191.79418945 C255.17535612 197.14862297 253.19837701 202.49381836 251.215271 207.83709717 C249.13747198 213.44273933 247.0759875 219.05437869 245.01245117 224.6652832 C242.41462046 231.72504283 239.81383174 238.78367721 237.20361328 245.83886719 C232.46350393 258.65787188 227.76332274 271.48966144 223.13354492 284.34887695 C222.89077946 285.0230365 222.64801399 285.69719604 222.397892 286.39178467 C219.82540297 293.5373247 217.25950106 300.68519406 214.69946289 307.83520508 C212.58309181 313.74001966 210.45000986 319.63853665 208.30285645 325.53222656 C207.3822689 328.06348201 206.46573348 330.595912 205.55407715 333.13037109 C204.35343311 336.4645247 203.13640187 339.79231557 201.90871048 343.11660004 C201.22502655 344.97871955 200.55616208 346.84625926 199.88778687 348.71392822 C196.99304755 356.4896457 194.13894457 362.62905319 186.91479492 367.05200195 C183.97729492 368.17700195 183.97729492 368.17700195 181.44845581 368.40908813 C178.77092563 368.94073719 178.77092563 368.94073719 177.58792114 371.48519897 C177.22931 372.50932892 176.87069885 373.53345886 176.5012207 374.58862305 C175.87499313 376.32841934 175.87499313 376.32841934 175.2361145 378.10336304 C174.79790597 379.38559448 174.36008086 380.66795702 173.92260742 381.95043945 C173.45510575 383.27177658 172.98574341 384.59245671 172.51461792 385.9125061 C171.2727827 389.40730932 170.05563401 392.91022501 168.84362793 396.41546631 C167.63249697 399.90596846 166.40019867 403.38895679 165.16870117 406.87231445 C163.77076923 410.82897005 162.37640599 414.78665991 160.99636841 418.74960327 C157.44713665 428.93864208 153.73021873 439.0614805 149.97729492 449.17700195 C151.06039586 449.1778191 151.06039586 449.1778191 152.16537762 449.17865276 C169.73392256 449.19361928 187.30218577 449.23606068 204.87058544 449.30909252 C213.36655232 449.34374752 221.86235686 449.3690987 230.35839844 449.37255859 C237.76346779 449.3755978 245.16824808 449.39608211 252.57320577 449.43752652 C256.49426116 449.45886254 260.41490554 449.47145426 264.33601952 449.46315575 C268.02739258 449.45561907 271.7179326 449.47142114 275.40915298 449.5050621 C277.40845357 449.51722613 279.40785666 449.50470048 281.40715027 449.49143982 C291.1795441 449.6166381 291.1795441 449.6166381 294.28129578 452.56147766 C296.13561324 455.42115621 296.61928514 456.9217889 296.64135742 460.30200195 C296.65102539 461.73286133 296.65102539 461.73286133 296.66088867 463.19262695 C296.64155273 464.1774707 296.6222168 465.16231445 296.60229492 466.17700195 C296.62163086 467.1618457 296.6409668 468.14668945 296.66088867 469.16137695 C296.65444336 470.1152832 296.64799805 471.06918945 296.64135742 472.05200195 C296.63289795 473.34750977 296.63289795 473.34750977 296.62426758 474.66918945 C295.65634061 478.42109353 294.06421063 479.87787831 290.97729492 482.17700195 C288.05343201 482.61600623 285.73688547 482.76659093 282.83276367 482.6652832 C282.06297684 482.65820847 281.29319 482.65113373 280.50007629 482.6438446 C278.05397189 482.6159712 275.61020108 482.55325332 273.16479492 482.48950195 C271.50141665 482.46440963 269.8380023 482.44159808 268.17456055 482.42114258 C264.10791335 482.36616866 260.04299904 482.27995122 255.97729492 482.17700195 C256.003479 482.90814209 256.02966309 483.63928223 256.05664062 484.39257812 C256.16079636 487.71633277 256.22568113 491.03974389 256.28979492 494.36450195 C256.33168945 495.51499023 256.37358398 496.66547852 256.41674805 497.85083008 C256.43286133 498.96264648 256.44897461 500.07446289 256.46557617 501.2199707 C256.49176025 502.2411499 256.51794434 503.2623291 256.54492188 504.31445312 C255.73092422 508.41945204 254.38343944 509.76742686 250.97729492 512.17700195 C247.80143621 512.87894691 244.71948183 512.85491099 241.47729492 512.8059082 C240.10734375 512.80952614 240.10734375 512.80952614 238.7097168 512.81321716 C236.78324023 512.81223985 234.85673519 512.79887388 232.93041992 512.77392578 C229.98673818 512.73961203 227.04605903 512.75327348 224.10229492 512.77270508 C222.22728218 512.76580635 220.35227717 512.75613372 218.47729492 512.7434082 C217.60008789 512.74836807 216.72288086 512.75332794 215.8190918 512.75843811 C211.85120453 512.68221275 209.51507377 512.48707264 206.0234375 510.47387695 C203.7900564 507.9668194 202.80093048 506.03471627 201.73901367 502.8605957 C201.39418945 501.84932617 201.04936523 500.83805664 200.6940918 499.79614258 C200.35442383 498.74620117 200.01475586 497.69625977 199.66479492 496.61450195 C199.30579102 495.56069336 198.94678711 494.50688477 198.5769043 493.42114258 C195.97729492 485.66192755 195.97729492 485.66192755 195.97729492 482.17700195 C129.97729492 482.17700195 63.97729492 482.17700195 -4.02270508 482.17700195 C-4.02270508 487.45700195 -4.02270508 492.73700195 -4.02270508 498.17700195 C-6.16852688 504.61446735 -9.05973119 507.9533989 -15.02270508 511.17700195 C-17.88474765 512.13101614 -19.68626478 512.30882881 -22.65751648 512.32417297 C-23.60929276 512.33132828 -24.56106903 512.33848358 -25.54168701 512.34585571 C-27.10563202 512.34988907 -27.10563202 512.34988907 -28.70117188 512.35400391 C-30.35041405 512.3638607 -30.35041405 512.3638607 -32.03297424 512.37391663 C-35.67929144 512.39366094 -39.32556741 512.40531525 -42.97192383 512.4152832 C-44.21689951 512.41935873 -45.46187519 512.42343426 -46.74457741 512.42763329 C-52.65525179 512.44634759 -58.56591307 512.46091153 -64.47660989 512.46924525 C-71.28715773 512.47900746 -78.09737969 512.50530145 -84.90781277 512.54574615 C-90.81578636 512.57962039 -96.72368071 512.59139654 -102.63175392 512.59544945 C-105.13993348 512.60031869 -107.64810948 512.61194217 -110.1562252 512.63048744 C-113.67016841 512.6548533 -117.18326367 512.65391786 -120.69726562 512.64697266 C-121.72977448 512.65978271 -122.76228333 512.67259277 -123.82608032 512.68579102 C-130.9199097 512.63479246 -136.60222129 511.5539127 -141.86254883 506.3605957 C-142.22477539 505.78438477 -142.58700195 505.20817383 -142.96020508 504.61450195 C-143.34047852 504.03571289 -143.72075195 503.45692383 -144.11254883 502.8605957 C-145.7180609 499.8907429 -146.1747106 497.25803363 -146.33911133 493.9465332 C-146.38100586 493.1440918 -146.42290039 492.34165039 -146.46606445 491.51489258 C-146.50538086 490.68151367 -146.54469727 489.84813477 -146.58520508 488.98950195 C-146.62838867 488.14452148 -146.67157227 487.29954102 -146.71606445 486.42895508 C-146.82202026 484.34515762 -146.92285528 482.26110092 -147.02270508 480.17700195 C-148.05008789 479.68071289 -149.0774707 479.18442383 -150.13598633 478.6730957 C-179.57731765 464.31251414 -201.89480735 443.34721568 -215.39379883 413.0168457 C-216.02270508 411.17700195 -216.02270508 411.17700195 -216.02270508 408.17700195 C-203.81270508 408.17700195 -191.60270508 408.17700195 -179.02270508 408.17700195 C-180.81708008 405.86700195 -182.61145508 403.55700195 -184.46020508 401.17700195 C-202.70608274 377.10691722 -212.11035796 352.4304853 -211.02270508 322.17700195 C-178.41045437 320.67082297 -153.40753952 332.29777268 -128.02270508 352.17700195 C-127.9329541 351.43877197 -127.84320313 350.70054199 -127.75073242 349.93994141 C-122.79020143 310.09198976 -111.4800089 270.77067897 -79.16333008 244.2590332 C-77.02270508 243.17700195 -77.02270508 243.17700195 -74.56176758 243.27856445 C-71.56454026 244.33912181 -69.61002606 245.72952428 -67.14770508 247.73950195 C-66.3459082 248.38016602 -65.54411133 249.02083008 -64.71801758 249.6809082 C-62.41612784 251.81265826 -60.40448036 253.96741293 -58.35424805 256.33300781 C-57.41619827 257.41297279 -57.41619827 257.41297279 -56.459198 258.51475525 C-55.98515533 259.06329666 -55.51111267 259.61183807 -55.02270508 260.17700195 C-55.01905945 258.99207153 -55.01541382 257.80714111 -55.01165771 256.58630371 C-54.97467216 245.40436202 -54.91686027 234.22269481 -54.83880234 223.04096222 C-54.79933989 217.29267761 -54.76714519 211.54454591 -54.75170898 205.79614258 C-54.73653454 200.2457233 -54.70207432 194.69572445 -54.65439606 189.14549255 C-54.63959051 187.03091593 -54.63166454 184.91627929 -54.63082123 182.801651 C-54.6284474 179.83321625 -54.60133342 176.86593942 -54.56860352 173.89770508 C-54.57363388 173.02879639 -54.57866425 172.1598877 -54.58384705 171.26464844 C-54.47233533 164.70228675 -52.91747339 159.10912211 -48.20629883 154.3371582 C-47.63008789 153.97493164 -47.05387695 153.61270508 -46.46020508 153.23950195 C-45.59202148 152.6690918 -45.59202148 152.6690918 -44.70629883 152.0871582 C-40.94871437 150.05579584 -37.79525821 150.06038407 -33.60473633 150.0793457 C-31.91054565 150.08309204 -31.91054565 150.08309204 -30.18212891 150.08691406 C-28.74764404 150.09601807 -27.31315918 150.10512207 -25.83520508 150.11450195 C-21.27708008 150.13512695 -16.71895508 150.15575195 -12.02270508 150.17700195 C-12.02270508 139.28700195 -12.02270508 128.39700195 -12.02270508 117.17700195 C-13.34270508 116.51700195 -14.66270508 115.85700195 -16.02270508 115.17700195 C-17.42728245 112.36784721 -17.27165665 110.28889661 -17.02270508 107.17700195 C-15.64770508 104.80200195 -15.64770508 104.80200195 -14.02270508 103.17700195 C-13.36270508 103.17700195 -12.70270508 103.17700195 -12.02270508 103.17700195 C-12.03158752 101.97288162 -12.04046997 100.76876129 -12.04962158 99.52815247 C-12.13068829 88.18361478 -12.19066142 76.83913583 -12.22995377 65.49437428 C-12.25083345 59.66181687 -12.27915856 53.8294932 -12.32446289 47.99707031 C-12.36790629 42.36903776 -12.39183931 36.74123011 -12.40221405 31.11304283 C-12.40960807 28.96521145 -12.42404675 26.81739246 -12.44562531 24.66965675 C-12.47463874 21.6624753 -12.47866187 18.65622455 -12.47680664 15.64892578 C-12.49118774 14.75988052 -12.50556885 13.87083527 -12.52038574 12.95484924 C-12.49279622 8.82521291 -12.36470498 6.7213422 -10.11932373 3.14750671 C-6.70452895 -0.06188445 -4.60568508 0.04057461 0 0 Z " fill="#FECF56" transform="translate(216.022705078125,-0.177001953125)"/>
<path d="M0 0 C4.89872999 2.85759249 7.79346527 7.1303958 9.5625 12.4375 C11.25942658 23.7881087 6.76337007 33.72235345 2.875 44.125 C2.15280266 46.10095768 1.43230925 48.07753882 0.71337891 50.0546875 C-1.2394388 55.40912101 -3.21641791 60.75431641 -5.19952393 66.09759521 C-7.27732294 71.70323738 -9.33880742 77.31487674 -11.40234375 82.92578125 C-14.00017446 89.98554088 -16.60096318 97.04417526 -19.21118164 104.09936523 C-23.95129099 116.91836992 -28.65147218 129.75015949 -33.28125 142.609375 C-33.52401546 143.28353455 -33.76678093 143.95769409 -34.01690292 144.65228271 C-36.58939195 151.79782274 -39.15529386 158.94569211 -41.71533203 166.09570312 C-43.83170311 172.00051771 -45.96478507 177.8990347 -48.11193848 183.79272461 C-49.03252602 186.32398005 -49.94906144 188.85641004 -50.86071777 191.39086914 C-52.06136181 194.72502274 -53.27839305 198.05281362 -54.50608444 201.37709808 C-55.18976837 203.23921759 -55.85863284 205.10675731 -56.52700806 206.97442627 C-59.42174737 214.75014374 -62.27585035 220.88955124 -69.5 225.3125 C-72.4375 226.4375 -72.4375 226.4375 -74.96633911 226.66958618 C-77.64386929 227.20123523 -77.64386929 227.20123523 -78.82687378 229.74569702 C-79.18548492 230.76982697 -79.54409607 231.79395691 -79.91357422 232.84912109 C-80.33105927 234.00898529 -80.74854431 235.16884949 -81.17868042 236.36386108 C-81.61688895 237.64609253 -82.05471407 238.92845507 -82.4921875 240.2109375 C-82.95968917 241.53227463 -83.42905151 242.85295476 -83.900177 244.17300415 C-85.14201222 247.66780736 -86.35916091 251.17072306 -87.57116699 254.67596436 C-88.78229795 258.1664665 -90.01459626 261.64945484 -91.24609375 265.1328125 C-92.64402569 269.08946809 -94.03838893 273.04715795 -95.41842651 277.01010132 C-98.96765827 287.19914013 -102.68457619 297.32197854 -106.4375 307.4375 C-105.35439907 307.43831715 -105.35439907 307.43831715 -104.2494173 307.43915081 C-86.68087236 307.45411733 -69.11260915 307.49655872 -51.54420948 307.56959057 C-43.0482426 307.60424556 -34.55243806 307.62959675 -26.05639648 307.63305664 C-18.65132713 307.63609584 -11.24654684 307.65658016 -3.84158915 307.69802457 C0.07946624 307.71936058 4.00011062 307.73195231 7.92122459 307.72365379 C11.61259765 307.71611712 15.30313768 307.73191919 18.99435806 307.76556015 C20.99365864 307.77772417 22.99306174 307.76519852 24.99235535 307.75193787 C34.76474918 307.87713615 34.76474918 307.87713615 37.86650085 310.82197571 C39.72081832 313.68165426 40.20449021 315.18228694 40.2265625 318.5625 C40.23623047 319.99335937 40.23623047 319.99335937 40.24609375 321.453125 C40.22675781 322.43796875 40.20742188 323.4228125 40.1875 324.4375 C40.20683594 325.42234375 40.22617187 326.4071875 40.24609375 327.421875 C40.23964844 328.37578125 40.23320313 329.3296875 40.2265625 330.3125 C40.21810303 331.60800781 40.21810303 331.60800781 40.20947266 332.9296875 C39.24154569 336.68159158 37.64941571 338.13837636 34.5625 340.4375 C31.63863709 340.87650428 29.32209055 341.02708897 26.41796875 340.92578125 C25.64818192 340.91870651 24.87839508 340.91163177 24.08528137 340.90434265 C21.63917697 340.87646925 19.19540616 340.81375137 16.75 340.75 C15.08662173 340.72490768 13.42320738 340.70209613 11.75976562 340.68164062 C7.69311843 340.62666671 3.62820411 340.54044927 -0.4375 340.4375 C-0.41131592 341.16864014 -0.38513184 341.89978027 -0.3581543 342.65307617 C-0.25399856 345.97683082 -0.18911379 349.30024194 -0.125 352.625 C-0.08310547 353.77548828 -0.04121094 354.92597656 0.00195312 356.11132812 C0.01806641 357.22314453 0.03417969 358.33496094 0.05078125 359.48046875 C0.07696533 360.50164795 0.10314941 361.52282715 0.13012695 362.57495117 C-0.6838707 366.67995009 -2.03135548 368.0279249 -5.4375 370.4375 C-8.61335872 371.13944495 -11.69531309 371.11540904 -14.9375 371.06640625 C-16.30745117 371.07002419 -16.30745117 371.07002419 -17.70507812 371.07371521 C-19.63155469 371.0727379 -21.55805973 371.05937193 -23.484375 371.03442383 C-26.42805674 371.00011008 -29.36873589 371.01377153 -32.3125 371.03320312 C-34.18751274 371.02630439 -36.06251775 371.01663177 -37.9375 371.00390625 C-38.81470703 371.00886612 -39.69191406 371.01382599 -40.59570312 371.01893616 C-44.56359039 370.9427108 -46.89972115 370.74757069 -50.39135742 368.734375 C-52.62473852 366.22731745 -53.61386444 364.29521431 -54.67578125 361.12109375 C-55.02060547 360.10982422 -55.36542969 359.09855469 -55.72070312 358.05664062 C-56.06037109 357.00669922 -56.40003906 355.95675781 -56.75 354.875 C-57.10900391 353.82119141 -57.46800781 352.76738281 -57.83789062 351.68164062 C-60.4375 343.9224256 -60.4375 343.9224256 -60.4375 340.4375 C-126.4375 340.4375 -192.4375 340.4375 -260.4375 340.4375 C-260.4375 345.7175 -260.4375 350.9975 -260.4375 356.4375 C-262.5833218 362.8749654 -265.47452611 366.21389695 -271.4375 369.4375 C-274.29954257 370.39151419 -276.1010597 370.56932686 -279.0723114 370.58467102 C-280.02408768 370.59182632 -280.97586395 370.59898163 -281.95648193 370.60635376 C-283.52042694 370.61038712 -283.52042694 370.61038712 -285.1159668 370.61450195 C-286.21546158 370.62107315 -287.31495636 370.62764435 -288.44776917 370.63441467 C-292.09408636 370.65415898 -295.74036234 370.66581329 -299.38671875 370.67578125 C-300.63169443 370.67985678 -301.87667011 370.6839323 -303.15937233 370.68813133 C-309.07004671 370.70684563 -314.98070799 370.72140958 -320.89140481 370.7297433 C-327.70195266 370.73950551 -334.51217461 370.7657995 -341.3226077 370.80624419 C-347.23058128 370.84011843 -353.13847563 370.85189459 -359.04654884 370.85594749 C-361.5547284 370.86081673 -364.0629044 370.87244022 -366.57102013 370.89098549 C-370.08496333 370.91535135 -373.5980586 370.91441591 -377.11206055 370.9074707 C-378.1445694 370.92028076 -379.17707825 370.93309082 -380.24087524 370.94628906 C-387.33470462 370.8952905 -393.01701621 369.81441075 -398.27734375 364.62109375 C-398.63957031 364.04488281 -399.00179687 363.46867187 -399.375 362.875 C-399.75527344 362.29621094 -400.13554687 361.71742188 -400.52734375 361.12109375 C-402.13285582 358.15124095 -402.58950552 355.51853168 -402.75390625 352.20703125 C-402.79580078 351.40458984 -402.83769531 350.60214844 -402.88085938 349.77539062 C-402.92017578 348.94201172 -402.95949219 348.10863281 -403 347.25 C-403.04318359 346.40501953 -403.08636719 345.56003906 -403.13085938 344.68945312 C-403.23681518 342.60565567 -403.3376502 340.52159897 -403.4375 338.4375 C-404.46488281 337.94121094 -405.49226563 337.44492187 -406.55078125 336.93359375 C-435.99211257 322.57301219 -458.30960227 301.60771373 -471.80859375 271.27734375 C-472.4375 269.4375 -472.4375 269.4375 -472.4375 266.4375 C-379.3775 266.4375 -286.3175 266.4375 -190.4375 266.4375 C-196.23590698 281.51335816 -203.87895887 295.87895887 -215.4375 307.4375 C-185.4075 307.7675 -155.3775 308.0975 -124.4375 308.4375 C-122.9525 303.4875 -122.9525 303.4875 -121.4375 298.4375 C-120.8752025 296.75744328 -120.29901047 295.08179961 -119.69506836 293.41625977 C-119.38690689 292.56231125 -119.07874542 291.70836273 -118.76124573 290.82853699 C-118.27421425 289.49221977 -118.27421425 289.49221977 -117.77734375 288.12890625 C-117.43078232 287.17176224 -117.08422089 286.21461823 -116.72715759 285.22846985 C-115.99081365 283.19635055 -115.25318231 281.16469734 -114.51434326 279.13348389 C-113.36501776 275.97254631 -112.22044403 272.80991923 -111.07666016 269.64697266 C-107.79413749 260.58262691 -104.49877383 251.52539799 -101.05859375 242.51953125 C-100.81602341 241.88102737 -100.57345306 241.2425235 -100.3235321 240.58467102 C-99.24535903 237.74739202 -98.15606476 234.91574222 -97.04272461 232.09204102 C-96.49177124 230.65042603 -96.49177124 230.65042603 -95.9296875 229.1796875 C-95.61370605 228.3738623 -95.29772461 227.56803711 -94.97216797 226.73779297 C-93.77594102 221.591286 -96.28547186 217.46329083 -98.59765625 213.01171875 C-100.7591062 206.38662331 -99.20783537 200.678044 -96.8125 194.375 C-96.15607494 192.57558468 -95.49984235 190.77609915 -94.84375 188.9765625 C-94.46476562 187.95079102 -94.08578125 186.92501953 -93.6953125 185.86816406 C-92.30422856 182.07400422 -90.94613411 178.26901626 -89.59375 174.4609375 C-82.27804138 153.89188465 -74.75189495 133.40288648 -67.17861938 112.92745972 C-61.7838323 98.33507976 -56.4415027 83.72570266 -51.1875 69.08203125 C-50.9278842 68.35856318 -50.66826839 67.6350951 -50.40078545 66.88970375 C-47.85878779 59.80408263 -45.32184556 52.71667519 -42.7930479 45.62633228 C-34.34436644 21.94253887 -34.34436644 21.94253887 -31.02734375 13.4140625 C-30.61218506 12.34494629 -30.19702637 11.27583008 -29.76928711 10.17431641 C-27.2134155 4.92201197 -24.10040672 1.57073162 -18.84375 -0.83203125 C-12.67942554 -2.70334403 -5.93056916 -2.58971924 0 0 Z " fill="#925F43" transform="translate(472.4375,141.5625)"/>
<path d="M0 0 C12.37360271 4.36603239 21.17332532 18.16568078 27.53515625 28.89453125 C27.88191406 29.45462891 28.22867188 30.01472656 28.5859375 30.59179688 C43.13449831 54.11111338 51.59399898 83.12932179 50.53515625 110.89453125 C51.50453125 110.13269531 52.47390625 109.37085938 53.47265625 108.5859375 C62.72942692 101.41575787 72.12404849 95.2503843 82.53515625 89.89453125 C83.94667969 89.15783203 83.94667969 89.15783203 85.38671875 88.40625 C97.56882849 82.46241096 111.22858057 78.69504457 124.78515625 78.76953125 C125.50445312 78.76566406 126.22375 78.76179688 126.96484375 78.7578125 C132.28163181 78.76776903 132.28163181 78.76776903 134.53515625 79.89453125 C140.37130027 95.86910494 132.16764096 115.36939592 125.51660156 129.80761719 C121.45688079 138.44007817 116.58157154 146.54690563 110.77499104 154.12720585 C109.45204273 155.91069451 109.45204273 155.91069451 108.45476818 158.14420986 C106.52218412 161.5580428 104.63303155 164.28124737 100.70802712 165.42866635 C94.8289085 166.35691415 88.86391503 166.19569727 82.92895508 166.17016602 C80.90796421 166.19383338 78.88701394 166.2212164 76.86611938 166.25202942 C71.38419194 166.32291558 65.90358815 166.3358562 60.42125535 166.33398175 C55.83896332 166.33659523 51.25695962 166.36477269 46.67475909 166.39205307 C35.85843187 166.45493444 25.04279275 166.46804647 14.22631836 166.45239258 C3.08416013 166.43731955 -8.05471478 166.51462531 -19.19614619 166.63625103 C-28.774494 166.73702841 -38.35178207 166.77567352 -47.93065244 166.76598018 C-53.64632876 166.76108926 -59.35932228 166.78036345 -65.07448387 166.86129951 C-70.45494204 166.93515017 -75.82995624 166.93118677 -81.21050644 166.86889458 C-83.17768696 166.85897412 -85.14522948 166.87602949 -87.11187553 166.92294312 C-101.48813136 167.24260842 -101.48813136 167.24260842 -106.41023469 163.35997653 C-110.55785915 159.03670386 -113.54492096 154.09067974 -116.46484375 148.89453125 C-117.32275548 147.46749906 -118.1847151 146.04289136 -119.05101299 144.62093449 C-131.91367739 123.40607787 -137.35635383 103.69222712 -136.46484375 78.89453125 C-103.85259304 77.38835227 -78.84967819 89.01530198 -53.46484375 108.89453125 C-53.33021729 107.78718628 -53.33021729 107.78718628 -53.19287109 106.6574707 C-48.2323401 66.80951906 -36.92214757 27.48820827 -4.60546875 0.9765625 C-2.46484375 -0.10546875 -2.46484375 -0.10546875 0 0 Z " fill="#FFDB93" transform="translate(141.46484375,243.10546875)"/>
<path d="M0 0 C93.06 0 186.12 0 282 0 C269.63398263 32.15164516 247.92056799 54.71826718 217.16796875 69.6015625 C214 71 214 71 212 71 C212.04640625 72.27875 212.0928125 73.5575 212.140625 74.875 C212.17817027 76.58330979 212.21456745 78.29164508 212.25 80 C212.30027344 81.25876953 212.30027344 81.25876953 212.3515625 82.54296875 C212.44512498 88.57774868 211.43281361 92.97744327 208 98 C206.18359375 99.83984375 206.18359375 99.83984375 204.4375 100.9375 C203.85871094 101.31777344 203.27992188 101.69804687 202.68359375 102.08984375 C199.51623341 103.80212904 196.89155982 104.12896011 193.3651886 104.14717102 C191.93752419 104.15790398 191.93752419 104.15790398 190.48101807 104.16885376 C188.91707306 104.17288712 188.91707306 104.17288712 187.3215332 104.17700195 C186.22203842 104.18357315 185.12254364 104.19014435 183.98973083 104.19691467 C180.34341364 104.21665898 176.69713766 104.22831329 173.05078125 104.23828125 C171.80580557 104.24235678 170.56082989 104.2464323 169.27812767 104.25063133 C163.36745329 104.26934563 157.45679201 104.28390958 151.54609519 104.2922433 C144.73554734 104.30200551 137.92532539 104.3282995 131.1148923 104.36874419 C125.20691872 104.40261843 119.29902437 104.41439459 113.39095116 104.41844749 C110.8827716 104.42331673 108.3745956 104.43494022 105.86647987 104.45348549 C102.35253667 104.47785135 98.8394414 104.47691591 95.32543945 104.4699707 C94.2929306 104.48278076 93.26042175 104.49559082 92.19662476 104.50878906 C85.10279538 104.4577905 79.42048379 103.37691075 74.16015625 98.18359375 C73.79792969 97.60738281 73.43570313 97.03117187 73.0625 96.4375 C72.68222656 95.85871094 72.30195312 95.27992188 71.91015625 94.68359375 C70.30464418 91.71374095 69.84799448 89.08103168 69.68359375 85.76953125 C69.64169922 84.96708984 69.59980469 84.16464844 69.55664062 83.33789062 C69.51732422 82.50451172 69.47800781 81.67113281 69.4375 80.8125 C69.39431641 79.96751953 69.35113281 79.12253906 69.30664062 78.25195312 C69.20068482 76.16815567 69.0998498 74.08409897 69 72 C67.45892578 71.25556641 67.45892578 71.25556641 65.88671875 70.49609375 C36.44538743 56.13551219 14.12789773 35.17021373 0.62890625 4.83984375 C0 3 0 3 0 0 Z " fill="#FE7E53" transform="translate(0,408)"/>
<path d="M0 0 C1.2650386 -0.01283524 2.53007721 -0.02567047 3.83345032 -0.03889465 C5.22123829 -0.04706227 6.60903069 -0.05450596 7.99682617 -0.0612793 C9.04383981 -0.06739259 9.04383981 -0.06739259 10.11200523 -0.07362938 C13.80708902 -0.09449026 17.50213568 -0.10879138 21.19726562 -0.11816406 C25.01063097 -0.12922377 28.82341202 -0.16361758 32.63657093 -0.20333576 C35.57143729 -0.22950496 38.50616455 -0.23785615 41.44113731 -0.24144554 C42.84654368 -0.24631145 44.25194384 -0.25792575 45.6572361 -0.27648354 C47.62681613 -0.30087456 49.59668039 -0.2974902 51.56640625 -0.29296875 C53.24613274 -0.30176811 53.24613274 -0.30176811 54.95979309 -0.31074524 C58.65972808 0.28731004 60.31303517 1.59431901 62.97729492 4.17700195 C64.69080483 7.60402176 64.10588475 11.53799998 64.09082031 15.30834961 C64.09096634 16.25473801 64.09111237 17.2011264 64.09126282 18.17619324 C64.09056434 21.3145067 64.08277494 24.45276132 64.07495117 27.59106445 C64.07308676 29.76296964 64.07166297 31.93487525 64.07066345 34.10678101 C64.06684008 39.83114782 64.05701132 45.55548938 64.04595947 51.27984619 C64.03574149 57.11795714 64.031165 62.95607215 64.02612305 68.79418945 C64.01538891 80.25513807 63.99831463 91.71606791 63.97729492 103.17700195 C64.61666992 103.46575195 65.25604492 103.75450195 65.91479492 104.05200195 C67.97729492 105.17700195 67.97729492 105.17700195 68.97729492 107.17700195 C69.27389042 110.58785017 69.33631629 112.55687413 67.60229492 115.55200195 C67.06604492 116.08825195 66.52979492 116.62450195 65.97729492 117.17700195 C65.31729492 117.17700195 64.65729492 117.17700195 63.97729492 117.17700195 C63.97729492 128.06700195 63.97729492 138.95700195 63.97729492 150.17700195 C72.83229515 150.01953895 72.83229515 150.01953895 81.6862793 149.81665039 C88.93956423 149.75177681 93.89871076 150.08355731 99.97729492 154.17700195 C101.81713867 155.9934082 101.81713867 155.9934082 102.91479492 157.73950195 C103.48520508 158.60768555 103.48520508 158.60768555 104.06713867 159.4934082 C105.77091537 162.64502948 106.10043077 165.23241843 106.09082031 168.74023438 C106.09074478 169.66096237 106.09066925 170.58169037 106.09059143 171.53031921 C106.08543015 172.52102921 106.08026886 173.5117392 106.07495117 174.5324707 C106.07282875 176.05763054 106.07282875 176.05763054 106.07066345 177.61360168 C106.06506199 180.86393159 106.05250925 184.11419284 106.03979492 187.36450195 C106.03478011 189.56697492 106.03021717 191.76944896 106.02612305 193.97192383 C106.01509209 199.37364 105.99835254 204.77531607 105.97729492 210.17700195 C99.14659848 210.48234766 92.31766898 210.69182054 85.48168945 210.83618164 C83.15908062 210.89637465 80.83692371 210.97815699 78.51586914 211.08227539 C59.72688405 211.90373981 59.72688405 211.90373981 55.18603516 209.05209351 C52.08825228 205.95086234 50.55987125 202.19154892 48.97729492 198.17700195 C47.7743331 196.33833768 47.7743331 196.33833768 46.50854492 194.9152832 C45.83823242 194.11477539 45.16791992 193.31426758 44.47729492 192.48950195 C42.98703109 190.71046727 41.48718152 188.93941313 39.97729492 187.17700195 C39.23737305 186.31333008 38.49745117 185.4496582 37.73510742 184.55981445 C32.97089709 178.6833087 32.97089709 178.6833087 26.28979492 175.61450195 C14.45368297 177.62440776 5.68997318 194.43187329 -0.83666992 203.58154297 C-3.09930438 206.77522448 -3.09930438 206.77522448 -5.02270508 210.17700195 C-21.19270508 210.17700195 -37.36270508 210.17700195 -54.02270508 210.17700195 C-54.10520508 202.75200195 -54.18770508 195.32700195 -54.27270508 187.67700195 C-54.30912109 185.34831055 -54.34553711 183.01961914 -54.38305664 180.62036133 C-54.39475009 178.75383422 -54.40494036 176.88729683 -54.41333008 175.02075195 C-54.43379395 174.06845703 -54.45425781 173.11616211 -54.4753418 172.13500977 C-54.47895699 165.15769094 -53.23785136 159.433634 -48.20629883 154.3371582 C-47.63008789 153.97493164 -47.05387695 153.61270508 -46.46020508 153.23950195 C-45.59202148 152.6690918 -45.59202148 152.6690918 -44.70629883 152.0871582 C-40.94871437 150.05579584 -37.79525821 150.06038407 -33.60473633 150.0793457 C-31.91054565 150.08309204 -31.91054565 150.08309204 -30.18212891 150.08691406 C-28.74764404 150.09601807 -27.31315918 150.10512207 -25.83520508 150.11450195 C-21.27708008 150.13512695 -16.71895508 150.15575195 -12.02270508 150.17700195 C-12.02270508 139.28700195 -12.02270508 128.39700195 -12.02270508 117.17700195 C-13.34270508 116.51700195 -14.66270508 115.85700195 -16.02270508 115.17700195 C-17.42728245 112.36784721 -17.27165665 110.28889661 -17.02270508 107.17700195 C-15.64770508 104.80200195 -15.64770508 104.80200195 -14.02270508 103.17700195 C-13.36270508 103.17700195 -12.70270508 103.17700195 -12.02270508 103.17700195 C-12.03158752 101.97288162 -12.04046997 100.76876129 -12.04962158 99.52815247 C-12.13068829 88.18361478 -12.19066142 76.83913583 -12.22995377 65.49437428 C-12.25083345 59.66181687 -12.27915856 53.8294932 -12.32446289 47.99707031 C-12.36790629 42.36903776 -12.39183931 36.74123011 -12.40221405 31.11304283 C-12.40960807 28.96521145 -12.42404675 26.81739246 -12.44562531 24.66965675 C-12.47463874 21.6624753 -12.47866187 18.65622455 -12.47680664 15.64892578 C-12.4983783 14.31535789 -12.4983783 14.31535789 -12.52038574 12.95484924 C-12.49279622 8.82521291 -12.36470498 6.7213422 -10.11932373 3.14750671 C-6.70452895 -0.06188445 -4.60568508 0.04057461 0 0 Z " fill="#B48753" transform="translate(216.022705078125,-0.177001953125)"/>
<path d="M0 0 C0.95177628 -0.0071553 1.90355255 -0.01431061 2.88417053 -0.02168274 C3.92680054 -0.02437164 4.96943054 -0.02706055 6.0436554 -0.02983093 C7.14315018 -0.03640213 8.24264496 -0.04297333 9.37545776 -0.04974365 C13.02177496 -0.06948796 16.66805093 -0.08114227 20.31440735 -0.09111023 C21.55938303 -0.09518576 22.80435871 -0.09926128 24.08706093 -0.10346031 C29.99773531 -0.12217461 35.90839659 -0.13673856 41.81909341 -0.14507228 C48.62964125 -0.15483449 55.43986321 -0.18112848 62.25029629 -0.22157317 C68.15826988 -0.25544741 74.06616423 -0.26722357 79.97423744 -0.27127647 C82.482417 -0.27614571 84.990593 -0.2877692 87.49870872 -0.30631447 C91.01265193 -0.33068033 94.52574719 -0.32974489 98.03974915 -0.32279968 C99.072258 -0.33560974 100.10476685 -0.3484198 101.16856384 -0.36161804 C108.96399882 -0.30557554 114.20023466 1.41380171 120.1151886 6.52217102 C125.14452252 12.38972726 127.51085773 16.5999414 127.4276886 24.33467102 C127.41866516 25.42135071 127.40964172 26.5080304 127.40034485 27.62763977 C127.3829425 28.87480774 127.3829425 28.87480774 127.3651886 30.14717102 C127.98973938 30.12622375 128.61429016 30.10527649 129.25776672 30.08369446 C132.1267392 29.99981258 134.99545268 29.94828591 137.8651886 29.89717102 C138.84745422 29.8636554 139.82971985 29.83013977 140.8417511 29.79560852 C148.84464037 29.68890333 154.04838236 31.28265654 160.1151886 36.52217102 C166.43013392 43.88960723 167.72513671 49.08158785 167.6464386 58.62373352 C167.06871438 65.86133416 163.8276615 70.46505139 158.3651886 75.14717102 C152.22587469 79.56747703 147.94774175 80.3008385 140.5226593 80.32417297 C139.61823593 80.33074417 138.71381256 80.33731537 137.78198242 80.34408569 C134.78497739 80.3638164 131.7880225 80.37548176 128.79096985 80.38545227 C127.25448319 80.39156556 127.25448319 80.39156556 125.68695641 80.39780235 C120.26370317 80.41866366 114.84047523 80.43296426 109.41719055 80.44233704 C103.82295965 80.45339223 98.22912752 80.48778191 92.63503742 80.52750874 C88.32751744 80.55369076 84.02009217 80.56203037 79.71249962 80.56561852 C77.65088907 80.57048156 75.58928267 80.58208746 73.52775002 80.60065651 C70.63641173 80.62507786 67.74610101 80.62407717 64.85469055 80.61714172 C64.00919647 80.62995178 63.16370239 80.64276184 62.29258728 80.65596008 C55.12716964 80.59357815 50.02982142 78.44844482 44.6151886 73.77217102 C39.58585468 67.90461478 37.21951946 63.69440064 37.3026886 55.95967102 C37.31171204 54.87299133 37.32073547 53.78631165 37.33003235 52.66670227 C37.34163391 51.83525696 37.35323547 51.00381165 37.3651886 50.14717102 C36.14525208 50.1733551 34.92531555 50.19953918 33.66841125 50.22651672 C29.10252024 50.31764575 24.53670807 50.37464644 19.97016907 50.42182922 C18.00128113 50.44683149 16.03248467 50.48084502 14.06391907 50.52436829 C-7.61784992 50.99141095 -7.61784992 50.99141095 -14.6348114 45.14717102 C-21.42616721 37.85085262 -23.10665067 31.5065602 -22.95121765 21.60029602 C-22.29201201 14.4060023 -19.07556874 9.81067731 -13.6348114 5.14717102 C-8.99674922 1.80776625 -5.71673353 0.0295224 0 0 Z " fill="#FFDB93" transform="translate(344.6348114013672,29.852828979492188)"/>
<path d="M0 0 C4.89872999 2.85759249 7.79346527 7.1303958 9.5625 12.4375 C11.25942658 23.7881087 6.76337007 33.72235345 2.875 44.125 C2.15280266 46.10095768 1.43230925 48.07753882 0.71337891 50.0546875 C-1.2394388 55.40912101 -3.21641791 60.75431641 -5.19952393 66.09759521 C-7.27732294 71.70323738 -9.33880742 77.31487674 -11.40234375 82.92578125 C-14.00017446 89.98554088 -16.60096318 97.04417526 -19.21118164 104.09936523 C-23.95129099 116.91836992 -28.65147218 129.75015949 -33.28125 142.609375 C-33.52401546 143.28353455 -33.76678093 143.95769409 -34.01690292 144.65228271 C-36.58939195 151.79782274 -39.15529386 158.94569211 -41.71533203 166.09570312 C-43.83170311 172.00051771 -45.96478507 177.8990347 -48.11193848 183.79272461 C-49.03252602 186.32398005 -49.94906144 188.85641004 -50.86071777 191.39086914 C-52.06136181 194.72502274 -53.27839305 198.05281362 -54.50608444 201.37709808 C-55.18976837 203.23921759 -55.85863284 205.10675731 -56.52700806 206.97442627 C-59.4139246 214.72913056 -62.26465332 220.42916867 -69.125 225.375 C-76.04499306 227.59462042 -82.27388378 227.34092148 -88.875 224.25 C-93.7495938 221.49983297 -96.40120122 218.76917225 -98.6875 213.625 C-100.34651949 206.57416717 -99.34641974 201.0427125 -96.8125 194.375 C-96.15607494 192.57558468 -95.49984235 190.77609915 -94.84375 188.9765625 C-94.46476562 187.95079102 -94.08578125 186.92501953 -93.6953125 185.86816406 C-92.30422856 182.07400422 -90.94613411 178.26901626 -89.59375 174.4609375 C-82.27804138 153.89188465 -74.75189495 133.40288648 -67.17861938 112.92745972 C-61.7838323 98.33507976 -56.4415027 83.72570266 -51.1875 69.08203125 C-50.9278842 68.35856318 -50.66826839 67.6350951 -50.40078545 66.88970375 C-47.85878779 59.80408263 -45.32184556 52.71667519 -42.7930479 45.62633228 C-34.34436644 21.94253887 -34.34436644 21.94253887 -31.02734375 13.4140625 C-30.61218506 12.34494629 -30.19702637 11.27583008 -29.76928711 10.17431641 C-27.2134155 4.92201197 -24.10040672 1.57073162 -18.84375 -0.83203125 C-12.67942554 -2.70334403 -5.93056916 -2.58971924 0 0 Z " fill="#FFCE55" transform="translate(472.4375,141.5625)"/>
<path d="M0 0 C1.89755791 -0.01925285 1.89755791 -0.01925285 3.83345032 -0.03889465 C5.22123829 -0.04706227 6.60903069 -0.05450596 7.99682617 -0.0612793 C9.04383981 -0.06739259 9.04383981 -0.06739259 10.11200523 -0.07362938 C13.80708902 -0.09449026 17.50213568 -0.10879138 21.19726562 -0.11816406 C25.01063097 -0.12922377 28.82341202 -0.16361758 32.63657093 -0.20333576 C35.57143729 -0.22950496 38.50616455 -0.23785615 41.44113731 -0.24144554 C42.84654368 -0.24631145 44.25194384 -0.25792575 45.6572361 -0.27648354 C47.62681613 -0.30087456 49.59668039 -0.2974902 51.56640625 -0.29296875 C53.24613274 -0.30176811 53.24613274 -0.30176811 54.95979309 -0.31074524 C58.65972808 0.28731004 60.31303517 1.59431901 62.97729492 4.17700195 C64.69080483 7.60402176 64.10588475 11.53799998 64.09082031 15.30834961 C64.09096634 16.25473801 64.09111237 17.2011264 64.09126282 18.17619324 C64.09056434 21.3145067 64.08277494 24.45276132 64.07495117 27.59106445 C64.07308676 29.76296964 64.07166297 31.93487525 64.07066345 34.10678101 C64.06684008 39.83114782 64.05701132 45.55548938 64.04595947 51.27984619 C64.03394587 58.14389524 64.02934225 65.00795273 64.02350616 71.87200928 C64.01379949 82.30702442 63.99464165 92.74198411 63.97729492 103.17700195 C38.89729492 103.17700195 13.81729492 103.17700195 -12.02270508 103.17700195 C-12.18314032 79.1696513 -12.18314032 79.1696513 -12.21801758 68.94067383 C-12.24193419 61.95934906 -12.27023552 54.97823401 -12.32446289 47.99707031 C-12.36790629 42.36903776 -12.39183931 36.74123011 -12.40221405 31.11304283 C-12.40960807 28.96521145 -12.42404675 26.81739246 -12.44562531 24.66965675 C-12.47463874 21.6624753 -12.47866187 18.65622455 -12.47680664 15.64892578 C-12.49118774 14.75988052 -12.50556885 13.87083527 -12.52038574 12.95484924 C-12.49279622 8.82521291 -12.36470498 6.7213422 -10.11932373 3.14750671 C-6.70452895 -0.06188445 -4.60568508 0.04057461 0 0 Z " fill="#925F42" transform="translate(216.022705078125,-0.177001953125)"/>
<path d="M0 0 C10.56 0 21.12 0 32 0 C32 79.2 32 158.4 32 240 C21.44 240 10.88 240 0 240 C0 160.8 0 81.6 0 0 Z " fill="#FFB154" transform="translate(290,210)"/>
<path d="M0 0 C12.20105304 2.44021061 22.77635968 21.11358459 29.33203125 30.9296875 C39.60459381 47.31079108 46.86970956 62.92005682 44.125 82.625 C42.69971743 87.10038726 40.77459827 90.76179676 38.125 94.625 C37.74214844 95.223125 37.35929687 95.82125 36.96484375 96.4375 C30.89966549 104.78527223 19.9377621 110.3620569 10.125 112.625 C-5.26782958 114.39128575 -17.3826009 111.95755697 -29.875 102.625 C-30.926875 101.8825 -31.97875 101.14 -33.0625 100.375 C-39.77766948 93.80905651 -44.07683813 85.48174733 -44.25561523 76.09057617 C-44.1916851 48.01968955 -26.92806653 24.12146439 -7.875 4.625 C-3.48749052 0.75815011 -3.48749052 0.75815011 0 0 Z " fill="#FEFCD6" transform="translate(241.875,174.375)"/>
<path d="M0 0 C32.60646128 -1.5059116 59.1853534 10.0742664 84 31 C101.06654529 46.58551737 115.72922181 63.19908054 126 84 C126 84.66 126 85.32 126 86 C113.9522393 86.37190043 101.90585812 86.65558508 89.85351181 86.82899475 C84.25573783 86.9122599 78.66190903 87.02501702 73.06640625 87.20703125 C67.65842744 87.38182993 62.25422241 87.47672762 56.84363556 87.51803589 C54.78754494 87.5474391 52.73164501 87.60487004 50.67717743 87.69168091 C35.08536533 88.32386485 35.08536533 88.32386485 29.98472595 84.4821167 C25.78540738 80.1904188 22.87154138 75.23065251 20 70 C19.14603397 68.57125021 18.28603956 67.14608374 17.4196167 65.72485352 C4.53571316 44.52969078 -0.89106328 24.78526787 0 0 Z " fill="#FFF3AA" transform="translate(5,322)"/>
<path d="M0 0 C0.71929687 -0.00386719 1.43859375 -0.00773437 2.1796875 -0.01171875 C7.49647556 -0.00176222 7.49647556 -0.00176222 9.75 1.125 C15.58614402 17.09957369 7.38248471 36.59986467 0.73144531 51.03808594 C-3.32601339 59.66573693 -8.19070708 67.79421554 -14.01571655 75.35612488 C-15.33826681 77.13775769 -15.33826681 77.13775769 -16.28042603 79.3886261 C-17.96353267 82.46405884 -19.36104759 84.09365382 -22.25 86.125 C-29.01847906 87.85568946 -36.35863218 87.16798621 -43.27734375 87.00390625 C-45.35239396 86.98710889 -47.42748 86.97430304 -49.50257874 86.96531677 C-54.95003749 86.93104121 -60.39531779 86.84271252 -65.84191895 86.74298096 C-71.40538056 86.6507201 -76.96919612 86.60976768 -82.53320312 86.56445312 C-93.43975642 86.46808638 -104.34469669 86.3145914 -115.25 86.125 C-104.48450772 52.36476823 -69.58412805 25.47639484 -39.51953125 9.69140625 C-27.2728058 3.74405546 -13.6231104 -0.07485225 0 0 Z " fill="#FFF3AA" transform="translate(266.25,321.875)"/>
<path d="M0 0 C13.2 0 26.4 0 40 0 C27.63398263 32.15164516 5.92056799 54.71826718 -24.83203125 69.6015625 C-28 71 -28 71 -30 71 C-29.95359375 72.27875 -29.9071875 73.5575 -29.859375 74.875 C-29.82182973 76.58330979 -29.78543255 78.29164508 -29.75 80 C-29.71648437 80.83917969 -29.68296875 81.67835938 -29.6484375 82.54296875 C-29.55487502 88.57774868 -30.56718639 92.97744327 -34 98 C-35.81640625 99.83984375 -35.81640625 99.83984375 -37.5625 100.9375 C-38.14128906 101.31777344 -38.72007812 101.69804687 -39.31640625 102.08984375 C-42.33498804 103.72169887 -44.83447782 104.12362019 -48.19604492 104.11352539 C-49.03668991 104.11344986 -49.8773349 104.11337433 -50.74345398 104.11329651 C-51.64666885 104.10813522 -52.54988373 104.10297394 -53.48046875 104.09765625 C-54.40845779 104.0962413 -55.33644684 104.09482635 -56.29255676 104.09336853 C-59.25757058 104.08776937 -62.22250899 104.07521704 -65.1875 104.0625 C-67.19726453 104.05748489 -69.20703025 104.052922 -71.21679688 104.04882812 C-76.14456032 104.03780021 -81.07226737 104.02053617 -86 104 C-85.37746338 103.69296143 -84.75492676 103.38592285 -84.11352539 103.06958008 C-82.10698062 102.05413909 -80.28993529 100.95975422 -78.4375 99.6875 C-77.85871094 99.29949219 -77.27992188 98.91148437 -76.68359375 98.51171875 C-72.5263158 94.77884968 -71.52015939 90.57659845 -70.8125 85.1875 C-70.65394531 84.02605469 -70.49539062 82.86460937 -70.33203125 81.66796875 C-70.22246094 80.78753906 -70.11289063 79.90710938 -70 79 C-71.28165039 79.02618408 -72.56330078 79.05236816 -73.88378906 79.0793457 C-78.63963356 79.1698571 -83.39540198 79.22725295 -88.15185547 79.2746582 C-90.21025393 79.29980019 -92.26856314 79.33391876 -94.32666016 79.37719727 C-97.28570569 79.4378627 -100.24357103 79.46621261 -103.203125 79.48828125 C-104.58301605 79.52699089 -104.58301605 79.52699089 -105.99078369 79.56648254 C-112.36221758 79.56927854 -112.36221758 79.56927854 -115.61621094 76.66479492 C-117 74 -117 74 -116.9375 70.875 C-115.96060297 67.87918243 -115.46761096 66.8597681 -113 65 C-110.54258728 64.64164734 -110.54258728 64.64164734 -107.58569336 64.6628418 C-106.47701401 64.66241379 -105.36833466 64.66198578 -104.22605896 64.6615448 C-103.02610794 64.6739772 -101.82615692 64.68640961 -100.58984375 64.69921875 C-98.04752345 64.69157222 -95.50520558 64.68308156 -92.96289062 64.67382812 C-88.95582886 64.67603317 -84.94959709 64.68741646 -80.94262695 64.71508789 C-77.07453675 64.73589565 -73.20790579 64.71971517 -69.33984375 64.69921875 C-67.56117165 64.72697639 -67.56117165 64.72697639 -65.74656677 64.7552948 C-57.58602457 64.68395878 -52.53720972 62.84405665 -46 58 C-45.39977524 57.58431259 -44.79955048 57.16862518 -44.18113708 56.74034119 C-23.45036536 42.13713671 -10.51446905 22.78134961 0 0 Z " fill="#EF6C4A" transform="translate(242,408)"/>
<path d="M0 0 C10.34430764 -0.06952787 20.68855963 -0.12282548 31.0330534 -0.15543652 C35.83649134 -0.17108864 40.63976934 -0.1923187 45.44311523 -0.22631836 C50.07911055 -0.25892789 54.71495208 -0.27685643 59.35105324 -0.28463173 C61.11928541 -0.29017237 62.88750923 -0.30099191 64.65567589 -0.31719017 C67.1335096 -0.33898578 69.61070881 -0.34196606 72.08862305 -0.34057617 C72.81870575 -0.351362 73.54878845 -0.36214783 74.30099487 -0.3732605 C78.72529412 -0.34642869 81.45731395 0.3311188 85 3 C87.89938822 6.01993171 88.33723923 8.1216152 88.4375 12.25 C88.79322944 17.36703122 89.56871214 22.01406561 93 26 C98.90308065 30.12250233 105.38814109 29.46762678 112.359375 29.46875 C114.30870941 29.48017029 114.30870941 29.48017029 116.29742432 29.49182129 C119.04439942 29.50523415 121.79108735 29.50685065 124.53808594 29.50097656 C128.03277107 29.49509871 131.52605809 29.52560401 135.02047348 29.56609344 C138.38348083 29.59840372 141.7462135 29.59385394 145.109375 29.59375 C146.35136658 29.61014526 147.59335815 29.62654053 148.87298584 29.64343262 C156.57117797 29.58278282 162.64093439 28.55987545 169 24 C175.04111649 17.63593613 177.12752061 11.57938072 178 3 C184.25695621 6.49225463 187.73058234 11.19174702 190 18 C190.62277571 26.03482765 190.98097862 33.33165403 186 40 C182.11228706 44.50156235 177.68743058 48.10418981 172 50 C169.04503755 50.11221288 166.11306781 50.16771353 163.1574707 50.17700195 C162.25304733 50.18357315 161.34862396 50.19014435 160.41679382 50.19691467 C157.41978879 50.21664538 154.4228339 50.22831074 151.42578125 50.23828125 C149.8892946 50.24439454 149.8892946 50.24439454 148.32176781 50.25063133 C142.89851457 50.27149264 137.47528664 50.28579324 132.05200195 50.29516602 C126.45777105 50.30622121 120.86393892 50.34061089 115.26984882 50.38033772 C110.96232884 50.40651974 106.65490357 50.41485935 102.34731102 50.41844749 C100.28570047 50.42331054 98.22409407 50.43491644 96.16256142 50.45348549 C93.27122314 50.47790684 90.38091241 50.47690615 87.48950195 50.4699707 C86.22126083 50.48918579 86.22126083 50.48918579 84.92739868 50.50878906 C77.76198104 50.44640713 72.66463282 48.3012738 67.25 43.625 C62.22066608 37.75744376 59.85433086 33.54722962 59.9375 25.8125 C59.94652344 24.72582031 59.95554687 23.63914062 59.96484375 22.51953125 C59.97644531 21.68808594 59.98804688 20.85664062 60 20 C58.78006348 20.02618408 57.56012695 20.05236816 56.30322266 20.0793457 C51.73733164 20.17047473 47.17151947 20.22747541 42.60498047 20.2746582 C40.63609253 20.29966047 38.66729607 20.333674 36.69873047 20.37719727 C15.07409277 20.84300928 15.07409277 20.84300928 8 15 C3.49852428 10.30208159 1.73694884 6.28866897 0 0 Z " fill="#FFC988" transform="translate(322,60)"/>
<path d="M0 0 C6.16769166 3.32825319 9.67568966 6.02706897 12 13 C13.69692658 24.3506087 9.20087007 34.28485345 5.3125 44.6875 C4.59030266 46.66345768 3.86980925 48.64003882 3.15087891 50.6171875 C1.1980612 55.97162101 -0.77891791 61.31681641 -2.76202393 66.66009521 C-4.83982294 72.26573738 -6.90130742 77.87737674 -8.96484375 83.48828125 C-11.56267446 90.54804088 -14.16346318 97.60667526 -16.77368164 104.66186523 C-21.51379099 117.48086992 -26.21397218 130.31265949 -30.84375 143.171875 C-31.08651546 143.84603455 -31.32928093 144.52019409 -31.57940292 145.21478271 C-34.15189195 152.36032274 -36.71779386 159.50819211 -39.27783203 166.65820312 C-41.39420311 172.56301771 -43.52728507 178.4615347 -45.67443848 184.35522461 C-46.59502602 186.88648005 -47.51156144 189.41891004 -48.42321777 191.95336914 C-49.62386181 195.28752274 -50.84089305 198.61531362 -52.06858444 201.93959808 C-52.75226837 203.80171759 -53.42113284 205.66925731 -54.08950806 207.53692627 C-56.9764246 215.29163056 -59.82715332 220.99166867 -66.6875 225.9375 C-73.60749306 228.15712042 -79.83638378 227.90342148 -86.4375 224.8125 C-91.62795095 221.87590572 -94.53517494 218.94606794 -96.25 213.1875 C-96.4975 212.135625 -96.745 211.08375 -97 210 C-96.16597656 209.99742187 -95.33195312 209.99484375 -94.47265625 209.9921875 C-87.56290333 209.75473895 -82.65343279 208.95520494 -76.90234375 205.05859375 C-72.11016106 199.87280262 -69.93094804 192.49738304 -67.57421875 185.953125 C-67.26353958 185.10184021 -66.95286041 184.25055542 -66.63276672 183.37347412 C-65.64655204 180.66724753 -64.66706129 177.9586409 -63.6875 175.25 C-63.04272649 173.48031976 -62.39754696 171.71078739 -61.75195312 169.94140625 C-58.61754554 161.33285138 -55.53685247 152.70768754 -52.52734375 144.0546875 C-49.12559001 134.28164756 -45.56560115 124.57007052 -41.97900391 114.86358643 C-36.44345225 99.87860816 -30.94375687 84.88077198 -25.5078125 69.859375 C-25.27792507 69.22412525 -25.04803764 68.5888755 -24.81118393 67.93437576 C-22.34850476 61.12785831 -19.88975632 54.31992616 -17.43310547 47.51123047 C-11.70390039 31.64313769 -5.88444165 15.81112576 0 0 Z " fill="#FEB153" transform="translate(470,141)"/>
<path d="M0 0 C4.05945036 1.56132706 6.46696335 4.43420361 9.1875 7.6875 C9.90607178 8.54384033 9.90607178 8.54384033 10.63916016 9.41748047 C22.35980628 23.77032204 31.5066734 40.18030005 30.25634766 59.09423828 C29.63008122 63.75008191 27.37289655 66.87373818 24 70 C14.23928 77.28105489 5.05906512 79.03145119 -7 78 C-10.34978778 77.11343242 -13.06394465 75.82011561 -16 74 C-16.63421875 73.63777344 -17.2684375 73.27554688 -17.921875 72.90234375 C-22.65745874 69.91730699 -26.19477646 66.36774434 -28 61 C-30.3179276 41.80593286 -21.17287922 26.45440594 -10.03125 11.5546875 C-6.8502996 7.55403065 -3.47672191 3.74487333 0 0 Z " fill="#FECF57" transform="translate(241,194)"/>
<path d="M0 0 C4.46567763 -0.09917794 8.93076507 -0.17161225 13.3972168 -0.21972656 C14.9152341 -0.23979203 16.43317459 -0.26705134 17.95092773 -0.30175781 C20.13805122 -0.35050393 22.32414952 -0.37301805 24.51171875 -0.390625 C25.82615967 -0.41157227 27.14060059 -0.43251953 28.49487305 -0.45410156 C32.54750786 0.07093157 34.14662035 1.13830534 37 4 C38.71350991 7.42701981 38.12858983 11.36099803 38.11352539 15.13134766 C38.11367142 16.07773605 38.11381744 17.02412445 38.1139679 17.99919128 C38.11326942 21.13750475 38.10548002 24.27575937 38.09765625 27.4140625 C38.09579184 29.58596769 38.09436805 31.75787329 38.09336853 33.92977905 C38.08954516 39.65414587 38.07971639 45.37848742 38.06866455 51.10284424 C38.05844657 56.94095518 38.05387008 62.7790702 38.04882812 68.6171875 C38.03809398 80.0781379 38.02049862 91.5390629 38 103 C23.15 102.505 23.15 102.505 8 102 C7.9906543 99.14835205 7.98130859 96.2967041 7.97167969 93.35864258 C7.93791888 83.9388552 7.88237491 74.51928711 7.81609726 65.09967518 C7.77658106 59.38829711 7.74441281 53.67707419 7.72900391 47.96557617 C7.71386477 42.45407105 7.67946764 36.94299233 7.63169098 31.43167686 C7.61684892 29.32857658 7.60895737 27.22541544 7.60811615 25.12226295 C7.60575328 22.17715571 7.57872797 19.23323337 7.54589844 16.28833008 C7.5509288 15.4179863 7.55595917 14.54764252 7.56114197 13.65092468 C7.49183268 9.63459818 7.32548165 7.52093469 5.15338135 4.04447937 C2.97597759 1.86075932 2.97597759 1.86075932 0 0 Z " fill="#7F4E36" transform="translate(242,0)"/>
<path d="M0 0 C0 10.89 0 21.78 0 33 C8.85500023 32.84253699 8.85500023 32.84253699 17.70898438 32.63964844 C24.9622693 32.57477486 29.92141583 32.90655536 36 37 C37.83984375 38.81640625 37.83984375 38.81640625 38.9375 40.5625 C39.31777344 41.14128906 39.69804687 41.72007812 40.08984375 42.31640625 C41.79362045 45.46802753 42.12313585 48.05541647 42.11352539 51.56323242 C42.11341209 52.94432442 42.11341209 52.94432442 42.11329651 54.35331726 C42.10813522 55.34402725 42.10297394 56.33473724 42.09765625 57.35546875 C42.0962413 58.37224197 42.09482635 59.3890152 42.09336853 60.43659973 C42.08776707 63.68692964 42.07521432 66.93719088 42.0625 70.1875 C42.05748519 72.38997296 42.05292225 74.59244701 42.04882812 76.79492188 C42.03864769 82.19666238 42.01907246 87.59825425 42 93 C31.44 93 20.88 93 10 93 C9.97421875 89.844375 9.9484375 86.68875 9.921875 83.4375 C9.88340216 80.36270436 9.83825873 77.28807344 9.79248047 74.21337891 C9.76435057 72.08552995 9.74309654 69.95757806 9.72900391 67.82958984 C9.70746392 64.7608602 9.66075629 61.69335789 9.609375 58.625 C9.60814636 57.68197021 9.60691772 56.73894043 9.60565186 55.76733398 C9.45568018 48.91980201 8.11988958 43.16014622 3.18359375 38.16015625 C2.60738281 37.79792969 2.03117187 37.43570313 1.4375 37.0625 C0.56931641 36.49208984 0.56931641 36.49208984 -0.31640625 35.91015625 C-3.80974457 34.02164621 -6.86501648 33.82205525 -10.76171875 33.68359375 C-12.27318481 33.62643188 -12.27318481 33.62643188 -13.81518555 33.56811523 C-15.09304932 33.52501221 -16.37091309 33.48190918 -17.6875 33.4375 C-21.750625 33.293125 -25.81375 33.14875 -30 33 C-30 22.44 -30 11.88 -30 1 C-23.131875 0.7525 -23.131875 0.7525 -16.125 0.5 C-14.68141113 0.44779297 -13.23782227 0.39558594 -11.75048828 0.34179688 C-10.61853027 0.30119141 -9.48657227 0.26058594 -8.3203125 0.21875 C-7.15773926 0.17685547 -5.99516602 0.13496094 -4.79736328 0.09179688 C-3.19880994 0.03933955 -1.59941382 0 0 0 Z " fill="#925F43" transform="translate(280,117)"/>
<path d="M0 0 C0.77590485 -0.00700928 1.55180969 -0.01401855 2.35122681 -0.02124023 C4.91810814 -0.03885742 7.48388855 -0.02718495 10.05078125 -0.01367188 C11.83292859 -0.01636574 13.6150745 -0.02024727 15.3972168 -0.02526855 C19.13311754 -0.03116863 22.86863587 -0.02258443 26.60449219 -0.00390625 C31.39670754 0.01888379 36.18802689 0.0057634 40.98020935 -0.01819611 C44.66050994 -0.03264045 48.34059759 -0.02805441 52.02090454 -0.01768494 C53.78797511 -0.01501387 55.55506493 -0.01830075 57.32211304 -0.02760315 C59.79078479 -0.03774662 62.25799948 -0.02230021 64.7265625 0 C65.45912262 -0.00809692 66.19168274 -0.01619385 66.94644165 -0.02453613 C70.18605259 0.02976525 71.91179852 0.09128433 74.31713867 2.36242676 C75.7412005 5.29612706 75.76623221 7.29397042 75.36328125 10.51757812 C74.06436547 12.92057232 73.26702305 14.19935005 70.66113281 15.11694336 C67.69354076 15.63434865 64.86035865 15.62892848 61.84765625 15.61523438 C60.72069336 15.61273682 59.59373047 15.61023926 58.43261719 15.60766602 C56.2945459 15.59401001 56.2945459 15.59401001 54.11328125 15.58007812 C49.57578125 15.55945313 45.03828125 15.53882812 40.36328125 15.51757812 C40.36328125 26.07757813 40.36328125 36.63757813 40.36328125 47.51757812 C25.18328125 47.51757812 10.00328125 47.51757812 -5.63671875 47.51757812 C-5.63671875 36.62757813 -5.63671875 25.73757812 -5.63671875 14.51757812 C-6.95671875 13.85757813 -8.27671875 13.19757813 -9.63671875 12.51757812 C-11.04129612 9.70842339 -10.88567032 7.62947278 -10.63671875 4.51757812 C-8.30405441 -0.34163647 -4.86075937 -0.05372555 0 0 Z " fill="#946142" transform="translate(209.63671875,102.482421875)"/>
<path d="M0 0 C4.92423601 0.54129007 8.77243902 2.13731697 13.0625 4.5 C13.71444336 4.85457275 14.36638672 5.20914551 15.03808594 5.57446289 C21.68954809 9.26568552 27.89315523 13.45921465 34 18 C34.8765625 18.65097656 35.753125 19.30195313 36.65625 19.97265625 C48.93491805 29.56998866 63.64227245 42.02934553 71 56 C70.54680423 58.95331321 69.44646106 61.24604601 67.96875 63.8203125 C67.57042969 64.52027344 67.17210937 65.22023438 66.76171875 65.94140625 C66.34535156 66.66199219 65.92898437 67.38257813 65.5 68.125 C64.67680889 69.5649473 63.85387995 71.00504453 63.03125 72.4453125 C62.66580078 73.07969238 62.30035156 73.71407227 61.92382812 74.36767578 C61.24898411 75.56006665 60.61273329 76.77453342 60 78 C53.4 78 46.8 78 40 78 C38.9275 75.855 37.855 73.71 36.75 71.5 C29.44842066 57.49171579 19.19044029 44.48167381 7.5546875 33.8203125 C6.95712646 33.25981201 6.35956543 32.69931152 5.74389648 32.12182617 C4.57036322 31.02759641 3.37779176 29.95331346 2.16430664 28.90356445 C-0.18456047 26.70463249 -1.79152297 25.10102725 -2.40185547 21.87768555 C-2.43444429 19.54056544 -2.27533808 17.32042342 -2 15 C-1.93047119 14.29915283 -1.86094238 13.59830566 -1.78930664 12.8762207 C-1.56825464 10.89151158 -1.28490853 8.91405291 -1 6.9375 C-0.90460938 6.26267578 -0.80921875 5.58785156 -0.7109375 4.89257812 C-0.47949713 3.26092351 -0.2405761 1.63033266 0 0 Z " fill="#FFC988" transform="translate(91,330)"/>
<path d="M0 0 C2.49395173 0.99177115 4.97700107 1.98997483 7.4375 3.0625 C10.27762598 4.10157048 13.0174938 4.53641926 16 5 C10.49069801 20.87996259 4.8258828 36.70305546 -0.87255859 52.51586914 C-2.14270427 56.04094305 -3.40931072 59.56727872 -4.6752224 63.09387493 C-5.6581452 65.83019896 -6.64356113 68.56562011 -7.62968826 71.30079079 C-8.09871449 72.60306 -8.56679816 73.90566909 -9.03391647 75.20862389 C-9.67930661 77.00811676 -10.32856437 78.80622111 -10.97802734 80.60424805 C-11.52926773 82.13591866 -11.52926773 82.13591866 -12.09164429 83.6985321 C-13 86 -13 86 -14 87 C-16.86267567 87.07325168 -19.700719 87.09238205 -22.5625 87.0625 C-23.36880859 87.05798828 -24.17511719 87.05347656 -25.00585938 87.04882812 C-27.00393756 87.03700518 -29.00197783 87.01906914 -31 87 C-29.02559468 80.17184828 -26.81047246 73.47345446 -24.375 66.796875 C-24.03121811 65.84770706 -23.68743622 64.89853912 -23.33323669 63.92060852 C-22.2248669 60.86274815 -21.11253385 57.80634754 -20 54.75 C-19.23557102 52.64386685 -18.47133057 50.53766527 -17.70727539 48.43139648 C-11.84240296 32.27387486 -5.94360777 16.12872779 0 0 Z " fill="#7F4E36" transform="translate(379,363)"/>
<path d="M0 0 C0.77590485 -0.00700928 1.55180969 -0.01401855 2.35122681 -0.02124023 C4.91810814 -0.03885742 7.48388855 -0.02718495 10.05078125 -0.01367188 C11.83292859 -0.01636574 13.6150745 -0.02024727 15.3972168 -0.02526855 C19.13311754 -0.03116863 22.86863587 -0.02258443 26.60449219 -0.00390625 C31.39670754 0.01888379 36.18802689 0.0057634 40.98020935 -0.01819611 C44.66050994 -0.03264045 48.34059759 -0.02805441 52.02090454 -0.01768494 C53.78797511 -0.01501387 55.55506493 -0.01830075 57.32211304 -0.02760315 C59.79078479 -0.03774662 62.25799948 -0.02230021 64.7265625 0 C65.45912262 -0.00809692 66.19168274 -0.01619385 66.94644165 -0.02453613 C70.18605259 0.02976525 71.91179852 0.09128433 74.31713867 2.36242676 C75.7412005 5.29612706 75.76623221 7.29397042 75.36328125 10.51757812 C74.31713867 12.67272949 74.31713867 12.67272949 72.36328125 14.51757812 C69.6831407 14.92061625 67.40874966 15.06480223 64.7265625 15.03515625 C63.56270523 15.04567017 63.56270523 15.04567017 62.37533569 15.05639648 C59.80845436 15.07401367 57.24267395 15.0623412 54.67578125 15.04882812 C52.89363391 15.05152199 51.111488 15.05540352 49.3293457 15.0604248 C45.59344496 15.06632488 41.85792663 15.05774068 38.12207031 15.0390625 C33.32985496 15.01627246 28.53853561 15.02939285 23.74635315 15.05335236 C20.06605256 15.0677967 16.38596491 15.06321066 12.70565796 15.05284119 C10.93858739 15.05017012 9.17149757 15.053457 7.40444946 15.0627594 C4.93577771 15.07290287 2.46856302 15.05745646 0 15.03515625 C-0.73256012 15.04325317 -1.46512024 15.0513501 -2.21987915 15.05969238 C-5.45949009 15.005391 -7.18523602 14.94387192 -9.59057617 12.67272949 C-11.014638 9.73902919 -11.03966971 7.74118583 -10.63671875 4.51757812 C-8.28233951 -0.33266288 -4.87002067 -0.05382792 0 0 Z " fill="#FEBE43" transform="translate(209.63671875,102.482421875)"/>
<path d="M0 0 C0 10.89 0 21.78 0 33 C-9.9 33 -19.8 33 -30 33 C-30 22.44 -30 11.88 -30 1 C-23.131875 0.7525 -23.131875 0.7525 -16.125 0.5 C-14.68141113 0.44779297 -13.23782227 0.39558594 -11.75048828 0.34179688 C-10.61853027 0.30119141 -9.48657227 0.26058594 -8.3203125 0.21875 C-7.15773926 0.17685547 -5.99516602 0.13496094 -4.79736328 0.09179688 C-3.19880994 0.03933955 -1.59941382 0 0 0 Z " fill="#7F4E36" transform="translate(280,117)"/>
<path d="M0 0 C3.81141443 2.61354132 4.92979131 5.95758467 6.2890625 10.1953125 C6.94418873 12.21000614 6.94418873 12.21000614 9 14 C10.7015625 14.4640625 10.7015625 14.4640625 12.4375 14.9375 C17.50439883 16.44868035 17.50439883 16.44868035 19 19 C19.49125459 22.85985753 19.56021138 25.08965651 17.5 28.4375 C13.93684778 30.66447014 11.01184094 30.77626374 7 30 C-0.27234103 27.56466358 -5.33675036 23.79931575 -9 17 C-10.36623064 12.75793821 -10.57426784 8.40811226 -10 4 C-7.35478334 -0.1713032 -4.79556761 -0.79926127 0 0 Z " fill="#FFFCD6" transform="translate(230,235)"/>
<path d="M0 0 C4.17578373 1.56104065 6.52361639 4.63957368 9.25 8 C9.70890625 8.5465625 10.1678125 9.093125 10.640625 9.65625 C14 13.73549107 14 13.73549107 14 16 C5.42 16 -3.16 16 -12 16 C-10.11182667 12.22365334 -8.12205606 9.53999999 -5.4375 6.3125 C-4.63183594 5.33925781 -3.82617188 4.36601562 -2.99609375 3.36328125 C-1 1 -1 1 0 0 Z " fill="#B58955" transform="translate(241,194)"/>
</svg>
