<?xml version="1.0" encoding="UTF-8"?>
<svg version="1.1" xmlns="http://www.w3.org/2000/svg" width="512" height="512">
<path d="M0 0 C4.1234377 1.02494627 5.94507704 4.10468337 8.04296875 7.5078125 C35.40579902 53.48203479 37.92684919 115.53284489 43.04296875 167.5078125 C43.63899902 166.7024707 44.2350293 165.89712891 44.84912109 165.06738281 C45.65059563 163.9901447 46.45219751 162.91300132 47.25390625 161.8359375 C48.03556152 160.7830957 48.8172168 159.73025391 49.62255859 158.64550781 C52.54680907 154.8546598 55.68356938 151.32382011 58.9296875 147.80859375 C60.8389248 145.72996016 62.66273519 143.60360504 64.48046875 141.4453125 C87.49952431 115.22770936 123.78589748 96.87299557 158.546875 94.32421875 C162.15957812 94.21111386 165.1179438 94.2577933 168.04296875 96.5078125 C174.13240436 105.48171761 171.75905572 123.04180347 169.91796875 133.0703125 C161.04920135 171.18973935 138.90452159 204.13003992 115.04296875 234.5078125 C114.03871742 235.83794672 113.03690018 237.16994924 112.04296875 238.5078125 C113.26242187 238.29125 114.481875 238.0746875 115.73828125 237.8515625 C149.45210989 232.40791502 195.21576743 230.84051599 225.04296875 250.5078125 C227.24070482 254.27536005 227.33991858 256.01238169 226.5 260.2421875 C219.94356811 282.34509324 201.53605861 296.3105585 182.15014648 306.94824219 C154.50307234 321.71615837 124.42154494 329.52926458 94.04296875 336.5078125 C94.86796875 337.01828125 95.69296875 337.52875 96.54296875 338.0546875 C112.50070492 348.04525141 126.57858724 359.35689131 140.04296875 372.5078125 C141.1692181 373.59380469 142.29551726 374.67974522 143.421875 375.765625 C151.70170525 383.84169227 151.70170525 383.84169227 153.04296875 387.5078125 C152.82368 393.75754182 152.82368 393.75754182 150.33984375 396.14453125 C131.21812049 407.49398944 95.63962788 394.88357321 76.26583862 389.99156189 C65.10668478 387.12056527 54.04061635 383.95928534 42.98046875 380.73046875 C41.22727533 380.22053133 39.47402039 379.71080538 37.72070312 379.20129395 C33.49408202 377.9725579 29.2682913 376.7410062 25.04296875 375.5078125 C25.04573413 376.18957172 25.04849951 376.87133095 25.05134869 377.57374954 C25.11758135 394.15704778 25.16723605 410.74030416 25.19840527 427.32370377 C25.21387883 435.34329221 25.23497765 443.36279241 25.26928711 451.38232422 C25.29917455 458.37157523 25.31854019 465.36076234 25.32523423 472.35007548 C25.32914763 476.05140897 25.33835464 479.75255961 25.36015892 483.45383453 C25.38429405 487.58421464 25.38493917 491.7142762 25.38354492 495.84472656 C25.39972366 497.68862724 25.39972366 497.68862724 25.41622925 499.56977844 C25.41210526 500.69435959 25.40798126 501.81894073 25.4037323 502.9776001 C25.40649768 503.95470066 25.40926306 504.93180122 25.41211224 505.93851089 C24.97944525 508.94994688 24.12889752 510.32305632 22.04296875 512.5078125 C19.92481995 513.01574707 19.92481995 513.01574707 17.45141602 513.02539062 C16.52357803 513.03799927 15.59574005 513.05060791 14.63978577 513.06359863 C13.13973244 513.05145325 13.13973244 513.05145325 11.609375 513.0390625 C10.57989243 513.0428894 9.55040985 513.04671631 8.48973083 513.05065918 C6.31174747 513.05338208 4.13373161 513.04599454 1.95581055 513.02929688 C-1.37850957 513.00791524 -4.71066947 513.0290754 -8.04492188 513.0546875 C-10.16016101 513.05204386 -12.2753988 513.04691815 -14.390625 513.0390625 C-15.38863632 513.04715942 -16.38664764 513.05525635 -17.41490173 513.06359863 C-18.34589188 513.05098999 -19.27688202 513.03838135 -20.23608398 513.02539062 C-21.05310287 513.02220825 -21.87012177 513.01902588 -22.7118988 513.01574707 C-25.83583725 512.30899307 -26.94605943 510.97014347 -28.95703125 508.5078125 C-29.44922256 505.93851089 -29.44922256 505.93851089 -29.43804932 502.9776001 C-29.44354797 501.85301895 -29.44904663 500.72843781 -29.45471191 499.56977844 C-29.43314026 497.72587776 -29.43314026 497.72587776 -29.41113281 495.84472656 C-29.41171692 494.54691757 -29.41230103 493.24910858 -29.41290283 491.91197205 C-29.41405042 488.35631542 -29.39053461 484.80119863 -29.362607 481.24566746 C-29.33760044 477.52877604 -29.33525195 473.81187222 -29.33050537 470.09490967 C-29.31807335 463.05777083 -29.28524886 456.02088057 -29.24510741 448.98385119 C-29.20039661 440.97185412 -29.17840443 432.95984516 -29.15832567 424.94775438 C-29.11651627 408.46762824 -29.04616003 391.98775209 -28.95703125 375.5078125 C-29.53260143 375.67376797 -30.10817162 375.83972343 -30.70118332 376.01070786 C-36.7811565 377.76304733 -42.86246759 379.51068621 -48.94451904 381.25579834 C-51.20356162 381.90461718 -53.46227911 382.55456914 -55.72064209 383.20574951 C-135.82912134 406.29884536 -135.82912134 406.29884536 -153.86328125 396.46875 C-156.26321495 394.40214043 -156.93115022 392.73020877 -157.29296875 389.62109375 C-156.88116857 385.80475953 -155.9159979 384.67730231 -153.26953125 381.9453125 C-152.44839844 381.089375 -151.62726563 380.2334375 -150.78125 379.3515625 C-150.3279834 378.89523437 -149.8747168 378.43890625 -149.40771484 377.96875 C-147.87332315 376.42351272 -146.3624043 374.85731349 -144.8515625 373.2890625 C-138.26672896 366.51651651 -131.44602846 360.28503892 -123.95703125 354.5078125 C-123.0134375 353.77046875 -122.06984375 353.033125 -121.09765625 352.2734375 C-115.7353746 348.15951772 -110.27075901 344.35062817 -104.5703125 340.7265625 C-103.93049438 340.31760742 -103.29067627 339.90865234 -102.63146973 339.48730469 C-101.07442029 338.4924221 -99.51588247 337.49986954 -97.95703125 336.5078125 C-99.03259277 336.25201416 -100.1081543 335.99621582 -101.21630859 335.73266602 C-178.99870318 317.14830325 -178.99870318 317.14830325 -208.95703125 291.5078125 C-209.64023438 290.98058594 -210.3234375 290.45335937 -211.02734375 289.91015625 C-220.58148226 282.28557905 -228.22767347 270.44483129 -230.95703125 258.5078125 C-230.76486306 255.3677842 -230.56241728 253.3311375 -228.6875 250.78125 C-213.18969012 239.37654115 -187.40679886 235.41888874 -168.671875 235.3046875 C-167.90090988 235.29789978 -167.12994476 235.29111206 -166.33561707 235.28411865 C-163.85521354 235.26724082 -161.37498839 235.26092767 -158.89453125 235.2578125 C-157.63053497 235.25430786 -157.63053497 235.25430786 -156.34100342 235.25073242 C-142.65523327 235.23640961 -129.45766323 236.11023727 -115.95703125 238.5078125 C-117.06498047 237.16203125 -117.06498047 237.16203125 -118.1953125 235.7890625 C-125.62969297 226.67898058 -132.48837657 217.32457615 -138.95703125 207.5078125 C-139.43640137 206.7864209 -139.91577148 206.0650293 -140.40966797 205.32177734 C-154.32234433 184.28074653 -166.36537671 161.97299184 -172.95703125 137.5078125 C-173.18390625 136.67765625 -173.41078125 135.8475 -173.64453125 134.9921875 C-175.07496971 128.67441762 -175.19103019 122.33335683 -175.26953125 115.8828125 C-175.28725586 114.99980469 -175.30498047 114.11679688 -175.32324219 113.20703125 C-175.3167817 107.44427315 -174.89118374 101.60437244 -171.95703125 96.5078125 C-165.26639127 92.16518584 -154.57481792 94.92021491 -147.125 96.4140625 C-119.60794992 102.52896252 -94.71691808 116.42378887 -74.51953125 135.99658203 C-73.44265137 137.03812679 -72.35887118 138.07256838 -71.26953125 139.10107422 C-69.4855801 140.78597228 -67.71971635 142.48819877 -65.95703125 144.1953125 C-65.43625 144.68612305 -64.91546875 145.17693359 -64.37890625 145.68261719 C-57.74074412 152.22813507 -52.44957527 160.00658746 -46.95703125 167.5078125 C-46.8369873 166.25274902 -46.71694336 164.99768555 -46.59326172 163.70458984 C-34.02030842 33.32909149 -34.02030842 33.32909149 -7.49609375 1.76953125 C-5.19825856 -0.11422704 -2.88763174 -0.15779408 0 0 Z " fill="#65BA69" transform="translate(257.95703125,-0.5078125)"/>
<path d="M0 0 C0.89094864 -0.00945648 1.78189728 -0.01891296 2.69984436 -0.02865601 C4.13124001 -0.01954697 4.13124001 -0.01954697 5.59155273 -0.01025391 C6.57759995 -0.01312408 7.56364716 -0.01599426 8.57957458 -0.01895142 C10.66161677 -0.02099093 12.74367817 -0.01546898 14.82568359 -0.00292969 C18.0169543 0.01314234 21.20696175 -0.00279133 24.39819336 -0.02197266 C26.42098262 -0.01999054 28.44377109 -0.01614752 30.46655273 -0.01025391 C31.90098473 -0.01936295 31.90098473 -0.01936295 33.36439514 -0.02865601 C34.25219162 -0.01919952 35.1399881 -0.00974304 36.0546875 0 C36.83538101 0.00238678 37.61607452 0.00477356 38.42042542 0.00723267 C40.46264648 0.38818359 40.46264648 0.38818359 42.21112061 1.43312073 C44.15017963 4.46220895 43.90176523 7.57203281 43.89501953 11.05737305 C43.90519985 11.84994161 43.91538017 12.64251017 43.92586899 13.45909595 C43.95642429 16.13995448 43.96536328 18.8204532 43.97436523 21.50146484 C43.99151113 23.44091849 44.00986013 25.38036181 44.02931213 27.3197937 C44.07849002 32.65771786 44.10792342 37.99558991 44.13301086 43.33367538 C44.15590077 47.83135294 44.18839376 52.32894234 44.22050667 56.82656193 C44.32218044 71.24502104 44.38359314 85.66355402 44.43783987 100.08225626 C44.45710963 105.13081816 44.47940482 110.17936182 44.50299072 115.22790527 C44.59223409 134.40688902 44.65754621 153.5857729 44.69640905 172.76492578 C44.70776264 178.0712259 44.72605159 183.37747597 44.74691772 188.68374634 C44.77224452 195.19583424 44.78643482 201.70783731 44.78668576 208.21997619 C44.7870512 211.5752148 44.79382005 214.93011407 44.81021309 218.28533554 C44.82714129 221.94631339 44.82553401 225.60682182 44.8190918 229.26782227 C44.82831004 230.34484059 44.83752829 231.42185892 44.84702587 232.53151417 C44.84145326 233.5154399 44.83588064 234.49936563 44.83013916 235.5131073 C44.83160572 236.36380389 44.83307228 237.21450048 44.83458328 238.09097576 C44.37624804 240.92180968 43.40340851 242.30556474 41.46264648 244.38818359 C39.34449768 244.89611816 39.34449768 244.89611816 36.87109375 244.90576172 C35.94325577 244.91837036 35.01541779 244.930979 34.0594635 244.94396973 C33.05942795 244.9358728 32.0593924 244.92777588 31.02905273 244.91943359 C29.48482887 244.92517395 29.48482887 244.92517395 27.90940857 244.93103027 C25.7314252 244.93375318 23.55340934 244.92636563 21.37548828 244.90966797 C18.04116817 244.88828633 14.70900826 244.90944649 11.37475586 244.93505859 C9.25951672 244.93241496 7.14427893 244.92728924 5.02905273 244.91943359 C4.03104141 244.92753052 3.03303009 244.93562744 2.004776 244.94396973 C1.07378586 244.93136108 0.14279572 244.91875244 -0.81640625 244.90576172 C-1.63342514 244.90257935 -2.45044403 244.89939697 -3.29222107 244.89611816 C-6.66614578 244.13280774 -7.62775612 243.31996834 -9.53735352 240.38818359 C-10.12872282 236.68375035 -10.05186703 233.01169926 -10.00732422 229.26782227 C-10.00948063 228.12374499 -10.01163704 226.97966772 -10.0138588 225.80092144 C-10.01610428 221.96905137 -9.98961432 218.13792359 -9.96313477 214.30615234 C-9.95650029 211.58602949 -9.95581918 208.86591245 -9.95481873 206.14578247 C-9.94864411 199.56915288 -9.92082944 192.99278859 -9.88497776 186.41626048 C-9.85640757 181.10811442 -9.83562751 175.79999155 -9.82043457 170.49179077 C-9.81827214 169.73991444 -9.81610971 168.98803811 -9.81388175 168.21337765 C-9.80952807 166.69071718 -9.80518788 165.16805667 -9.80086112 163.64539611 C-9.76045476 149.77813321 -9.69577277 135.91107756 -9.61885428 122.0439738 C-9.55978737 111.36217568 -9.51533199 100.68045605 -9.48608398 89.99853516 C-9.45257738 77.80474915 -9.39856701 65.61124121 -9.32479858 53.41763306 C-9.29811507 48.94267317 -9.2795902 44.46779042 -9.26773071 39.99276733 C-9.25302458 34.78445983 -9.21906381 29.57664474 -9.16935921 24.36855698 C-9.15444906 22.47958372 -9.14629104 20.59054327 -9.14538383 18.70151138 C-9.14305959 16.15291144 -9.11644529 13.60572976 -9.08325195 11.05737305 C-9.09079986 9.94418339 -9.09079986 9.94418339 -9.09850025 8.80850506 C-9.0332955 5.63681235 -8.94377864 3.84209459 -6.78681946 1.43312073 C-4.31868598 0.28660667 -2.71207234 0.00828306 0 0 Z " fill="#5BA85E" transform="translate(238.537353515625,267.61181640625)"/>
</svg>
