<svg width="15" height="14" viewBox="0 0 15 14" fill="none" xmlns="http://www.w3.org/2000/svg">
<path d="M9.81069 4.99786C9.81069 4.44719 9.61469 3.97586 9.22269 3.58386C8.83069 3.19186 8.35935 2.99586 7.80869 2.99586C7.25802 2.99586 6.78669 3.19186 6.39469 3.58386C6.00269 3.97586 5.80669 4.44719 5.80669 4.99786C5.80669 5.54853 6.00269 6.01986 6.39469 6.41186C6.78669 6.80386 7.25802 6.99986 7.80869 6.99986C8.35935 6.99986 8.83069 6.80386 9.22269 6.41186C9.61469 6.01986 9.81069 5.54853 9.81069 4.99786ZM11.7987 4.99786C11.7987 5.56719 11.7147 6.03386 11.5467 6.39786L8.70469 12.4459C8.62069 12.6139 8.49469 12.7492 8.32669 12.8519C8.15869 12.9545 7.98602 13.0059 7.80869 13.0059C7.63135 13.0059 7.45402 12.9545 7.27669 12.8519C7.09935 12.7492 6.97802 12.6139 6.91269 12.4459L4.05669 6.39786C3.88869 6.03386 3.80469 5.56719 3.80469 4.99786C3.80469 3.89653 4.19669 2.95386 4.98069 2.16986C5.76469 1.38586 6.70735 0.993859 7.80869 0.993859C8.91002 0.993859 9.85269 1.38586 10.6367 2.16986C11.4207 2.95386 11.808 3.89653 11.7987 4.99786Z" fill="#926A59"/>
</svg>
