<svg width="15" height="14" viewBox="0 0 15 14" fill="none" xmlns="http://www.w3.org/2000/svg">
<path d="M13.3102 9.68805C13.3102 9.82805 13.2822 10.01 13.2262 10.234C13.1702 10.458 13.1142 10.6354 13.0582 10.766C12.9556 11.0274 12.6382 11.3074 12.1062 11.606C11.6209 11.8674 11.1402 11.998 10.6642 11.998C10.5149 11.998 10.3749 11.9887 10.2442 11.97C10.1136 11.9514 9.96423 11.9187 9.79623 11.872C9.62823 11.8254 9.5069 11.788 9.43223 11.76L8.60623 11.466C8.10223 11.2794 7.64957 11.06 7.24823 10.808C6.57623 10.3974 5.88557 9.83738 5.17623 9.12805C4.4669 8.41871 3.9069 7.72805 3.49623 7.05605C3.24423 6.65471 3.02957 6.20205 2.85223 5.69805L2.71223 5.30605C2.63757 5.09138 2.58157 4.94671 2.54423 4.87205C2.5069 4.79738 2.46957 4.67605 2.43223 4.50805L2.33423 4.06005C2.30623 3.92938 2.2969 3.79405 2.30623 3.65405C2.30623 3.16871 2.44157 2.68338 2.71223 2.19805C3.00157 1.67538 3.2769 1.35805 3.53823 1.24605C3.6689 1.19005 3.84623 1.13405 4.07023 1.07805C4.29423 1.02205 4.47623 0.994046 4.61623 0.994046C4.6909 0.994046 4.7469 1.00338 4.78423 1.02205C4.87757 1.05005 5.01757 1.25071 5.20423 1.62405C5.26023 1.71738 5.3349 1.85738 5.42823 2.04405C5.52157 2.23071 5.6149 2.39405 5.70823 2.53405C5.80157 2.67405 5.8809 2.81405 5.94623 2.95405C5.9649 2.97271 6.01157 3.03805 6.08623 3.15005C6.1609 3.26205 6.2169 3.35538 6.25423 3.43005C6.29157 3.50471 6.31023 3.57938 6.31023 3.65405C6.31023 3.75671 6.23557 3.88738 6.08623 4.04605C5.9369 4.20471 5.77357 4.34471 5.59623 4.46605C5.4189 4.58738 5.26023 4.72738 5.12023 4.88605C4.98023 5.04471 4.90557 5.16138 4.89623 5.23605C4.89623 5.28271 4.91023 5.34338 4.93823 5.41805L4.99423 5.57205C5.00357 5.60005 5.0409 5.66538 5.10623 5.76805C5.17157 5.87071 5.20423 5.91738 5.20423 5.90805C5.59623 6.62671 6.0489 7.24271 6.56223 7.75605C7.07557 8.26938 7.6869 8.72205 8.39623 9.11405C8.40557 9.11405 8.45223 9.14205 8.53623 9.19805C8.62023 9.25405 8.68557 9.29138 8.73223 9.31005L8.88623 9.38005C8.94223 9.40805 9.0029 9.41738 9.06823 9.40805C9.16157 9.40805 9.27823 9.33805 9.41823 9.19805C9.55823 9.05805 9.69823 8.89471 9.83823 8.70805C9.97823 8.52138 10.1229 8.35805 10.2722 8.21805C10.4216 8.07805 10.5522 8.00338 10.6642 7.99405C10.7296 7.99405 10.7996 8.01271 10.8742 8.05005C10.9489 8.08738 11.0422 8.14338 11.1542 8.21805C11.2662 8.29271 11.3316 8.33938 11.3502 8.35805L12.2602 8.87605C12.4376 8.97871 12.5822 9.05805 12.6942 9.11405C13.0582 9.29138 13.2542 9.42671 13.2822 9.52005C13.3009 9.55738 13.3102 9.61338 13.3102 9.68805Z" fill="#926A59"/>
</svg>
