<svg width="15" height="15" viewBox="0 0 15 15" fill="none" xmlns="http://www.w3.org/2000/svg">
<path d="M13.5939 11.1869C13.0977 10.6869 11.8958 9.9572 11.3127 9.66314C10.5533 9.28064 10.4908 9.24939 9.89393 9.69283C9.4958 9.98877 9.23112 10.2531 8.76518 10.1538C8.29924 10.0544 7.28674 9.49408 6.40018 8.61033C5.51362 7.72658 4.9208 6.6847 4.82112 6.22033C4.72143 5.75595 4.99018 5.49439 5.2833 5.09533C5.69643 4.53283 5.66518 4.43908 5.31205 3.6797C5.03674 3.08908 4.2858 1.89845 3.78393 1.4047C3.24705 0.87439 3.24705 0.96814 2.90112 1.11189C2.61947 1.23036 2.34928 1.3744 2.09393 1.5422C1.59393 1.87439 1.31643 2.15033 1.12237 2.56502C0.928304 2.9797 0.841116 3.95189 1.8433 5.77252C2.84549 7.59314 3.54862 8.52408 5.00393 9.97533C6.45924 11.4266 7.5783 12.2069 9.21424 13.1244C11.238 14.2578 12.0142 14.0369 12.4302 13.8431C12.8461 13.6494 13.1233 13.3744 13.4561 12.8744C13.6243 12.6195 13.7687 12.3496 13.8874 12.0681C14.0314 11.7235 14.1252 11.7235 13.5939 11.1869Z" stroke="white" stroke-miterlimit="10"/>
</svg>
