<svg width="22" height="22" viewBox="0 0 22 22" fill="none" xmlns="http://www.w3.org/2000/svg">
<path d="M11.0007 1.83398C16.0634 1.83398 20.1673 5.9379 20.1673 11.0007C20.1673 16.0634 16.0634 20.1673 11.0007 20.1673C5.9379 20.1673 1.83398 16.0634 1.83398 11.0007C1.83398 5.9379 5.9379 1.83398 11.0007 1.83398ZM11.0007 5.50065C10.7575 5.50065 10.5244 5.59723 10.3525 5.76914C10.1806 5.94105 10.084 6.1742 10.084 6.41732V11.0007C10.084 11.2437 10.1806 11.4769 10.3526 11.6487L13.1026 14.3987C13.2755 14.5657 13.507 14.6581 13.7474 14.656C13.9877 14.6539 14.2176 14.5575 14.3876 14.3876C14.5575 14.2176 14.6539 13.9877 14.656 13.7474C14.6581 13.507 14.5657 13.2755 14.3987 13.1026L11.9173 10.6212V6.41732C11.9173 6.1742 11.8207 5.94105 11.6488 5.76914C11.4769 5.59723 11.2438 5.50065 11.0007 5.50065Z" fill="#999999"/>
</svg>
