<svg width="18" height="12" viewBox="0 0 18 12" fill="none" xmlns="http://www.w3.org/2000/svg">
<path d="M8.33203 0.290235C6.26133 0.536328 4.3418 1.49258 2.30273 3.29609C1.58906 3.92539 0.414844 5.19453 0.1125 5.66563C-0.0140625 5.8625 -0.0140625 6.13672 0.1125 6.33359C0.274219 6.58672 0.95625 7.37773 1.44141 7.87344C3.17461 9.65937 5.10469 10.9109 6.92578 11.4313C7.7168 11.6562 8.11758 11.709 9 11.709C9.88242 11.709 10.2832 11.6562 11.0742 11.4313C13.2082 10.8195 15.5531 9.15664 17.4234 6.9207C17.9367 6.30898 17.9789 6.23516 17.9789 5.99961C17.9789 5.76406 17.9367 5.69023 17.4234 5.07852C15.5637 2.86016 13.2258 1.19375 11.1094 0.578516C10.3992 0.371094 9.92812 0.304297 9.1582 0.290235C8.77148 0.279688 8.39883 0.283203 8.33203 0.290235ZM9.86133 1.51719C11.5172 1.7668 13.3207 2.74063 15.0539 4.32617C15.5848 4.80781 16.6289 5.92227 16.6289 6.00313C16.6289 6.01367 16.5094 6.16484 16.3582 6.33359C14.3121 8.675 11.9848 10.1621 9.86133 10.482C9.41133 10.5488 8.58867 10.5488 8.13867 10.482C6.60937 10.25 4.97812 9.4168 3.35742 8.04219C2.77031 7.54648 1.37109 6.10508 1.37109 5.99961C1.37109 5.98555 1.49062 5.83438 1.6418 5.66563C3.67383 3.3418 6.00117 1.84766 8.10703 1.5207C8.53594 1.45391 9.42539 1.45391 9.86133 1.51719Z" fill="#777777"/>
<path d="M8.5083 2.46982C6.98604 2.74756 5.90322 3.73896 5.53408 5.19092C5.43916 5.56357 5.43916 6.43545 5.53408 6.80811C5.8751 8.14404 6.85596 9.1249 8.19189 9.46592C8.56455 9.56084 9.43643 9.56084 9.80908 9.46592C11.145 9.1249 12.1259 8.14404 12.4669 6.80811C12.5196 6.6042 12.5337 6.42139 12.5337 5.99951C12.5337 5.57764 12.5196 5.39482 12.4669 5.19092C12.1329 3.87256 11.1802 2.90576 9.86182 2.54717C9.62275 2.48037 8.72627 2.43115 8.5083 2.46982ZM9.56299 3.70029C10.2204 3.84795 10.8216 4.32959 11.1274 4.9624C11.3103 5.33857 11.3665 5.62686 11.3489 6.10498C11.3313 6.5585 11.2435 6.86436 11.0325 7.22295C10.8849 7.47607 10.4771 7.88389 10.2239 8.03154C9.48213 8.46748 8.51885 8.46748 7.77705 8.03154C7.52393 7.88389 7.11611 7.47607 6.96846 7.22295C6.53252 6.48115 6.53252 5.51787 6.96846 4.77607C7.11611 4.52295 7.52393 4.11514 7.77705 3.96748C8.30791 3.65459 8.93018 3.55967 9.56299 3.70029Z" fill="#777777"/>
</svg>
