<svg width="23" height="16" viewBox="0 0 23 16" fill="none" xmlns="http://www.w3.org/2000/svg">
<path d="M21.5 2.6C21.8314 2.6 22.1 2.33137 22.1 2C22.1 1.66863 21.8314 1.4 21.5 1.4V2.6ZM0 2.6H21.5V1.4H0V2.6Z" fill="#926A59"/>
<path d="M17 6.6C17.3314 6.6 17.6 6.33137 17.6 6C17.6 5.66863 17.3314 5.4 17 5.4V6.6ZM0 6.6H17V5.4H0V6.6Z" fill="#926A59"/>
<path d="M22 10.6C22.3314 10.6 22.6 10.3314 22.6 10C22.6 9.66863 22.3314 9.4 22 9.4V10.6ZM0 10.6H22V9.4H0V10.6Z" fill="#926A59"/>
<path d="M17 14.6C17.3314 14.6 17.6 14.3314 17.6 14C17.6 13.6686 17.3314 13.4 17 13.4V14.6ZM0 14.6H17V13.4H0V14.6Z" fill="#926A59"/>
</svg>
