<svg width="34" height="29" viewBox="0 0 34 29" fill="none" xmlns="http://www.w3.org/2000/svg">
<path fill-rule="evenodd" clip-rule="evenodd" d="M11.0528 28.9022C10.0709 28.5413 8.5384 27.7485 7.42949 27.0278C6.10276 26.1655 4.27992 24.521 3.37215 23.3673C1.74161 21.2951 0.888626 19.1875 0.398483 16.0194C0.0688434 13.8891 0.0454021 13.3482 0.0149886 7.16483C-0.0173505 0.588655 -0.0468349 1.00143 0.492117 0.480406C1.01214 -0.0224494 0.704484 0.000150742 7.03869 0.000151296C13.1565 0.000151831 12.9423 -0.0119179 13.4477 0.360858C13.5768 0.45601 13.7631 0.666604 13.8618 0.828788L14.0411 1.12375L14.0591 6.72663L14.0771 12.3295L13.9336 12.652C13.7652 13.0306 13.3028 13.4526 12.9535 13.5464C12.8104 13.5848 11.6173 13.6111 10.0069 13.6113L7.30086 13.6117L7.30086 14.0154C7.30086 14.9346 7.57193 16.4946 7.91127 17.5282C8.36236 18.9024 9.05066 20.0103 10.0477 20.9671C10.8611 21.7478 11.803 22.3678 13.1271 22.9942C14.0953 23.4521 14.2405 23.5658 14.5065 24.0737C14.577 24.2082 14.6239 24.448 14.6262 24.6849C14.6296 25.028 14.5853 25.1673 14.2583 25.8441C13.0137 28.4195 12.9119 28.5829 12.392 28.8393C12.0108 29.0274 11.4633 29.053 11.0528 28.9022ZM30.6899 28.9493C30.3219 28.8836 28.5914 28.0648 27.6543 27.5131C24.8115 25.839 22.5924 23.5963 21.2938 21.0848C20.3443 19.2483 19.8739 17.3931 19.5427 14.1773C19.4546 13.3228 19.4294 12.045 19.4056 7.22955C19.3728 0.581209 19.343 1.00221 19.8827 0.480408C20.4027 -0.0223848 20.0955 0.000152437 26.4258 0.000152991C32.5961 0.00015353 32.3798 -0.0128184 32.8815 0.387054C33.0132 0.491965 33.1982 0.727983 33.2929 0.911546L33.4649 1.24529L33.4634 6.80246C33.4619 12.2544 33.4593 12.3651 33.3267 12.6486C33.1712 12.9808 32.9341 13.2394 32.6016 13.4396C32.3745 13.5764 32.3032 13.5804 29.5146 13.6117L26.6601 13.6438L26.6803 14.1574C26.7327 15.4841 27.064 17.063 27.524 18.1784C27.997 19.3252 28.5636 20.1617 29.4232 20.9828C30.2056 21.73 31.0044 22.2625 32.2583 22.8724C33.4603 23.4571 33.7963 23.7266 33.9324 24.2151C34.0934 24.7933 34.0086 25.0846 33.216 26.6775C32.7737 27.5665 32.3812 28.2665 32.2298 28.4362C31.8451 28.8675 31.2823 29.055 30.6899 28.9493Z" fill="#CE9560" fill-opacity="0.2"/>
</svg>
