<svg width="24" height="24" viewBox="0 0 24 24" fill="none" xmlns="http://www.w3.org/2000/svg">
<path d="M12 12C9.87827 12 7.84344 12.7836 6.34315 14.1784C4.84285 15.5732 4 17.465 4 19.4375V20.5H20V19.4375C20 17.465 19.1571 15.5732 17.6569 14.1784C16.1566 12.7836 14.1217 12 12 12ZM12 12C13.2124 12 14.3752 11.5522 15.2325 10.7552C16.0898 9.95817 16.5714 8.87717 16.5714 7.75C16.5714 6.62283 16.0898 5.54183 15.2325 4.7448C14.3752 3.94777 13.2124 3.5 12 3.5C10.7876 3.5 9.62482 3.94777 8.76751 4.7448C7.9102 5.54183 7.42857 6.62283 7.42857 7.75C7.42857 8.87717 7.9102 9.95817 8.76751 10.7552C9.62482 11.5522 10.7876 12 12 12Z" stroke="white" stroke-width="1.5" strokeLinecap="round" stroke-linejoin="round"/>
</svg>
